<svg width="16" height="16" viewBox="0 0 16 16" fill="none" xmlns="http://www.w3.org/2000/svg">
<path fill-rule="evenodd" clip-rule="evenodd" d="M8.00021 1.3335C5.37621 1.3335 3.15753 3.27599 2.81073 5.87696L2.20733 10.4025C2.04747 11.6015 2.98021 12.6668 4.18979 12.6668H4.90263C5.5054 13.8321 6.64112 14.6668 8.00021 14.6668C9.35929 14.6668 10.495 13.8321 11.0978 12.6668H11.8106C13.0202 12.6668 13.9529 11.6015 13.7931 10.4025L13.1897 5.87696C12.8429 3.27599 10.6242 1.3335 8.00021 1.3335ZM9.48138 12.6668H6.51903C6.92499 13.0917 7.45138 13.3335 8.00021 13.3335C8.54903 13.3335 9.07543 13.0917 9.48138 12.6668Z" fill="#A1A1A1"/>
</svg>
