<svg width="32" height="32" viewBox="0 0 32 32" fill="none" xmlns="http://www.w3.org/2000/svg">
<rect width="32" height="32" rx="8" fill="#F5F5F5"/>
<path d="M24.3318 22C24.3318 21.5629 24.2008 21.157 23.9761 20.8181L21.007 23.7871C21.346 24.0118 21.7518 24.1429 22.189 24.1429C23.3724 24.1429 24.3318 23.1835 24.3318 22ZM20.0461 22C20.0461 22.4367 20.1767 22.8424 20.401 23.1811L23.37 20.2121C23.0313 19.9878 22.6257 19.8571 22.189 19.8571C21.0055 19.8571 20.0461 20.8165 20.0461 22ZM25.189 22C25.189 23.6569 23.8458 25 22.189 25C21.3607 25 20.6103 24.6635 20.0679 24.1211C19.5254 23.5787 19.189 22.8283 19.189 22C19.189 20.3431 20.5321 19 22.189 19C23.0173 19 23.7676 19.3365 24.3101 19.8789C24.8525 20.4213 25.189 21.1717 25.189 22Z" fill="#FF6467"/>
<path fill-rule="evenodd" clip-rule="evenodd" d="M7.5 10.0833C7.5 8.51853 8.76853 7.25 10.3333 7.25H21.6667C23.2315 7.25 24.5 8.51853 24.5 10.0833V18.7348C23.8474 18.272 23.0499 18 22.189 18C19.9798 18 18.189 19.7909 18.189 22C18.189 22.8343 18.4444 23.6089 18.8813 24.25H10.3333C8.76853 24.25 7.5 22.9815 7.5 21.4167V10.0833ZM9.38889 10.0833C9.38889 9.56173 9.81173 9.13889 10.3333 9.13889H21.6667C22.1883 9.13889 22.6111 9.56173 22.6111 10.0833V11.0278H9.38889V10.0833ZM13.4028 15.75C13.4028 16.402 12.8742 16.9306 12.2222 16.9306C11.5702 16.9306 11.0417 16.402 11.0417 15.75C11.0417 15.098 11.5702 14.5694 12.2222 14.5694C12.8742 14.5694 13.4028 15.098 13.4028 15.75ZM13.4028 19.5278C13.4028 20.1798 12.8742 20.7083 12.2222 20.7083C11.5702 20.7083 11.0417 20.1798 11.0417 19.5278C11.0417 18.8758 11.5702 18.3472 12.2222 18.3472C12.8742 18.3472 13.4028 18.8758 13.4028 19.5278ZM16 16.9306C16.652 16.9306 17.1806 16.402 17.1806 15.75C17.1806 15.098 16.652 14.5694 16 14.5694C15.348 14.5694 14.8194 15.098 14.8194 15.75C14.8194 16.402 15.348 16.9306 16 16.9306ZM17.1806 19.5278C17.1806 20.1798 16.652 20.7083 16 20.7083C15.348 20.7083 14.8194 20.1798 14.8194 19.5278C14.8194 18.8758 15.348 18.3472 16 18.3472C16.652 18.3472 17.1806 18.8758 17.1806 19.5278ZM19.7778 16.9306C20.4298 16.9306 20.9583 16.402 20.9583 15.75C20.9583 15.098 20.4298 14.5694 19.7778 14.5694C19.1258 14.5694 18.5972 15.098 18.5972 15.75C18.5972 16.402 19.1258 16.9306 19.7778 16.9306Z" fill="#737373"/>
</svg>
