<svg width="32" height="32" viewBox="0 0 32 32" fill="none" xmlns="http://www.w3.org/2000/svg">
<rect width="32" height="32" rx="8" fill="#F5F5F5"/>
<path d="M22.1619 19.3553C22.1619 18.8437 22.774 18.5804 23.1454 18.9323L25.6958 21.3484C25.9384 21.5782 25.9384 21.9646 25.6958 22.1944L23.1454 24.6106C22.774 24.9624 22.1619 24.6991 22.1619 24.1876V23.2723C21.0239 23.2903 20.3887 23.4031 19.9936 23.5829C19.5952 23.7642 19.4164 24.0239 19.1923 24.4609C19.0065 24.8233 18.4962 24.6551 18.5 24.2894C18.5142 22.9138 18.7329 21.8765 19.3921 21.197C20.0015 20.5689 20.92 20.3146 22.1619 20.2778V19.3553Z" fill="#D4D4D4"/>
<path fill-rule="evenodd" clip-rule="evenodd" d="M7.5 10.0833C7.5 8.51853 8.76853 7.25 10.3333 7.25H21.6667C23.2315 7.25 24.5 8.51853 24.5 10.0833V18.8377L23.833 18.206L23.7363 18.122C22.7217 17.2965 21.1621 18.0093 21.1621 19.3554C20.2075 19.4908 19.3388 19.8165 18.6748 20.5009C17.8483 21.3528 17.5795 22.5192 17.5156 23.749L17.5009 24.25H10.3333C8.76853 24.25 7.5 22.9815 7.5 21.4167V10.0833ZM9.38889 10.0833C9.38889 9.56173 9.81173 9.13889 10.3333 9.13889H21.6667C22.1883 9.13889 22.6111 9.56173 22.6111 10.0833V11.0278H9.38889V10.0833ZM13.4028 15.75C13.4028 16.402 12.8742 16.9306 12.2222 16.9306C11.5702 16.9306 11.0417 16.402 11.0417 15.75C11.0417 15.098 11.5702 14.5694 12.2222 14.5694C12.8742 14.5694 13.4028 15.098 13.4028 15.75ZM13.4028 19.5278C13.4028 20.1798 12.8742 20.7083 12.2222 20.7083C11.5702 20.7083 11.0417 20.1798 11.0417 19.5278C11.0417 18.8758 11.5702 18.3472 12.2222 18.3472C12.8742 18.3472 13.4028 18.8758 13.4028 19.5278ZM16 16.9306C16.652 16.9306 17.1806 16.402 17.1806 15.75C17.1806 15.098 16.652 14.5694 16 14.5694C15.348 14.5694 14.8194 15.098 14.8194 15.75C14.8194 16.402 15.348 16.9306 16 16.9306ZM17.1806 19.5278C17.1806 20.1798 16.652 20.7083 16 20.7083C15.348 20.7083 14.8194 20.1798 14.8194 19.5278C14.8194 18.8758 15.348 18.3472 16 18.3472C16.652 18.3472 17.1806 18.8758 17.1806 19.5278ZM19.7778 16.9306C20.4298 16.9306 20.9583 16.402 20.9583 15.75C20.9583 15.098 20.4298 14.5694 19.7778 14.5694C19.1258 14.5694 18.5972 15.098 18.5972 15.75C18.5972 16.402 19.1258 16.9306 19.7778 16.9306Z" fill="#737373"/>
</svg>
