<svg width="36" height="36" viewBox="0 0 36 36" fill="none" xmlns="http://www.w3.org/2000/svg">
<g clip-path="url(#clip0_182_2855)">
<rect width="36" height="36" rx="6.85714" fill="#FEFCE8"/>
<path d="M25.1481 7.875C24.8855 7.875 24.643 8.01532 24.5121 8.24295L22.5836 11.5968C22.3024 12.0859 22.6554 12.6962 23.2196 12.6962H24.4536C24.5199 12.6962 24.5695 12.757 24.5563 12.822L24.0386 15.3536C23.8928 16.0663 24.7617 16.5338 25.2762 16.0193L29.8623 11.4332C30.3244 10.971 29.9971 10.1808 29.3435 10.1808H28.3089C28.231 10.1808 28.1803 10.0988 28.2152 10.0291L28.7613 8.93676C29.0052 8.44895 28.6505 7.875 28.1051 7.875H25.1481Z" fill="#D08700"/>
<path fill-rule="evenodd" clip-rule="evenodd" d="M28.2278 18C28.2278 23.5918 23.6947 28.125 18.1028 28.125C12.5109 28.125 7.97778 23.5918 7.97778 18C7.97778 12.4082 12.5109 7.875 18.1028 7.875C19.6864 7.875 21.1852 8.23853 22.52 8.88672L21.3647 10.8955C20.6052 12.2163 21.4319 13.8389 22.8647 14.0723L22.6606 15.0723C22.236 17.1509 24.7706 18.5142 26.271 17.0137L27.8895 15.395C28.1102 16.2261 28.2278 17.0994 28.2278 18ZM19.1152 13.95C19.1152 13.3909 18.662 12.9375 18.1028 12.9375C17.5436 12.9375 17.0903 13.3909 17.0903 13.95V18C17.0903 18.2686 17.1969 18.5261 17.3868 18.7161L19.9181 21.2473C20.3135 21.6426 20.9546 21.6426 21.35 21.2473C21.7454 20.8518 21.7454 20.2107 21.35 19.8152L19.1152 17.5806V13.95Z" fill="#D08700"/>
</g>
<defs>
<clipPath id="clip0_182_2855">
<rect width="36" height="36" rx="9" fill="white"/>
</clipPath>
</defs>
</svg>
