<svg width="36" height="36" viewBox="0 0 36 36" fill="none" xmlns="http://www.w3.org/2000/svg">
<g clip-path="url(#clip0_182_2854)">
<rect width="36" height="36" rx="6.85714" fill="#F3E8FF"/>
<path d="M24.3154 7.875C23.6941 7.875 23.1904 8.37868 23.1904 9C23.1904 9.62132 23.6941 10.125 24.3154 10.125H25.4404L23.4154 12.825C23.1598 13.1659 23.1186 13.622 23.3092 14.0031C23.4998 14.3842 23.8893 14.625 24.3154 14.625H27.6904C28.3118 14.625 28.8154 14.1213 28.8154 13.5C28.8154 12.8787 28.3118 12.375 27.6904 12.375H26.5654L28.5904 9.675C28.8461 9.33411 28.8872 8.87802 28.6967 8.49688C28.5061 8.11575 28.1166 7.875 27.6904 7.875H24.3154Z" fill="#8200DB"/>
<path fill-rule="evenodd" clip-rule="evenodd" d="M28.2278 18C28.2278 23.5918 23.6946 28.125 18.1028 28.125C12.511 28.125 7.97778 23.5918 7.97778 18C7.97778 12.4082 12.511 7.875 18.1028 7.875C19.4146 7.875 20.6682 8.12451 21.8186 8.57861C21.8132 8.6106 21.8086 8.64258 21.8044 8.67505L21.7969 8.74121L21.7842 9L21.7969 9.25879C21.8762 10.0393 22.3118 10.7129 22.9365 11.1201L22.29 11.9814C21.7151 12.7485 21.623 13.7744 22.0518 14.6318C22.4805 15.4895 23.3567 16.0312 24.3154 16.0312H27.6904C27.8062 16.0312 27.9202 16.0234 28.032 16.0083C28.1604 16.6523 28.2278 17.3184 28.2278 18ZM19.1152 13.95C19.1152 13.3909 18.6619 12.9375 18.1028 12.9375C17.5437 12.9375 17.0903 13.3909 17.0903 13.95V18C17.0903 18.2686 17.197 18.5261 17.3867 18.7161L19.918 21.2473C20.3135 21.6426 20.9546 21.6426 21.3501 21.2473C21.7454 20.8518 21.7454 20.2107 21.3501 19.8152L19.1152 17.5806V13.95Z" fill="#8200DB"/>
</g>
<defs>
<clipPath id="clip0_182_2854">
<rect width="36" height="36" rx="9" fill="white"/>
</clipPath>
</defs>
</svg>
