<svg width="32" height="32" viewBox="0 0 32 32" fill="none" xmlns="http://www.w3.org/2000/svg">
<g clip-path="url(#clip0_182_2874)">
<rect width="32" height="32" rx="6.09524" fill="#F5F5F5"/>
<path d="M22.3536 7C22.1202 7 21.9046 7.12473 21.7883 7.32707L20.0741 10.3083C19.8241 10.7431 20.1379 11.2855 20.6394 11.2855H21.7363C21.7952 11.2855 21.8394 11.3396 21.8276 11.3973L21.3674 13.6476C21.2379 14.2812 22.0102 14.6967 22.4675 14.2394L26.544 10.1629C26.9548 9.75204 26.6639 9.04959 26.0829 9.04959H25.1633C25.094 9.04959 25.049 8.97671 25.0799 8.91476L25.5654 7.94379C25.7822 7.51018 25.4669 7 24.9821 7H22.3536Z" fill="#737373"/>
<path fill-rule="evenodd" clip-rule="evenodd" d="M25.0913 16C25.0913 20.9705 21.0619 25 16.0913 25C11.1207 25 7.09131 20.9705 7.09131 16C7.09131 11.0295 11.1207 7 16.0913 7C17.499 7 18.8312 7.32313 20.0177 7.89931L18.9908 9.6849C18.3157 10.8589 19.0505 12.3012 20.3242 12.5087L20.1427 13.3976C19.7652 15.2452 22.0183 16.457 23.3519 15.1233L24.7906 13.6845C24.9868 14.4232 25.0913 15.1994 25.0913 16ZM16.9913 12.4C16.9913 11.903 16.5884 11.5 16.0913 11.5C15.5942 11.5 15.1914 11.903 15.1914 12.4V16C15.1914 16.2387 15.2861 16.4677 15.4549 16.6365L17.7049 18.8865C18.0564 19.2378 18.6262 19.2378 18.9777 18.8865C19.3292 18.5349 19.3292 17.9651 18.9777 17.6135L16.9913 15.6272V12.4Z" fill="#737373"/>
</g>
<defs>
<clipPath id="clip0_182_2874">
<rect width="32" height="32" rx="8" fill="white"/>
</clipPath>
</defs>
</svg>
