<svg width="32" height="32" viewBox="0 0 32 32" fill="none" xmlns="http://www.w3.org/2000/svg">
<g clip-path="url(#clip0_182_2875)">
<rect width="32" height="32" rx="6.09524" fill="#F5F5F5"/>
<path d="M21.6138 7C21.0615 7 20.6138 7.44772 20.6138 8C20.6138 8.55228 21.0615 9 21.6138 9H22.6138L20.8138 11.4C20.5865 11.703 20.55 12.1084 20.7193 12.4472C20.8887 12.786 21.235 13 21.6138 13H24.6138C25.1661 13 25.6138 12.5523 25.6138 12C25.6138 11.4477 25.1661 11 24.6138 11H23.6138L25.4138 8.6C25.641 8.29698 25.6776 7.89157 25.5082 7.55279C25.3388 7.214 24.9925 7 24.6138 7H21.6138Z" fill="#737373"/>
<path fill-rule="evenodd" clip-rule="evenodd" d="M25.0918 16C25.0918 20.9705 21.0623 25 16.0918 25C11.1213 25 7.0918 20.9705 7.0918 16C7.0918 11.0295 11.1213 7 16.0918 7C17.2578 7 18.3722 7.22179 19.3947 7.62543C19.39 7.65386 19.3859 7.68229 19.3822 7.71115L19.3754 7.76997L19.3641 8L19.3754 8.23003C19.446 8.92383 19.8331 9.52257 20.3885 9.88455L19.8138 10.6502C19.3027 11.332 19.2209 12.2439 19.602 13.0061C19.9831 13.7684 20.7619 14.25 21.6141 14.25H24.6141C24.717 14.25 24.8184 14.2431 24.9178 14.2296C25.0319 14.8021 25.0918 15.3941 25.0918 16ZM16.9918 12.4C16.9918 11.903 16.5888 11.5 16.0918 11.5C15.5948 11.5 15.1918 11.903 15.1918 12.4V16C15.1918 16.2387 15.2867 16.4677 15.4553 16.6365L17.7053 18.8865C18.0569 19.2378 18.6267 19.2378 18.9783 18.8865C19.3296 18.5349 19.3296 17.9651 18.9783 17.6135L16.9918 15.6272V12.4Z" fill="#737373"/>
</g>
<defs>
<clipPath id="clip0_182_2875">
<rect width="32" height="32" rx="8" fill="white"/>
</clipPath>
</defs>
</svg>
