<svg width="96" height="96" viewBox="0 0 96 96" fill="none" xmlns="http://www.w3.org/2000/svg">
<g clip-path="url(#clip0_64_2188)">
<g filter="url(#filter0_i_64_2188)">
<path fill-rule="evenodd" clip-rule="evenodd" d="M0 14.6667C0 6.56649 6.56649 0 14.6667 0H81.3333C89.4335 0 96 6.56649 96 14.6667V81.3333C96 89.4335 89.4335 96 81.3333 96H14.6667C6.56649 96 0 89.4335 0 81.3333V14.6667Z" fill="url(#paint0_linear_64_2188)"/>
</g>
<path d="M14.667 1H81.333C88.8809 1 95 7.1191 95 14.667V81.333C95 88.8809 88.8809 95 81.333 95H14.667C7.1191 95 1 88.8809 1 81.333V14.667C1 7.1191 7.1191 1 14.667 1Z" stroke="url(#paint1_linear_64_2188)" stroke-opacity="0.8" stroke-width="2"/>
<g filter="url(#filter1_ddddi_64_2188)">
<path fill-rule="evenodd" clip-rule="evenodd" d="M19 47C19 31.536 31.536 19 47 19C62.464 19 75 31.536 75 47C75 62.464 62.464 75 47 75C31.536 75 19 62.464 19 47Z" fill="url(#paint2_linear_64_2188)" shape-rendering="crispEdges"/>
<path d="M47 17.75C63.1543 17.75 76.25 30.8457 76.25 47C76.25 63.1543 63.1543 76.25 47 76.25C30.8457 76.25 17.75 63.1543 17.75 47C17.75 30.8457 30.8457 17.75 47 17.75Z" stroke="url(#paint3_linear_64_2188)" stroke-opacity="0.8" stroke-width="2.5" shape-rendering="crispEdges"/>
</g>
<g filter="url(#filter2_i_64_2188)">
<path d="M50.7333 35.8C50.7333 33.7381 49.0619 32.0667 47 32.0667C44.9381 32.0667 43.2667 33.7381 43.2667 35.8V47C43.2667 47.9901 43.66 48.9397 44.3601 49.6399L53.0712 58.351C54.5292 59.8089 56.893 59.8089 58.351 58.351C59.8089 56.893 59.8089 54.5292 58.351 53.0712L50.7333 45.4536V35.8Z" fill="#0385D6"/>
</g>
</g>
<defs>
<filter id="filter0_i_64_2188" x="0" y="-8" width="96" height="104" filterUnits="userSpaceOnUse" color-interpolation-filters="sRGB">
<feFlood flood-opacity="0" result="BackgroundImageFix"/>
<feBlend mode="normal" in="SourceGraphic" in2="BackgroundImageFix" result="shape"/>
<feColorMatrix in="SourceAlpha" type="matrix" values="0 0 0 0 0 0 0 0 0 0 0 0 0 0 0 0 0 0 127 0" result="hardAlpha"/>
<feOffset dy="-11"/>
<feGaussianBlur stdDeviation="4"/>
<feComposite in2="hardAlpha" operator="arithmetic" k2="-1" k3="1"/>
<feColorMatrix type="matrix" values="0 0 0 0 0.0622689 0 0 0 0 0.489572 0 0 0 0 0.863462 0 0 0 1 0"/>
<feBlend mode="normal" in2="shape" result="effect1_innerShadow_64_2188"/>
</filter>
<filter id="filter1_ddddi_64_2188" x="6.5" y="8.56667" width="81" height="86.9333" filterUnits="userSpaceOnUse" color-interpolation-filters="sRGB">
<feFlood flood-opacity="0" result="BackgroundImageFix"/>
<feColorMatrix in="SourceAlpha" type="matrix" values="0 0 0 0 0 0 0 0 0 0 0 0 0 0 0 0 0 0 127 0" result="hardAlpha"/>
<feMorphology radius="0.466667" operator="dilate" in="SourceAlpha" result="effect1_dropShadow_64_2188"/>
<feOffset/>
<feGaussianBlur stdDeviation="3.73333"/>
<feComposite in2="hardAlpha" operator="out"/>
<feColorMatrix type="matrix" values="0 0 0 0 0.109804 0 0 0 0 0.109804 0 0 0 0 0.109804 0 0 0 0.12 0"/>
<feBlend mode="normal" in2="BackgroundImageFix" result="effect1_dropShadow_64_2188"/>
<feColorMatrix in="SourceAlpha" type="matrix" values="0 0 0 0 0 0 0 0 0 0 0 0 0 0 0 0 0 0 127 0" result="hardAlpha"/>
<feOffset dy="2"/>
<feGaussianBlur stdDeviation="2"/>
<feComposite in2="hardAlpha" operator="out"/>
<feColorMatrix type="matrix" values="0 0 0 0 0 0 0 0 0 0.646405 0 0 0 0 0.901961 0 0 0 0.04 0"/>
<feBlend mode="normal" in2="effect1_dropShadow_64_2188" result="effect2_dropShadow_64_2188"/>
<feColorMatrix in="SourceAlpha" type="matrix" values="0 0 0 0 0 0 0 0 0 0 0 0 0 0 0 0 0 0 127 0" result="hardAlpha"/>
<feOffset dy="4"/>
<feGaussianBlur stdDeviation="4"/>
<feComposite in2="hardAlpha" operator="out"/>
<feColorMatrix type="matrix" values="0 0 0 0 0 0 0 0 0 0.391827 0 0 0 0 0.783654 0 0 0 0.12 0"/>
<feBlend mode="normal" in2="effect2_dropShadow_64_2188" result="effect3_dropShadow_64_2188"/>
<feColorMatrix in="SourceAlpha" type="matrix" values="0 0 0 0 0 0 0 0 0 0 0 0 0 0 0 0 0 0 127 0" result="hardAlpha"/>
<feOffset dy="8"/>
<feGaussianBlur stdDeviation="5"/>
<feComposite in2="hardAlpha" operator="out"/>
<feColorMatrix type="matrix" values="0 0 0 0 0 0 0 0 0 0 0 0 0 0 0.528846 0 0 0 0.24 0"/>
<feBlend mode="normal" in2="effect3_dropShadow_64_2188" result="effect4_dropShadow_64_2188"/>
<feBlend mode="normal" in="SourceGraphic" in2="effect4_dropShadow_64_2188" result="shape"/>
<feColorMatrix in="SourceAlpha" type="matrix" values="0 0 0 0 0 0 0 0 0 0 0 0 0 0 0 0 0 0 127 0" result="hardAlpha"/>
<feOffset dx="-3" dy="3"/>
<feGaussianBlur stdDeviation="1"/>
<feComposite in2="hardAlpha" operator="arithmetic" k2="-1" k3="1"/>
<feColorMatrix type="matrix" values="0 0 0 0 1 0 0 0 0 1 0 0 0 0 1 0 0 0 0.16 0"/>
<feBlend mode="normal" in2="shape" result="effect5_innerShadow_64_2188"/>
</filter>
<filter id="filter2_i_64_2188" x="42.2667" y="32.0667" width="17.1778" height="28.3778" filterUnits="userSpaceOnUse" color-interpolation-filters="sRGB">
<feFlood flood-opacity="0" result="BackgroundImageFix"/>
<feBlend mode="normal" in="SourceGraphic" in2="BackgroundImageFix" result="shape"/>
<feColorMatrix in="SourceAlpha" type="matrix" values="0 0 0 0 0 0 0 0 0 0 0 0 0 0 0 0 0 0 127 0" result="hardAlpha"/>
<feOffset dx="-1" dy="1"/>
<feGaussianBlur stdDeviation="1.5"/>
<feComposite in2="hardAlpha" operator="arithmetic" k2="-1" k3="1"/>
<feColorMatrix type="matrix" values="0 0 0 0 0.109804 0 0 0 0 0.109804 0 0 0 0 0.109804 0 0 0 0.12 0"/>
<feBlend mode="normal" in2="shape" result="effect1_innerShadow_64_2188"/>
</filter>
<linearGradient id="paint0_linear_64_2188" x1="48" y1="0" x2="48" y2="96" gradientUnits="userSpaceOnUse">
<stop stop-color="#61D2FF"/>
<stop offset="1" stop-color="#0A7EF2"/>
</linearGradient>
<linearGradient id="paint1_linear_64_2188" x1="1.8999e-06" y1="-0.500002" x2="96" y2="95.5" gradientUnits="userSpaceOnUse">
<stop stop-color="#82F2FF"/>
<stop offset="1" stop-color="#26C4FE"/>
</linearGradient>
<linearGradient id="paint2_linear_64_2188" x1="19" y1="75" x2="75" y2="19" gradientUnits="userSpaceOnUse">
<stop stop-color="#149AFA"/>
<stop offset="1" stop-color="#2EF2FC"/>
</linearGradient>
<linearGradient id="paint3_linear_64_2188" x1="19" y1="18.7083" x2="75" y2="74.7083" gradientUnits="userSpaceOnUse">
<stop stop-color="#82F2FF"/>
<stop offset="1" stop-color="#26C4FE"/>
</linearGradient>
<clipPath id="clip0_64_2188">
<rect width="96" height="96" fill="white"/>
</clipPath>
</defs>
</svg>
