<svg width="16" height="16" viewBox="0 0 16 16" fill="none" xmlns="http://www.w3.org/2000/svg">
<path d="M2.44249 2.87951L1.99699 2.65251L2.44249 2.87951ZM2.87951 2.44249L2.65251 1.99699L2.87951 2.44249ZM2.87951 13.5578L3.1065 13.1123L2.87951 13.5578ZM2.44249 13.1208L1.99699 13.3478L2.44249 13.1208ZM13.5578 13.1208L14.0033 13.3478L13.5578 13.1208ZM13.1208 13.5578L12.8938 13.1123L13.1208 13.5578ZM13.5578 2.87951L13.1123 3.1065L13.5578 2.87951ZM13.1208 2.44249L13.3478 1.99699L13.1208 2.44249ZM6.66683 6.62516H7.16683V5.50016H6.66683H6.16683V6.62516H6.66683ZM5.47933 6.62516V7.12516H6.66683V6.62516V6.12516H5.47933V6.62516ZM9.3335 6.62516H9.8335V5.50016H9.3335H8.8335V6.62516H9.3335ZM10.521 6.62516V6.12516H9.3335V6.62516V7.12516H10.521V6.62516ZM6.66683 6.62516V7.12516H9.3335V6.62516V6.12516H6.66683V6.62516ZM9.3335 9.3335V8.8335H6.66683V9.3335V9.8335H9.3335V9.3335ZM6.66683 9.3335H7.16683V6.62516H6.66683H6.16683V9.3335H6.66683ZM9.3335 6.62516H8.8335V9.3335H9.3335H9.8335V6.62516H9.3335ZM9.3335 10.5002H9.8335V9.3335H9.3335H8.8335V10.5002H9.3335ZM6.66683 10.5002H7.16683V9.3335H6.66683H6.16683V10.5002H6.66683ZM6.66683 9.3335V8.8335H5.50016V9.3335V9.8335H6.66683V9.3335ZM9.3335 9.3335V9.8335H10.5002V9.3335V8.8335H9.3335V9.3335ZM4.3335 10.5002H4.8335C4.8335 10.132 5.13197 9.8335 5.50016 9.8335V9.3335V8.8335C4.57969 8.8335 3.8335 9.57969 3.8335 10.5002H4.3335ZM11.6668 10.5002H12.1668C12.1668 9.57969 11.4206 8.8335 10.5002 8.8335V9.3335V9.8335C10.8684 9.8335 11.1668 10.132 11.1668 10.5002H11.6668ZM9.3335 10.5002H8.8335C8.8335 11.4206 9.57969 12.1668 10.5002 12.1668V11.6668V11.1668C10.132 11.1668 9.8335 10.8684 9.8335 10.5002H9.3335ZM11.6668 5.47933H11.1668C11.1668 5.83601 10.8777 6.12516 10.521 6.12516V6.62516V7.12516C11.43 7.12516 12.1668 6.3883 12.1668 5.47933H11.6668ZM9.3335 5.50016H9.8335C9.8335 5.13779 10.1366 4.8335 10.5107 4.8335V4.3335V3.8335C9.59605 3.8335 8.8335 4.57388 8.8335 5.50016H9.3335ZM5.50016 11.6668V12.1668C6.42064 12.1668 7.16683 11.4206 7.16683 10.5002H6.66683H6.16683C6.16683 10.8684 5.86835 11.1668 5.50016 11.1668V11.6668ZM4.3335 5.47933H3.8335C3.8335 6.3883 4.57036 7.12516 5.47933 7.12516V6.62516V6.12516C5.12265 6.12516 4.8335 5.83601 4.8335 5.47933H4.3335ZM5.50016 11.6668V11.1668C5.13197 11.1668 4.8335 10.8684 4.8335 10.5002H4.3335H3.8335C3.8335 11.4206 4.57969 12.1668 5.50016 12.1668V11.6668ZM5.48965 4.3335V3.8335C4.58653 3.8335 3.8335 4.56455 3.8335 5.47933H4.3335H4.8335C4.8335 5.12846 5.12712 4.8335 5.48965 4.8335V4.3335ZM10.5107 4.3335V4.8335C10.8732 4.8335 11.1668 5.12846 11.1668 5.47933H11.6668H12.1668C12.1668 4.56455 11.4138 3.8335 10.5107 3.8335V4.3335ZM11.6668 10.5002H11.1668C11.1668 10.8684 10.8684 11.1668 10.5002 11.1668V11.6668V12.1668C11.4206 12.1668 12.1668 11.4206 12.1668 10.5002H11.6668ZM6.66683 5.50016H7.16683C7.16683 4.57388 6.40428 3.8335 5.48965 3.8335V4.3335V4.8335C5.86369 4.8335 6.16683 5.13779 6.16683 5.50016H6.66683ZM13.6668 3.9335H13.1668V12.0668H13.6668H14.1668V3.9335H13.6668ZM12.0668 13.6668V13.1668H3.9335V13.6668V14.1668H12.0668V13.6668ZM2.3335 12.0668H2.8335V3.9335H2.3335H1.8335V12.0668H2.3335ZM3.9335 2.3335V2.8335H12.0668V2.3335V1.8335H3.9335V2.3335ZM2.3335 3.9335H2.8335C2.8335 3.64522 2.83388 3.45908 2.84546 3.31741C2.85656 3.18158 2.8754 3.13122 2.88799 3.1065L2.44249 2.87951L1.99699 2.65251C1.90059 2.8417 1.86493 3.03831 1.84878 3.23598C1.83311 3.42782 1.8335 3.66172 1.8335 3.9335H2.3335ZM3.9335 2.3335V1.8335C3.66172 1.8335 3.42782 1.83311 3.23598 1.84878C3.03831 1.86493 2.8417 1.90059 2.65251 1.99699L2.87951 2.44249L3.1065 2.88799C3.13122 2.8754 3.18158 2.85656 3.31741 2.84546C3.45908 2.83388 3.64522 2.8335 3.9335 2.8335V2.3335ZM2.44249 2.87951L2.88799 3.1065C2.93593 3.01242 3.01242 2.93593 3.1065 2.88799L2.87951 2.44249L2.65251 1.99699C2.37027 2.1408 2.1408 2.37027 1.99699 2.65251L2.44249 2.87951ZM3.9335 13.6668V13.1668C3.64522 13.1668 3.45908 13.1664 3.31741 13.1549C3.18158 13.1438 3.13122 13.1249 3.1065 13.1123L2.87951 13.5578L2.65251 14.0033C2.8417 14.0997 3.03831 14.1354 3.23598 14.1515C3.42782 14.1672 3.66172 14.1668 3.9335 14.1668V13.6668ZM2.3335 12.0668H1.8335C1.8335 12.3386 1.83311 12.5725 1.84878 12.7643C1.86493 12.962 1.90059 13.1586 1.99699 13.3478L2.44249 13.1208L2.88799 12.8938C2.8754 12.8691 2.85656 12.8187 2.84546 12.6829C2.83388 12.5412 2.8335 12.3551 2.8335 12.0668H2.3335ZM2.87951 13.5578L3.1065 13.1123C3.01242 13.0644 2.93593 12.9879 2.88799 12.8938L2.44249 13.1208L1.99699 13.3478C2.1408 13.6301 2.37027 13.8595 2.65251 14.0033L2.87951 13.5578ZM13.6668 12.0668H13.1668C13.1668 12.3551 13.1664 12.5412 13.1549 12.6829C13.1438 12.8187 13.1249 12.8691 13.1123 12.8938L13.5578 13.1208L14.0033 13.3478C14.0997 13.1586 14.1354 12.962 14.1515 12.7643C14.1672 12.5725 14.1668 12.3386 14.1668 12.0668H13.6668ZM12.0668 13.6668V14.1668C12.3386 14.1668 12.5725 14.1672 12.7643 14.1515C12.962 14.1354 13.1586 14.0997 13.3478 14.0033L13.1208 13.5578L12.8938 13.1123C12.8691 13.1249 12.8187 13.1438 12.6829 13.1549C12.5412 13.1664 12.3551 13.1668 12.0668 13.1668V13.6668ZM13.5578 13.1208L13.1123 12.8938C13.0644 12.9879 12.9879 13.0644 12.8938 13.1123L13.1208 13.5578L13.3478 14.0033C13.6301 13.8595 13.8595 13.6301 14.0033 13.3478L13.5578 13.1208ZM13.6668 3.9335H14.1668C14.1668 3.66172 14.1672 3.42782 14.1515 3.23598C14.1354 3.03831 14.0997 2.8417 14.0033 2.65251L13.5578 2.87951L13.1123 3.1065C13.1249 3.13122 13.1438 3.18158 13.1549 3.31741C13.1664 3.45908 13.1668 3.64522 13.1668 3.9335H13.6668ZM12.0668 2.3335V2.8335C12.3551 2.8335 12.5412 2.83388 12.6829 2.84546C12.8187 2.85656 12.8691 2.8754 12.8938 2.88799L13.1208 2.44249L13.3478 1.99699C13.1586 1.90059 12.962 1.86493 12.7643 1.84878C12.5725 1.83311 12.3386 1.8335 12.0668 1.8335V2.3335ZM13.5578 2.87951L14.0033 2.65251C13.8595 2.37027 13.6301 2.1408 13.3478 1.99699L13.1208 2.44249L12.8938 2.88799C12.9879 2.93593 13.0644 3.01242 13.1123 3.1065L13.5578 2.87951Z" fill="#737373"/>
</svg>
