<svg width="40" height="40" viewBox="0 0 40 40" fill="none" xmlns="http://www.w3.org/2000/svg">
<path d="M20.2636 1.97297V9.75676C20.2636 11.9062 22.006 13.6486 24.1554 13.6486H31.9392M8.58788 1H18.6515C19.6837 1 20.6736 1.41004 21.4035 2.13991L31.7723 12.5087C32.5022 13.2386 32.9122 14.2285 32.9122 15.2607V33.1081C32.9122 35.2575 31.1697 37 29.0203 37H8.58788C6.43844 37 4.69598 35.2575 4.69598 33.1081V4.89189C4.69598 2.74246 6.43844 1 8.58788 1Z" stroke="#F5F5F5" stroke-width="1.40625" stroke-linejoin="round"/>
<line x1="10.5073" y1="17.7969" x2="27.101" y2="17.7969" stroke="#D4D4D4" stroke-width="1.40625" stroke-linecap="round"/>
<line x1="10.5073" y1="21.1719" x2="27.101" y2="21.1719" stroke="#D4D4D4" stroke-width="1.40625" stroke-linecap="round"/>
<path d="M10.5073 24.5469H18.196" stroke="#D4D4D4" stroke-width="1.40625" stroke-linecap="round"/>
<path d="M21.3421 21.88C21.2379 23.8217 21.1336 25.7634 21.0799 26.9411C21.0101 28.4727 20.9915 28.9883 20.9302 29.3173C20.7291 30.3957 20.2565 31.7583 19.9217 32.1102C19.8068 32.231 19.5884 32.2522 19.3607 32.2619C19.2544 32.2663 19.1678 32.2155 19.097 32.1309C18.9398 31.9431 18.8856 31.6316 18.8329 31.1719C18.7446 30.4004 18.86 29.2508 19.1733 28.2426C19.4025 27.5052 19.5858 27.162 20.1902 26.334C20.5871 25.7903 21.0599 25.5779 21.3932 25.3414C21.6492 25.1597 21.9555 25.218 22.1479 25.2647C22.4034 25.3267 22.5525 25.6129 22.6402 25.848C22.8355 26.372 22.7636 26.9697 22.7112 27.3391C22.6493 27.7758 22.8679 26.4458 23.1661 26.0398C23.2322 25.9499 23.289 25.8981 23.3941 26.0746C23.7204 26.6231 23.8687 27.3091 23.9216 27.5926C23.9845 27.9294 23.7639 26.6732 23.8687 26.1533C23.8906 26.0445 23.9387 25.9739 24.0348 25.9354C24.1309 25.897 24.2872 25.897 24.446 26.009C25.1028 26.4725 25.097 27.2129 25.1241 27.6497C25.1336 27.8025 25.028 27.9518 24.9143 28.093C24.8571 28.1639 24.7832 28.2155 24.7387 28.179C24.3446 27.8557 24.8674 26.5634 25.2367 25.8704C25.4769 25.4197 25.9393 25.4257 26.1228 25.4347C26.4092 25.4489 26.6932 25.8195 26.9386 26.252C27.57 27.3652 27.0291 29.0426 26.5916 29.6477C26.2767 30.0833 25.8356 30.1589 25.6606 30.1685C25.5721 30.1734 25.4855 30.1221 25.4755 29.9629C25.4163 29.0209 26.0436 28.4452 26.4124 28.1702C26.6395 28.0854 27.7378 28.1029 29.2553 28.2064" stroke="#525252" stroke-width="0.84375" stroke-linecap="round"/>
<rect x="27.5606" y="30" width="10" height="10" rx="5" fill="#E5E5E5"/>
<path d="M32.5606 33.1667V35M32.5606 35V36.8333M32.5606 35H30.7273M32.5606 35H34.394" stroke="white" stroke-width="0.8" stroke-linecap="round"/>
</svg>
