<svg width="14" height="14" viewBox="0 0 14 14" fill="none" xmlns="http://www.w3.org/2000/svg">
<path fill-rule="evenodd" clip-rule="evenodd" d="M2.87529 2.87529C5.15336 0.597233 8.84682 0.597232 11.1249 2.8753C13.4029 5.15336 13.4029 8.84682 11.1249 11.1249C8.84681 13.4029 5.15334 13.4029 2.87529 11.1249C0.597233 8.84681 0.597232 5.15334 2.87529 2.87529ZM5.39592 6.41675C5.79862 6.41675 6.12508 6.025 6.12508 5.54175C6.12508 5.0585 5.79862 4.66675 5.39592 4.66675C4.99321 4.66675 4.66675 5.0585 4.66675 5.54175C4.66675 6.025 4.99321 6.41675 5.39592 6.41675ZM9.33342 5.54175C9.33342 6.025 9.00696 6.41675 8.60425 6.41675C8.20154 6.41675 7.87508 6.025 7.87508 5.54175C7.87508 5.0585 8.20154 4.66675 8.60425 4.66675C9.00696 4.66675 9.33342 5.0585 9.33342 5.54175ZM5.6597 8.34064C5.48885 8.16979 5.21184 8.16978 5.04098 8.34064C4.87013 8.51149 4.87013 8.7885 5.04098 8.95936C6.12306 10.0414 7.87745 10.0414 8.95953 8.95936C9.13039 8.7885 9.13039 8.51149 8.95953 8.34064C8.78868 8.16979 8.51167 8.16979 8.34081 8.34064C7.60044 9.08101 6.40007 9.08101 5.6597 8.34064Z" fill="#A1A1A1"/>
</svg>
