<svg width="258" height="78" viewBox="0 0 258 78" fill="none" xmlns="http://www.w3.org/2000/svg">
<path d="M29.25 9.6C29.25 4.29807 33.5481 0 38.85 0H219.65C224.952 0 229.25 4.29807 229.25 9.6V30.4C229.25 35.7019 224.952 40 219.65 40H38.85C33.5481 40 29.25 35.7019 29.25 30.4V9.6Z" fill="white"/>
<path d="M219.65 39V40H38.8496V39H219.65ZM228.25 30.4004V9.59961C228.25 4.85027 224.4 1.00022 219.65 1H38.8496C34.1003 1.00021 30.2502 4.85027 30.25 9.59961V30.4004C30.2502 35.1497 34.1003 38.9998 38.8496 39V40C33.7134 39.9998 29.5196 35.966 29.2627 30.8936L29.25 30.4004V9.59961C29.2502 4.29799 33.548 0.000211143 38.8496 0H219.65L220.144 0.0126953C225.216 0.269586 229.25 4.46339 229.25 9.59961V30.4004L229.237 30.8936C228.989 35.8026 225.053 39.7387 220.144 39.9873L219.65 40V39C224.4 38.9998 228.25 35.1497 228.25 30.4004Z" fill="#F7F7F7"/>
<path d="M16.25 19C16.25 14.0294 20.2794 10 25.25 10H232.25C237.221 10 241.25 14.0294 241.25 19V46C241.25 50.9706 237.221 55 232.25 55H25.25C20.2794 55 16.25 50.9706 16.25 46V19Z" fill="white"/>
<path d="M15.25 46V19C15.25 13.4772 19.7272 9 25.25 9V10L24.7871 10.0117C20.0317 10.2526 16.25 14.1847 16.25 19V46L16.2617 46.4629C16.5026 51.2183 20.4347 55 25.25 55H232.25C237.221 55 241.25 50.9706 241.25 46V19C241.25 14.1847 237.468 10.2526 232.713 10.0117L232.25 10V9C237.773 9 242.25 13.4772 242.25 19V46C242.25 51.5228 237.773 56 232.25 56H25.25C19.7272 56 15.25 51.5228 15.25 46ZM232.25 9V10H25.25V9H232.25Z" fill="#F2F2F2"/>
<g filter="url(#filter0_d_999_10996)">
<path d="M4 32C4 25.3726 9.37258 20 16 20H242C248.627 20 254 25.3726 254 32V58C254 64.6274 248.627 70 242 70H16C9.37258 70 4 64.6274 4 58V32Z" fill="white"/>
</g>
<path d="M3 58V32C3 24.8203 8.8203 19 16 19V20C9.37258 20 4 25.3726 4 32V58C4 64.5239 9.20608 69.8319 15.6904 69.9961L16 70H242L242.31 69.9961C248.691 69.8345 253.834 64.691 253.996 58.3096L254 58V32C254 25.3726 248.627 20 242 20V19C249.18 19 255 24.8203 255 32V58C255 65.1797 249.18 71 242 71H16C8.93261 71 3.18208 65.3604 3.00391 58.3359L3 58ZM242 19V20H16V19H242Z" fill="#E6E6E6"/>
<rect x="13.5" y="29" width="32" height="32" rx="6" fill="#E5E5E5" fill-opacity="0.5"/>
<rect x="53.5" y="29" width="74" height="10" rx="3" fill="#E5E5E5"/>
<rect x="221.5" y="29" width="24" height="10" rx="5" fill="#F5F5F5"/>
<rect x="53.5" y="45" width="108" height="8" rx="2" fill="#E5E5E5" fill-opacity="0.5"/>
<defs>
<filter id="filter0_d_999_10996" x="0" y="20" width="258" height="58" filterUnits="userSpaceOnUse" color-interpolation-filters="sRGB">
<feFlood flood-opacity="0" result="BackgroundImageFix"/>
<feColorMatrix in="SourceAlpha" type="matrix" values="0 0 0 0 0 0 0 0 0 0 0 0 0 0 0 0 0 0 127 0" result="hardAlpha"/>
<feOffset dy="4"/>
<feGaussianBlur stdDeviation="2"/>
<feComposite in2="hardAlpha" operator="out"/>
<feColorMatrix type="matrix" values="0 0 0 0 0 0 0 0 0 0 0 0 0 0 0 0 0 0 0.025 0"/>
<feBlend mode="normal" in2="BackgroundImageFix" result="effect1_dropShadow_999_10996"/>
<feBlend mode="normal" in="SourceGraphic" in2="effect1_dropShadow_999_10996" result="shape"/>
</filter>
</defs>
</svg>
