<svg width="232" height="78" viewBox="0 0 232 78" fill="none" xmlns="http://www.w3.org/2000/svg">
<path d="M23 9.6C23 4.29807 26.9972 0 31.928 0H200.072C205.003 0 209 4.29807 209 9.6V30.4C209 35.7019 205.003 40 200.072 40H31.928C26.9972 40 23 35.7019 23 30.4V9.6Z" fill="white"/>
<path d="M200.072 39V40H31.9276V39H200.072ZM208.07 30.4004V9.59961C208.07 4.85027 204.489 1.00022 200.072 1H31.9276C27.5108 1.00021 23.9302 4.85027 23.93 9.59961V30.4004C23.9302 35.1497 27.5108 38.9998 31.9276 39V40C27.151 39.9998 23.2507 35.966 23.0118 30.8936L23 30.4004V9.59961C23.0002 4.29799 26.9971 0.000211143 31.9276 0H200.072L200.531 0.0126953C205.248 0.269586 209 4.46339 209 9.59961V30.4004L208.988 30.8936C208.757 35.8026 205.097 39.7387 200.531 39.9873L200.072 40V39C204.489 38.9998 208.07 35.1497 208.07 30.4004Z" fill="#F7F7F7"/>
<path d="M13 19C13 14.0294 16.707 10 21.28 10H211.72C216.293 10 220 14.0294 220 19V46C220 50.9706 216.293 55 211.72 55H21.28C16.707 55 13 50.9706 13 46V19Z" fill="white"/>
<path d="M12 46V19C12 13.4772 16.1222 9 21.207 9V10L20.7809 10.0117C16.4025 10.2526 12.9207 14.1847 12.9207 19V46L12.9315 46.4629C13.1533 51.2183 16.7736 55 21.207 55H211.793C216.37 55 220.079 50.9706 220.079 46V19C220.079 14.1847 216.597 10.2526 212.219 10.0117L211.793 10V9C216.878 9 221 13.4772 221 19V46C221 51.5228 216.878 56 211.793 56H21.207C16.1222 56 12 51.5228 12 46ZM211.793 9V10H21.207V9H211.793Z" fill="#F2F2F2"/>
<g filter="url(#filter0_d_1021_8705)">
<path d="M0.920654 32C0.920654 25.3726 5.86684 20 11.9683 20H220.032C226.133 20 231.079 25.3726 231.079 32V58C231.079 64.6274 226.133 70 220.032 70H11.9683C5.86684 70 0.920654 64.6274 0.920654 58V32Z" fill="white"/>
</g>
<path d="M0 58V32C0 24.8203 5.35837 19 11.9683 19V20C5.86682 20 0.920635 25.3726 0.920635 32V58C0.920635 64.5239 5.71353 69.8319 11.6832 69.9961L11.9683 70H220.032L220.317 69.9961C226.192 69.8345 230.927 64.691 231.076 58.3096L231.079 58V32C231.079 25.3726 226.133 20 220.032 20V19C226.642 19 232 24.8203 232 32V58C232 65.1797 226.642 71 220.032 71H11.9683C5.46177 71 0.167629 65.3604 0.00359974 58.3359L0 58ZM220.032 19V20H11.9683V19H220.032Z" fill="#E6E6E6"/>
<path d="M36.5 29H16.5C13.1863 29 10.5 31.6863 10.5 35V55C10.5 58.3137 13.1863 61 16.5 61H36.5C39.8137 61 42.5 58.3137 42.5 55V35C42.5 31.6863 39.8137 29 36.5 29Z" fill="#E5E5E5" fill-opacity="0.5"/>
<path d="M121.5 29H53.5C51.8431 29 50.5 30.3431 50.5 32V36C50.5 37.6569 51.8431 39 53.5 39H121.5C123.157 39 124.5 37.6569 124.5 36V32C124.5 30.3431 123.157 29 121.5 29Z" fill="#E5E5E5"/>
<path d="M219 29H205C202.239 29 200 31.2386 200 34C200 36.7614 202.239 39 205 39H219C221.761 39 224 36.7614 224 34C224 31.2386 221.761 29 219 29Z" fill="#F5F5F5"/>
<path d="M156.5 45H52.5C51.3954 45 50.5 45.8954 50.5 47V51C50.5 52.1046 51.3954 53 52.5 53H156.5C157.605 53 158.5 52.1046 158.5 51V47C158.5 45.8954 157.605 45 156.5 45Z" fill="#E5E5E5" fill-opacity="0.5"/>
<defs>
<filter id="filter0_d_1021_8705" x="-3.07935" y="20" width="238.159" height="58" filterUnits="userSpaceOnUse" color-interpolation-filters="sRGB">
<feFlood flood-opacity="0" result="BackgroundImageFix"/>
<feColorMatrix in="SourceAlpha" type="matrix" values="0 0 0 0 0 0 0 0 0 0 0 0 0 0 0 0 0 0 127 0" result="hardAlpha"/>
<feOffset dy="4"/>
<feGaussianBlur stdDeviation="2"/>
<feComposite in2="hardAlpha" operator="out"/>
<feColorMatrix type="matrix" values="0 0 0 0 0 0 0 0 0 0 0 0 0 0 0 0 0 0 0.025 0"/>
<feBlend mode="normal" in2="BackgroundImageFix" result="effect1_dropShadow_1021_8705"/>
<feBlend mode="normal" in="SourceGraphic" in2="effect1_dropShadow_1021_8705" result="shape"/>
</filter>
</defs>
</svg>
