<svg width="16" height="16" viewBox="0 0 16 16" fill="none" xmlns="http://www.w3.org/2000/svg">
<path fill-rule="evenodd" clip-rule="evenodd" d="M1.5286 1.52859C1.78895 1.26824 2.21106 1.26824 2.4714 1.52859L4.89855 3.95573L4.90046 3.95764L12.0427 11.0998L12.0444 11.1016L14.4714 13.5286C14.7318 13.7889 14.7318 14.211 14.4714 14.4714C14.2111 14.7317 13.7889 14.7317 13.5286 14.4714L11.4687 12.4115C9.78931 13.3479 7.91362 13.5755 6.12891 13.0739C4.18055 12.5264 2.39459 11.1264 1.09607 8.94537C0.750093 8.36426 0.748614 7.63874 1.09532 7.05624C1.75388 5.94978 2.53753 5.04421 3.40563 4.34843L1.5286 2.4714C1.26825 2.21105 1.26825 1.78894 1.5286 1.52859ZM5.3335 8.00015C5.3335 7.50589 5.46836 7.04257 5.7028 6.64561L6.71188 7.65469C6.68247 7.76481 6.66683 7.88058 6.66683 8.00015C6.66683 8.73653 7.26378 9.33348 8.00016 9.33348C8.11972 9.33348 8.2355 9.31784 8.34562 9.28843L9.3547 10.2975C8.95774 10.532 8.49442 10.6668 8.00016 10.6668C6.5274 10.6668 5.3335 9.47291 5.3335 8.00015Z" fill="#737373"/>
<path d="M14.9041 8.94451C14.5026 9.61897 14.0544 10.2186 13.5694 10.7413L5.84115 3.01306C6.54385 2.78324 7.26885 2.66667 7.99964 2.66666C10.6341 2.66664 13.1934 4.18155 14.9041 7.05541C15.2505 7.63722 15.2505 8.3627 14.9041 8.94451Z" fill="#737373"/>
</svg>
