<svg width="16" height="16" viewBox="0 0 16 16" fill="none" xmlns="http://www.w3.org/2000/svg">
<path fill-rule="evenodd" clip-rule="evenodd" d="M8.00016 2.66667C10.6346 2.66665 13.1939 4.18156 14.9046 7.05542C15.251 7.63723 15.251 8.36271 14.9046 8.94452C13.1939 11.8184 10.6346 13.3333 8.00017 13.3333C5.36569 13.3334 2.80645 11.8185 1.09569 8.94459C0.749353 8.36278 0.749353 7.6373 1.09569 7.0555C2.80645 4.18163 5.36568 2.66669 8.00016 2.66667ZM5.66683 8.00001C5.66683 6.71134 6.7115 5.66667 8.00016 5.66667C9.28883 5.66667 10.3335 6.71134 10.3335 8.00001C10.3335 9.28867 9.28883 10.3333 8.00016 10.3333C6.7115 10.3333 5.66683 9.28867 5.66683 8.00001Z" fill="currentColor"/>
</svg>
