<svg width="32" height="32" viewBox="0 0 32 32" fill="none" xmlns="http://www.w3.org/2000/svg">
<path d="M8.9869 1H17.3732C18.2334 1 19.0583 1.3417 19.6666 1.94992L28.3072 10.5906C28.9155 11.1988 29.2572 12.0238 29.2572 12.8839V27.7568C29.2572 29.5479 27.8051 31 26.0139 31H8.9869C7.1957 31 5.74365 29.5479 5.74365 27.7568V4.24324C5.74365 2.45205 7.1957 1 8.9869 1Z" fill="white"/>
<path d="M18.7166 1.81081V8.2973C18.7166 10.0885 20.1687 11.5405 21.9599 11.5405H28.4464M8.9869 1H17.3732C18.2334 1 19.0583 1.3417 19.6666 1.94992L28.3072 10.5906C28.9155 11.1988 29.2572 12.0238 29.2572 12.8839V27.7568C29.2572 29.5479 27.8051 31 26.0139 31H8.9869C7.1957 31 5.74365 29.5479 5.74365 27.7568V4.24324C5.74365 2.45205 7.1957 1 8.9869 1Z" stroke="#E5E5E5" stroke-width="1.17188" stroke-linejoin="round"/>
<rect x="2.5" y="15.0625" width="20.625" height="11.25" rx="2.8125" fill="#FB2C36"/>
<path d="M5.8675 23.6875V18.22H8.0575C8.4975 18.22 8.8675 18.2925 9.1675 18.4375C9.4675 18.5825 9.6925 18.7875 9.8425 19.0525C9.9975 19.3125 10.075 19.6225 10.075 19.9825C10.075 20.3575 9.99 20.6775 9.82 20.9425C9.655 21.2075 9.42 21.4125 9.115 21.5575C8.815 21.6975 8.4625 21.7675 8.0575 21.7675H6.76V20.9875H7.975C8.345 20.9875 8.6175 20.8975 8.7925 20.7175C8.9725 20.5325 9.0625 20.2975 9.0625 20.0125C9.0625 19.6975 8.965 19.4625 8.77 19.3075C8.575 19.1475 8.31 19.0675 7.975 19.0675H6.7225L6.8575 18.9325V23.6875H5.8675ZM10.5773 23.6875V18.22H12.8498C13.3798 18.22 13.8298 18.335 14.1998 18.565C14.5748 18.79 14.8598 19.1075 15.0548 19.5175C15.2498 19.9275 15.3473 20.4075 15.3473 20.9575C15.3473 21.3625 15.2923 21.735 15.1823 22.075C15.0723 22.41 14.9098 22.6975 14.6948 22.9375C14.4798 23.1775 14.2173 23.3625 13.9073 23.4925C13.6023 23.6225 13.2498 23.6875 12.8498 23.6875H10.5773ZM11.5673 22.8325H12.6923C12.9323 22.8325 13.1523 22.7975 13.3523 22.7275C13.5523 22.6575 13.7248 22.5475 13.8698 22.3975C14.0148 22.2425 14.1273 22.045 14.2073 21.805C14.2873 21.565 14.3273 21.275 14.3273 20.935C14.3273 20.49 14.2573 20.1325 14.1173 19.8625C13.9823 19.5875 13.7923 19.3875 13.5473 19.2625C13.3023 19.1325 13.0173 19.0675 12.6923 19.0675H11.5673V22.8325ZM15.9023 23.6875V18.22H19.7948V19.075H16.7198L16.8923 18.9025V23.6875H15.9023ZM16.6223 21.445V20.635H19.4948V21.445H16.6223Z" fill="white"/>
</svg>
