<svg width="36" height="36" viewBox="0 0 36 36" fill="none" xmlns="http://www.w3.org/2000/svg">
<path opacity="0.25" d="M24.424 8.53473C23.8026 8.53473 23.299 9.03841 23.299 9.65973C23.299 10.281 23.8026 10.7847 24.424 10.7847H25.549L23.524 13.4847C23.2683 13.8256 23.2272 14.2817 23.4177 14.6628C23.6083 15.044 23.9978 15.2847 24.424 15.2847H27.799C28.4203 15.2847 28.924 14.781 28.924 14.1597C28.924 13.5384 28.4203 13.0347 27.799 13.0347H26.674L28.699 10.3347C28.9546 9.99383 28.9958 9.53775 28.8052 9.15661C28.6146 8.77548 28.2251 8.53473 27.799 8.53473H24.424Z" fill="#009966"/>
<path d="M24.424 16.4097H26.5166V23.1893C26.5166 23.7433 26.5166 24.2212 26.4845 24.6148C26.4504 25.0304 26.3754 25.4434 26.173 25.8411C25.8706 26.4344 25.3883 26.9167 24.7953 27.2188C24.3976 27.4215 23.9843 27.4962 23.569 27.5303C23.1754 27.5624 22.6975 27.5624 22.1435 27.5624C21.7927 27.5624 21.6174 27.5624 21.4719 27.5313C20.9301 27.4154 20.5069 26.9922 20.391 26.4504C20.3599 26.3049 20.3599 26.1296 20.3599 25.7788V23.0624C20.3599 22.2749 20.3599 21.8811 20.2066 21.5803C20.0718 21.3157 19.8566 21.1005 19.592 20.9657C19.2912 20.8124 18.8974 20.8124 18.1099 20.8124C17.3223 20.8124 16.9285 20.8124 16.6277 20.9657C16.3631 21.1005 16.148 21.3157 16.0131 21.5803C15.8599 21.8811 15.8599 22.2749 15.8599 23.0624V25.7785C15.8599 26.1295 15.8599 26.305 15.8287 26.4506C15.7127 26.9922 15.2896 27.4153 14.748 27.5313C14.6025 27.5624 14.427 27.5624 14.076 27.5624L13.695 27.5619C13.5868 27.5616 13.4819 27.5611 13.3802 27.5597C13.1786 27.5569 12.9908 27.5517 12.8175 27.5418C12.7603 27.5385 12.7046 27.5347 12.6505 27.5303C12.4373 27.5127 12.225 27.4844 12.0149 27.4339C11.8152 27.3858 11.618 27.3174 11.4244 27.2188C10.8311 26.9167 10.3488 26.4344 10.0464 25.8411C9.84402 25.4434 9.76904 25.0304 9.73498 24.6148C9.72098 24.4442 9.71301 24.2575 9.70862 24.0556C9.70285 23.7922 9.70285 23.503 9.70285 23.1893V15.4327L8.73852 16.1232C8.26639 16.461 7.60995 16.3525 7.27212 15.8804C6.9343 15.4085 7.04306 14.7521 7.51492 14.4143L16.5193 7.96804L16.5937 7.91421C16.8624 7.7203 17.1994 7.47695 17.5927 7.37698C17.9322 7.29101 18.2876 7.29101 18.6268 7.37698C18.849 7.43356 19.053 7.53573 19.2371 7.64889C19.3788 7.73595 19.5087 7.82989 19.6257 7.91421L19.7001 7.96804L22.1754 9.74014C22.2058 10.6037 22.7244 11.3408 23.4627 11.691L22.6244 12.8094C22.113 13.4911 22.0301 14.4038 22.4113 15.166C22.7925 15.9282 23.5717 16.4097 24.424 16.4097Z" fill="#009966"/>
</svg>
