<svg width="36" height="36" viewBox="0 0 36 36" fill="none" xmlns="http://www.w3.org/2000/svg">
<path opacity="0.4" d="M30 11.25C30 10.5904 29.7866 9.9816 29.4258 9.48633L25.2363 13.6758C25.7316 14.0366 26.3404 14.25 27 14.25C28.6569 14.25 30 12.9069 30 11.25ZM24 11.25C24 11.9093 24.213 12.5178 24.5735 13.0129L28.7629 8.82349C28.2678 8.46302 27.6593 8.25 27 8.25C25.3431 8.25 24 9.59315 24 11.25ZM30.9375 11.25C30.9375 13.4246 29.1746 15.1875 27 15.1875C25.9128 15.1875 24.9281 14.746 24.2161 14.0339C23.504 13.3219 23.0625 12.3372 23.0625 11.25C23.0625 9.07538 24.8254 7.3125 27 7.3125C28.0872 7.3125 29.0719 7.75403 29.7839 8.46606C30.496 9.1781 30.9375 10.1628 30.9375 11.25Z" fill="#E17100"/>
<path fill-rule="evenodd" clip-rule="evenodd" d="M6.75 11.25C6.75 9.07526 8.51276 7.3125 10.6875 7.3125H20.5312C21.5143 7.3125 22.3292 8.03293 22.4764 8.97473C22.1317 9.65863 21.9375 10.4318 21.9375 11.25C21.9375 12.648 22.5066 13.9153 23.4207 14.8293C24.3347 15.7434 25.602 16.3125 27 16.3125V25.3125C27 26.5551 25.9926 27.5625 24.75 27.5625H11.25C8.76462 27.5625 6.75 25.5479 6.75 23.0625V11.25ZM10.6875 12.9375H20.25V9.5625H10.6875C9.75558 9.5625 9 10.3181 9 11.25C9 12.1819 9.75558 12.9375 10.6875 12.9375ZM22.2188 20.25C22.2188 21.0267 21.5892 21.6562 20.8125 21.6562C20.0358 21.6562 19.4062 21.0267 19.4062 20.25C19.4062 19.4733 20.0358 18.8438 20.8125 18.8438C21.5892 18.8438 22.2188 19.4733 22.2188 20.25Z" fill="#E17100"/>
</svg>
