<svg width="36" height="36" viewBox="0 0 36 36" fill="none" xmlns="http://www.w3.org/2000/svg">
<path opacity="0.25" fill-rule="evenodd" clip-rule="evenodd" d="M25.1605 18.2812C24.8844 18.2812 24.6605 18.5051 24.6605 18.7812H26.6605C26.6605 18.5051 26.4367 18.2812 26.1605 18.2812H25.1605ZM27.6605 18.7812C27.6605 17.9528 26.989 17.2812 26.1605 17.2812H25.1605C24.3321 17.2812 23.6605 17.9528 23.6605 18.7812H22.6605C21.8321 18.7812 21.1605 19.4528 21.1605 20.2812V25.2812C21.1605 26.1096 21.8321 26.7812 22.6605 26.7812C22.6605 27.0574 22.8844 27.2812 23.1605 27.2812C23.4367 27.2812 23.6605 27.0574 23.6605 26.7812H27.6605C27.6605 27.0574 27.8844 27.2812 28.1605 27.2812C28.4367 27.2812 28.6605 27.0574 28.6605 26.7812C29.4889 26.7812 30.1605 26.1096 30.1605 25.2812V20.2812C30.1605 19.4528 29.4889 18.7812 28.6605 18.7812H27.6605ZM24.1605 20.7812C24.4367 20.7812 24.6605 21.0051 24.6605 21.2812V24.2812C24.6605 24.5574 24.4367 24.7812 24.1605 24.7812C23.8844 24.7812 23.6605 24.5574 23.6605 24.2812V21.2812C23.6605 21.0051 23.8844 20.7812 24.1605 20.7812ZM27.1605 20.7812C27.4367 20.7812 27.6605 21.0051 27.6605 21.2812V24.2812C27.6605 24.5574 27.4367 24.7812 27.1605 24.7812C26.8844 24.7812 26.6605 24.5574 26.6605 24.2812V21.2812C26.6605 21.0051 26.8844 20.7812 27.1605 20.7812Z" fill="#0084D1"/>
<path fill-rule="evenodd" clip-rule="evenodd" d="M7.19299 10.4062C7.19299 8.54242 8.70416 7.03125 10.568 7.03125H24.068C25.9318 7.03125 27.443 8.54242 27.443 10.4062V16.8327C27.2359 16.6956 27.0055 16.5907 26.7588 16.5254C26.5679 16.4745 26.3674 16.4474 26.1603 16.4474H25.1606C24.3069 16.4474 23.5615 16.9069 23.1556 17.5916C23.2001 17.4545 23.2242 17.3081 23.2242 17.1562C23.2242 16.3795 22.5947 15.75 21.818 15.75C21.0413 15.75 20.4117 16.3795 20.4117 17.1562C20.4117 17.7242 20.7485 18.2134 21.233 18.4353C20.6815 18.8622 20.3266 19.5307 20.3266 20.2816V25.2815C20.3266 26.1324 20.7836 26.8745 21.4642 27.2812H10.568C8.70416 27.2812 7.19299 25.7701 7.19299 23.9062V10.4062ZM9.44299 10.4062C9.44299 9.78497 9.94672 9.28125 10.568 9.28125H24.068C24.6893 9.28125 25.193 9.78497 25.193 10.4062V11.5312H9.44299V10.4062ZM14.2242 17.1562C14.2242 17.933 13.5947 18.5625 12.818 18.5625C12.0413 18.5625 11.4117 17.933 11.4117 17.1562C11.4117 16.3795 12.0413 15.75 12.818 15.75C13.5947 15.75 14.2242 16.3795 14.2242 17.1562ZM14.2242 21.6562C14.2242 22.433 13.5947 23.0625 12.818 23.0625C12.0413 23.0625 11.4117 22.433 11.4117 21.6562C11.4117 20.8795 12.0413 20.25 12.818 20.25C13.5947 20.25 14.2242 20.8795 14.2242 21.6562ZM17.318 18.5625C18.0947 18.5625 18.7242 17.933 18.7242 17.1562C18.7242 16.3795 18.0947 15.75 17.318 15.75C16.5413 15.75 15.9117 16.3795 15.9117 17.1562C15.9117 17.933 16.5413 18.5625 17.318 18.5625ZM18.7242 21.6562C18.7242 22.433 18.0947 23.0625 17.318 23.0625C16.5413 23.0625 15.9117 22.433 15.9117 21.6562C15.9117 20.8795 16.5413 20.25 17.318 20.25C18.0947 20.25 18.7242 20.8795 18.7242 21.6562Z" fill="#0084D1"/>
</svg>
