<svg width="12" height="12" viewBox="0 0 12 12" fill="none" xmlns="http://www.w3.org/2000/svg">
<path d="M6 0C4.4087 -2.08674e-07 2.88258 0.632141 1.75736 1.75736C0.632142 2.88258 3.28813e-07 4.4087 0 6C-3.28813e-07 7.5913 0.63214 9.11742 1.75736 10.2426C2.88258 11.3679 4.4087 12 6 12L6 0Z" fill="currentColor"/>
<path d="M7.09762 11.5164C7.13809 11.7193 7.00647 11.9178 6.80149 11.9456C6.5373 11.9815 6.26962 12 6 12L6 11.25C6.22014 11.25 6.43891 11.2363 6.65506 11.2092C6.86018 11.1835 7.05718 11.3137 7.09762 11.5164ZM6.80107 0.0536177C7.00631 0.0812399 7.1381 0.2799 7.09764 0.482998C7.0572 0.686027 6.85991 0.816449 6.6545 0.790731C6.43853 0.763693 6.21995 0.75 6 0.75L6 0C6.26943 6.745e-08 6.537 0.0180774 6.80107 0.0536177ZM10.9894 2.66689C10.9893 2.66696 10.9892 2.66702 10.9891 2.66708L10.7808 2.80595C10.5512 2.95902 10.2428 2.89539 10.0681 2.68175C9.95658 2.54526 9.83771 2.41388 9.71192 2.28809C9.58612 2.1623 9.45474 2.04342 9.31825 1.93186C9.10461 1.75722 9.04099 1.44878 9.19405 1.21919L9.33293 1.01087C9.33298 1.01078 9.33304 1.01071 9.33311 1.01064C9.33362 1.01013 9.33442 1.01005 9.33501 1.01045C9.57766 1.17263 9.80885 1.35392 10.0273 1.55176L10.2422 1.75781C10.5219 2.03757 10.7729 2.34084 10.9896 2.66499C10.9899 2.66559 10.9899 2.66638 10.9894 2.66689ZM10.6772 9.12465C10.85 9.23967 10.8976 9.4739 10.7714 9.63873C10.6095 9.85024 10.4326 10.0517 10.2422 10.2422C10.0519 10.4325 9.85047 10.6092 9.63909 10.7709C9.47449 10.8968 9.24064 10.8496 9.12549 10.6773C9.01034 10.5049 9.05763 10.2729 9.22117 10.1456C9.39267 10.0121 9.55656 9.86727 9.71192 9.71192C9.86739 9.55644 10.0123 9.39242 10.1459 9.22078C10.2731 9.05736 10.5048 9.00991 10.6772 9.12465ZM12 6C12 6.28518 11.9797 6.56826 11.9398 6.84732C11.9142 7.02649 11.7411 7.14198 11.5635 7.10742C11.3347 7.06156 11.1881 6.83912 11.215 6.60735C11.2382 6.40674 11.25 6.20396 11.25 6C11.25 5.78005 11.2363 5.56147 11.2093 5.3455C11.1836 5.14009 11.314 4.94281 11.517 4.90236C11.7201 4.8619 11.9188 4.99369 11.9464 5.19893C11.9819 5.463 12 5.73057 12 6Z" fill="currentColor"/>
</svg>
