<svg width="36" height="36" viewBox="0 0 36 36" fill="none" xmlns="http://www.w3.org/2000/svg">
<rect width="36" height="36" rx="8" fill="#FEF3C6"/>
<path opacity="0.4" d="M28.6667 12C28.6667 11.4137 28.477 10.8725 28.1562 10.4323L24.4323 14.1562C24.8725 14.477 25.4137 14.6667 26 14.6667C27.4728 14.6667 28.6667 13.4728 28.6667 12ZM23.3333 12C23.3333 12.586 23.5227 13.1269 23.8431 13.5671L27.5671 9.8431C27.1269 9.52268 26.586 9.33333 26 9.33333C24.5272 9.33333 23.3333 10.5272 23.3333 12ZM29.5 12C29.5 13.933 27.933 15.5 26 15.5C25.0336 15.5 24.1583 15.1075 23.5254 14.4746C22.8925 13.8417 22.5 12.9664 22.5 12C22.5 10.067 24.067 8.5 26 8.5C26.9664 8.5 27.8417 8.89247 28.4746 9.52539C29.1075 10.1583 29.5 11.0336 29.5 12Z" fill="#E17100"/>
<g filter="url(#filter0_i_71_1108)">
<path fill-rule="evenodd" clip-rule="evenodd" d="M8 12C8 10.0669 9.56689 8.5 11.5 8.5H20.25C21.1238 8.5 21.8481 9.14038 21.979 9.97754C21.6726 10.5854 21.5 11.2727 21.5 12C21.5 13.2427 22.0059 14.3691 22.8184 15.1816C23.6309 15.9941 24.7573 16.5 26 16.5V24.5C26 25.6045 25.1045 26.5 24 26.5H12C9.79077 26.5 8 24.7092 8 22.5V12ZM11.5 13.5H20V10.5H11.5C10.6716 10.5 10 11.1716 10 12C10 12.8284 10.6716 13.5 11.5 13.5ZM21.75 20C21.75 20.6904 21.1904 21.25 20.5 21.25C19.8096 21.25 19.25 20.6904 19.25 20C19.25 19.3096 19.8096 18.75 20.5 18.75C21.1904 18.75 21.75 19.3096 21.75 20Z" fill="#E17100"/>
</g>
<defs>
<filter id="filter0_i_71_1108" x="8" y="8.5" width="18" height="19" filterUnits="userSpaceOnUse" color-interpolation-filters="sRGB">
<feFlood flood-opacity="0" result="BackgroundImageFix"/>
<feBlend mode="normal" in="SourceGraphic" in2="BackgroundImageFix" result="shape"/>
<feColorMatrix in="SourceAlpha" type="matrix" values="0 0 0 0 0 0 0 0 0 0 0 0 0 0 0 0 0 0 127 0" result="hardAlpha"/>
<feOffset dy="1"/>
<feGaussianBlur stdDeviation="0.5"/>
<feComposite in2="hardAlpha" operator="arithmetic" k2="-1" k3="1"/>
<feColorMatrix type="matrix" values="0 0 0 0 0.109804 0 0 0 0 0.109804 0 0 0 0 0.109804 0 0 0 0.08 0"/>
<feBlend mode="normal" in2="shape" result="effect1_innerShadow_71_1108"/>
</filter>
</defs>
</svg>
