<svg width="36" height="36" viewBox="0 0 36 36" fill="none" xmlns="http://www.w3.org/2000/svg">
<rect width="36" height="36" rx="6" fill="#D0FAE5"/>
<path opacity="0.25" d="M23.7102 9.58643C23.1579 9.58643 22.7102 10.0341 22.7102 10.5864C22.7102 11.1387 23.1579 11.5864 23.7102 11.5864H24.7102L22.9102 13.9864C22.6829 14.2894 22.6464 14.6949 22.8158 15.0336C22.9852 15.3724 23.3314 15.5864 23.7102 15.5864H26.7102C27.2625 15.5864 27.7102 15.1387 27.7102 14.5864C27.7102 14.0341 27.2625 13.5864 26.7102 13.5864H25.7102L27.5102 11.1864C27.7375 10.8834 27.774 10.478 27.6046 10.1392C27.4352 9.80043 27.089 9.58643 26.7102 9.58643H23.7102Z" fill="#009966"/>
<path d="M23.7103 16.5864H25.5704V22.6127C25.5704 23.1052 25.5704 23.53 25.5418 23.8798C25.5115 24.2492 25.4449 24.6164 25.2649 24.9699C24.9961 25.4973 24.5674 25.926 24.0403 26.1945C23.6868 26.3747 23.3194 26.4411 22.9502 26.4714C22.6004 26.4999 22.1756 26.4999 21.6832 26.4999C21.3714 26.4999 21.2155 26.4999 21.0862 26.4723C20.6046 26.3692 20.2284 25.993 20.1254 25.5115C20.0977 25.3822 20.0977 25.2263 20.0977 24.9145V22.4999C20.0977 21.7999 20.0977 21.4498 19.9615 21.1825C19.8416 20.9472 19.6504 20.756 19.4152 20.6362C19.1478 20.4999 18.7978 20.4999 18.0977 20.4999C17.3976 20.4999 17.0476 20.4999 16.7802 20.6362C16.545 20.756 16.3538 20.9472 16.234 21.1825C16.0977 21.4498 16.0977 21.7999 16.0977 22.4999V24.9142C16.0977 25.2263 16.0977 25.3823 16.07 25.5116C15.9669 25.9931 15.5908 26.3692 15.1094 26.4722C14.98 26.4999 14.824 26.4999 14.512 26.4999L14.1734 26.4995C14.0772 26.4992 13.9839 26.4987 13.8936 26.4975C13.7144 26.4951 13.5474 26.4904 13.3934 26.4816C13.3426 26.4787 13.293 26.4753 13.2449 26.4714C13.0555 26.4557 12.8668 26.4306 12.68 26.3857C12.5025 26.343 12.3272 26.2822 12.1551 26.1945C11.6277 25.926 11.199 25.4973 10.9302 24.9699C10.7503 24.6164 10.6836 24.2492 10.6534 23.8798C10.6409 23.7282 10.6338 23.5622 10.6299 23.3828C10.6248 23.1486 10.6248 22.8915 10.6248 22.6127V15.718L9.76763 16.3317C9.34795 16.632 8.76446 16.5356 8.46417 16.1159C8.16387 15.6965 8.26055 15.113 8.67999 14.8127L16.6839 9.0827L16.7501 9.03485C16.9888 8.86249 17.2884 8.64618 17.638 8.55731C17.9398 8.4809 18.2557 8.4809 18.5572 8.55731C18.7547 8.6076 18.9361 8.69843 19.0997 8.79901C19.2256 8.8764 19.3411 8.9599 19.4451 9.03485L19.5113 9.0827L21.7115 10.6579C21.7386 11.4255 22.1995 12.0807 22.8558 12.392L22.1106 13.3862C21.6561 13.9921 21.5823 14.8034 21.9212 15.4809C22.2601 16.1584 22.9527 16.5864 23.7103 16.5864Z" fill="#009966"/>
</svg>
