<svg width="36" height="36" viewBox="0 0 36 36" fill="none" xmlns="http://www.w3.org/2000/svg">
<rect width="36" height="36" rx="8" fill="#DFF2FE"/>
<path opacity="0.25" fill-rule="evenodd" clip-rule="evenodd" d="M24.3649 18.25C24.1194 18.25 23.9204 18.449 23.9204 18.6944H25.6982C25.6982 18.449 25.4992 18.25 25.2538 18.25H24.3649ZM26.5871 18.6944C26.5871 17.958 25.9902 17.3611 25.2538 17.3611H24.3649C23.6285 17.3611 23.0315 17.958 23.0315 18.6944H22.1427C21.4063 18.6944 20.8093 19.2914 20.8093 20.0278V24.4722C20.8093 25.2086 21.4063 25.8055 22.1427 25.8055C22.1427 26.051 22.3416 26.25 22.5871 26.25C22.8326 26.25 23.0315 26.051 23.0315 25.8055H26.5871C26.5871 26.051 26.7861 26.25 27.0315 26.25C27.277 26.25 27.476 26.051 27.476 25.8055C28.2124 25.8055 28.8093 25.2086 28.8093 24.4722V20.0278C28.8093 19.2914 28.2124 18.6944 27.476 18.6944H26.5871ZM23.476 20.4722C23.7215 20.4722 23.9204 20.6712 23.9204 20.9166V23.5833C23.9204 23.8288 23.7215 24.0278 23.476 24.0278C23.2305 24.0278 23.0315 23.8288 23.0315 23.5833V20.9166C23.0315 20.6712 23.2305 20.4722 23.476 20.4722ZM26.1427 20.4722C26.3881 20.4722 26.5871 20.6712 26.5871 20.9166V23.5833C26.5871 23.8288 26.3881 24.0278 26.1427 24.0278C25.8972 24.0278 25.6982 23.8288 25.6982 23.5833V20.9166C25.6982 20.6712 25.8972 20.4722 26.1427 20.4722Z" fill="#0084D1"/>
<g filter="url(#filter0_i_71_1109)">
<path fill-rule="evenodd" clip-rule="evenodd" d="M8.3938 11.25C8.3938 9.59326 9.73706 8.25 11.3938 8.25H23.3938C25.0505 8.25 26.3938 9.59326 26.3938 11.25V16.9624C26.2097 16.8406 26.0049 16.7473 25.7856 16.6892C25.616 16.644 25.4377 16.6199 25.2537 16.6199H24.365C23.6062 16.6199 22.9436 17.0283 22.5828 17.637C22.6223 17.5151 22.6438 17.385 22.6438 17.25C22.6438 16.5596 22.0842 16 21.3938 16C20.7034 16 20.1438 16.5596 20.1438 17.25C20.1438 17.7549 20.4431 18.1897 20.8738 18.387C20.3835 18.7664 20.0681 19.3606 20.0681 20.0281V24.4724C20.0681 25.2288 20.4744 25.8884 21.0793 26.25H11.3938C9.73706 26.25 8.3938 24.9067 8.3938 23.25V11.25ZM10.3938 11.25C10.3938 10.6978 10.8416 10.25 11.3938 10.25H23.3938C23.946 10.25 24.3938 10.6978 24.3938 11.25V12.25H10.3938V11.25ZM14.6438 17.25C14.6438 17.9404 14.0842 18.5 13.3938 18.5C12.7034 18.5 12.1438 17.9404 12.1438 17.25C12.1438 16.5596 12.7034 16 13.3938 16C14.0842 16 14.6438 16.5596 14.6438 17.25ZM14.6438 21.25C14.6438 21.9404 14.0842 22.5 13.3938 22.5C12.7034 22.5 12.1438 21.9404 12.1438 21.25C12.1438 20.5596 12.7034 20 13.3938 20C14.0842 20 14.6438 20.5596 14.6438 21.25ZM17.3938 18.5C18.0842 18.5 18.6438 17.9404 18.6438 17.25C18.6438 16.5596 18.0842 16 17.3938 16C16.7034 16 16.1438 16.5596 16.1438 17.25C16.1438 17.9404 16.7034 18.5 17.3938 18.5ZM18.6438 21.25C18.6438 21.9404 18.0842 22.5 17.3938 22.5C16.7034 22.5 16.1438 21.9404 16.1438 21.25C16.1438 20.5596 16.7034 20 17.3938 20C18.0842 20 18.6438 20.5596 18.6438 21.25Z" fill="#0084D1"/>
</g>
<defs>
<filter id="filter0_i_71_1109" x="8.3938" y="8.25" width="18" height="19" filterUnits="userSpaceOnUse" color-interpolation-filters="sRGB">
<feFlood flood-opacity="0" result="BackgroundImageFix"/>
<feBlend mode="normal" in="SourceGraphic" in2="BackgroundImageFix" result="shape"/>
<feColorMatrix in="SourceAlpha" type="matrix" values="0 0 0 0 0 0 0 0 0 0 0 0 0 0 0 0 0 0 127 0" result="hardAlpha"/>
<feOffset dy="1"/>
<feGaussianBlur stdDeviation="0.5"/>
<feComposite in2="hardAlpha" operator="arithmetic" k2="-1" k3="1"/>
<feColorMatrix type="matrix" values="0 0 0 0 0.109804 0 0 0 0 0.109804 0 0 0 0 0.109804 0 0 0 0.08 0"/>
<feBlend mode="normal" in2="shape" result="effect1_innerShadow_71_1109"/>
</filter>
</defs>
</svg>
