<svg width="16" height="16" viewBox="0 0 16 16" fill="none" xmlns="http://www.w3.org/2000/svg">
<path fill-rule="evenodd" clip-rule="evenodd" d="M7.99984 1.33333C6.15889 1.33333 4.6665 2.82571 4.6665 4.66666V6C3.56193 6 2.6665 6.89543 2.6665 8V12.6667C2.6665 13.7712 3.56193 14.6667 4.6665 14.6667H11.3332C12.4377 14.6667 13.3332 13.7712 13.3332 12.6667V8C13.3332 6.89543 12.4377 6 11.3332 6V4.66666C11.3332 2.82571 9.84079 1.33333 7.99984 1.33333ZM9.99984 6V4.66666C9.99984 3.56209 9.10441 2.66666 7.99984 2.66666C6.89527 2.66666 5.99984 3.56209 5.99984 4.66666V6H9.99984ZM7.99984 8.66666C8.36803 8.66666 8.6665 8.96514 8.6665 9.33333V11.3333C8.6665 11.7015 8.36803 12 7.99984 12C7.63165 12 7.33317 11.7015 7.33317 11.3333V9.33333C7.33317 8.96514 7.63165 8.66666 7.99984 8.66666Z" fill="currentColor"/>
</svg>
