<svg xmlns="http://www.w3.org/2000/svg" width="48" height="48" viewBox="0 0 48 48" fill="none">
  <mask id="mask0_470_1102" style="mask-type:luminance" maskUnits="userSpaceOnUse" x="0" y="0" width="48" height="48">
    <path d="M48 0H0V48H48V0Z" fill="white"/>
  </mask>
  <g mask="url(#mask0_470_1102)">
    <path d="M48 0H0V48H48V0Z" fill="#161616"/>
    <path fill-rule="evenodd" clip-rule="evenodd" d="M3.39628 36.9924C2.26156 38.8845 1.50668 40.2609 1.03303 41.3186C0.783538 41.8757 0.179935 42.2077 -0.409406 42.0591L-4.86548 40.9339C-4.26313 39.1416 -2.9356 36.657 -1.39456 34.0873C0.184842 31.4537 2.11503 28.5247 4.05755 25.7754C5.9967 23.0308 7.97906 20.4212 9.66673 18.4386C10.506 17.4527 11.3121 16.5747 12.0305 15.9024C12.3881 15.5677 12.7672 15.243 13.1512 14.9732C13.4817 14.741 14.0495 14.379 14.7577 14.2223C15.6806 14.0183 16.6261 14.1698 17.4408 14.6612C18.1843 15.1097 18.6625 15.7438 18.9675 16.2809C19.56 17.3236 19.8589 18.6396 20.0218 19.9333C20.1304 20.7943 20.1922 21.7671 20.2065 22.8403C22.0329 21.2077 23.9981 19.6277 25.8249 18.2405C27.9277 16.6437 29.9499 15.2265 31.5516 14.1796C32.3499 13.6577 33.0649 13.2141 33.6456 12.8818C33.9341 12.7168 34.2148 12.5647 34.4709 12.4405C34.6629 12.3473 35.0537 12.1623 35.4877 12.0663C36.2799 11.8911 37.1062 12.0671 37.7589 12.5468C38.304 12.9475 38.5614 13.4353 38.6683 13.6706C38.8772 14.1305 38.9169 14.5456 38.9282 14.6636V14.6649C38.9595 14.9926 38.9424 15.3123 38.928 15.5132C38.8952 15.9718 38.8166 16.5535 38.7131 17.1814C38.502 18.4608 38.1461 20.1763 37.6759 22.002C37.5542 22.4747 37.4239 22.9584 37.2851 23.4472C39.5692 22.1537 42.1513 20.8007 44.9186 19.5182C48.4327 17.8897 52.311 16.3438 56.3042 15.1851C57.5344 14.8282 58.8472 14.9394 60.0244 15.4459L67.863 18.819C61.1985 19.0944 53.7982 21.5974 47.2603 24.6272C42.9975 26.6029 39.2061 28.7527 36.3667 30.5276C36.1747 30.6476 35.9417 30.6825 35.7232 30.6231L29.1964 28.8448C29.8477 27.7423 30.2366 26.7437 30.6236 25.7499C30.648 25.6871 30.6724 25.6245 30.6967 25.5619C31.2937 24.0324 31.8264 22.275 32.2601 20.5916C32.2708 20.5496 32.2817 20.5076 32.2922 20.4658C31.3213 21.1487 30.2719 21.9131 29.1964 22.7297C26.6143 24.6904 24.0364 26.8378 22.032 28.8146C20.2217 30.5998 17.5075 31.4355 15.1356 30.5203L14.1044 30.1224C14.6059 26.3385 14.7043 23.3854 14.5458 21.3737C14.3465 21.5974 14.1367 21.8385 13.9169 22.0967C12.375 23.9081 10.4988 26.3719 8.61828 29.0334C6.74116 31.6903 4.89067 34.5006 3.39628 36.9924Z" fill="url(#paint0_linear_470_1102)"/>
    <mask id="mask1_470_1102" style="mask-type:alpha" maskUnits="userSpaceOnUse" x="-5" y="12" width="73" height="31">
      <path fill-rule="evenodd" clip-rule="evenodd" d="M3.39628 36.9924C2.26156 38.8845 1.50668 40.2609 1.03303 41.3186C0.783538 41.8757 0.179935 42.2077 -0.409406 42.0591L-4.86548 40.9339C-4.26313 39.1416 -2.9356 36.657 -1.39456 34.0873C0.184842 31.4537 2.11503 28.5247 4.05755 25.7754C5.9967 23.0308 7.97906 20.4212 9.66673 18.4386C10.506 17.4527 11.3121 16.5747 12.0305 15.9024C12.3881 15.5677 12.7672 15.243 13.1512 14.9732C13.4817 14.741 14.0495 14.379 14.7577 14.2223C15.6806 14.0183 16.6261 14.1698 17.4408 14.6612C18.1843 15.1097 18.6625 15.7438 18.9675 16.2809C19.56 17.3236 19.8589 18.6396 20.0218 19.9333C20.1304 20.7943 20.1922 21.7671 20.2065 22.8403C22.0329 21.2077 23.9981 19.6277 25.8249 18.2405C27.9277 16.6437 29.9499 15.2265 31.5516 14.1796C32.3499 13.6577 33.0649 13.2141 33.6456 12.8818C33.9341 12.7168 34.2148 12.5647 34.4709 12.4405C34.6629 12.3473 35.0537 12.1623 35.4877 12.0663C36.2799 11.8911 37.1062 12.0671 37.7589 12.5468C38.304 12.9475 38.5614 13.4353 38.6683 13.6706C38.8772 14.1305 38.9169 14.5456 38.9282 14.6636V14.6649C38.9595 14.9926 38.9424 15.3123 38.928 15.5132C38.8952 15.9718 38.8166 16.5535 38.7131 17.1814C38.502 18.4608 38.1461 20.1763 37.6759 22.002C37.5542 22.4747 37.4239 22.9584 37.2851 23.4472C39.5692 22.1537 42.1513 20.8007 44.9186 19.5182C48.4327 17.8897 52.311 16.3438 56.3042 15.1851C57.5344 14.8282 58.8472 14.9394 60.0244 15.4459L67.863 18.819C61.1985 19.0944 53.7982 21.5974 47.2603 24.6272C42.8452 26.6734 38.9357 28.9067 36.066 30.7164L29.1964 28.8448C29.8477 27.7423 30.2366 26.7437 30.6236 25.7499C30.648 25.6871 30.6724 25.6245 30.6967 25.5619C31.2937 24.0324 31.8264 22.275 32.2601 20.5916C32.2708 20.5496 32.2817 20.5076 32.2922 20.4658C31.3213 21.1487 30.2719 21.9131 29.1964 22.7297C25.0796 25.8557 20.9736 29.4564 19.1854 32.0829L14.1044 30.1224C14.6059 26.3385 14.7043 23.3854 14.5458 21.3737C14.3465 21.5974 14.1367 21.8385 13.9169 22.0967C12.375 23.9081 10.4988 26.3719 8.61828 29.0334C6.74116 31.6903 4.89067 34.5006 3.39628 36.9924Z" fill="url(#paint1_linear_470_1102)"/>
    </mask>
    <g mask="url(#mask1_470_1102)">
      <path d="M22.2653 21.0056C17.979 24.6534 14.8556 28.9091 13.8296 30.581L18.9594 32.975C27.2809 22.9434 35.2986 18.2317 41.0743 15.0778L36.1725 9.03613L22.2653 21.0056Z" fill="url(#paint2_linear_470_1102)"/>
    </g>
  </g>
  <defs>
    <linearGradient id="paint0_linear_470_1102" x1="49.89" y1="14.7865" x2="-8.48798" y2="42.0945" gradientUnits="userSpaceOnUse">
      <stop stop-color="#7ABCE0"/>
      <stop offset="0.338542" stop-color="white"/>
      <stop offset="0.614583" stop-color="#CCEDFF"/>
      <stop offset="1" stop-color="#7ABCE0"/>
    </linearGradient>
    <linearGradient id="paint1_linear_470_1102" x1="44.8894" y1="15.4049" x2="-8.48798" y2="42.0945" gradientUnits="userSpaceOnUse">
      <stop stop-color="#161618"/>
      <stop offset="0.338542" stop-color="white"/>
      <stop offset="0.614583" stop-color="#CCEDFF"/>
      <stop offset="1" stop-color="#161618"/>
    </linearGradient>
    <linearGradient id="paint2_linear_470_1102" x1="41.1883" y1="9.03613" x2="2.56963" y2="26.6737" gradientUnits="userSpaceOnUse">
      <stop offset="0.338542" stop-color="white"/>
      <stop offset="1" stop-color="#68CAFF"/>
    </linearGradient>
  </defs>
</svg>

