<svg width="131" height="32" viewBox="0 0 131 32" fill="none" xmlns="http://www.w3.org/2000/svg">
<g filter="url(#filter0_i_585_27075)">
<path fill-rule="evenodd" clip-rule="evenodd" d="M16 32C24.8366 32 32 24.8365 32 16C32 7.16344 24.8366 0 16 0C7.16343 0 0 7.16344 0 16C0 24.8365 7.16343 32 16 32Z" fill="url(#paint0_linear_585_27075)"/>
<path fill-rule="evenodd" clip-rule="evenodd" d="M16 32C24.8366 32 32 24.8365 32 16C32 7.16344 24.8366 0 16 0C7.16343 0 0 7.16344 0 16C0 24.8365 7.16343 32 16 32Z" fill="url(#paint1_radial_585_27075)" fill-opacity="0.1"/>
<path d="M20.9913 7.45338C21.2343 6.59034 20.3968 6.08001 19.6319 6.62494L8.95439 14.2316C8.12487 14.8225 8.25535 15.9999 9.15039 15.9999H11.9621V15.9781H17.4419L12.9769 17.5536L11.0085 24.5464C10.7655 25.4095 11.6029 25.9198 12.3679 25.3748L23.0454 17.7683C23.8749 17.1773 23.7444 15.9999 22.8494 15.9999H18.5856L20.9913 7.45338Z" fill="white"/>
</g>
<path d="M41.48 24V9.42H45.66L48.04 16.64L49.02 20.36H49.16L50.14 16.64L52.5 9.42H56.68V24H54.12V16.94L54.2 11.88H54.04L52.62 16.58L50.22 24H47.96L45.58 16.58L44.14 11.88H43.98L44.06 16.94V24H41.48ZM63.9841 24.18C63.1841 24.18 62.4641 24.06 61.8241 23.82C61.1841 23.5667 60.6241 23.2 60.1441 22.72C59.6774 22.24 59.3174 21.66 59.0641 20.98C58.8241 20.3 58.7041 19.5333 58.7041 18.68C58.7041 17.5867 58.9107 16.6267 59.3241 15.8C59.7507 14.9733 60.3574 14.3267 61.1441 13.86C61.9307 13.3933 62.8774 13.16 63.9841 13.16C64.7707 13.16 65.4841 13.2867 66.1241 13.54C66.7641 13.7933 67.3107 14.16 67.7641 14.64C68.2307 15.12 68.5907 15.7 68.8441 16.38C69.0974 17.0467 69.2241 17.8133 69.2241 18.68C69.2241 19.76 69.0107 20.7133 68.5841 21.54C68.1707 22.3667 67.5707 23.0133 66.7841 23.48C66.0107 23.9467 65.0774 24.18 63.9841 24.18ZM63.9641 22.12C64.5107 22.12 64.9907 21.9933 65.4041 21.74C65.8174 21.4733 66.1374 21.0867 66.3641 20.58C66.5907 20.06 66.7041 19.4267 66.7041 18.68C66.7041 18.12 66.6374 17.6267 66.5041 17.2C66.3841 16.76 66.2041 16.3933 65.9641 16.1C65.7241 15.8067 65.4374 15.5867 65.1041 15.44C64.7707 15.2933 64.3974 15.22 63.9841 15.22C63.4374 15.22 62.9507 15.3533 62.5241 15.62C62.1107 15.8733 61.7907 16.26 61.5641 16.78C61.3374 17.2867 61.2241 17.92 61.2241 18.68C61.2241 19.24 61.2841 19.74 61.4041 20.18C61.5374 20.6067 61.7241 20.9667 61.9641 21.26C62.2041 21.54 62.4907 21.7533 62.8241 21.9C63.1707 22.0467 63.5507 22.12 63.9641 22.12ZM71.0963 24V13.36H73.3563L73.4763 15.14H73.5563C73.7963 14.46 74.1829 13.9733 74.7163 13.68C75.2629 13.3733 75.8829 13.22 76.5763 13.22C76.6963 13.22 76.8029 13.22 76.8963 13.22C77.0029 13.22 77.1029 13.22 77.1963 13.22V15.58C77.1163 15.58 77.0163 15.58 76.8963 15.58C76.7896 15.5667 76.6696 15.56 76.5363 15.56C75.8963 15.56 75.3629 15.6667 74.9363 15.88C74.5096 16.08 74.1829 16.3733 73.9563 16.76C73.7429 17.1467 73.6229 17.62 73.5963 18.18V24H71.0963ZM81.6036 24L77.9036 13.36H80.5836L82.3636 19.5L83.1036 22.08H83.2036L83.9436 19.5L85.7236 13.36H88.4236L84.7236 24H81.6036ZM93.5202 24.18C92.8668 24.18 92.2735 24.06 91.7402 23.82C91.2068 23.5667 90.7468 23.2067 90.3602 22.74C89.9735 22.26 89.6735 21.68 89.4602 21C89.2602 20.3067 89.1602 19.5333 89.1602 18.68C89.1602 17.52 89.3402 16.5267 89.7002 15.7C90.0735 14.8733 90.5868 14.2467 91.2402 13.82C91.8935 13.38 92.6535 13.16 93.5202 13.16C94.0802 13.16 94.5868 13.2467 95.0402 13.42C95.5068 13.5933 95.9002 13.84 96.2202 14.16C96.5535 14.48 96.8002 14.8533 96.9602 15.28H97.1002L97.2002 13.36H99.5602V24H97.2002L97.1002 22.06H96.9602C96.7335 22.7 96.3135 23.2133 95.7002 23.6C95.0868 23.9867 94.3602 24.18 93.5202 24.18ZM94.4002 22.14C94.9868 22.14 95.4735 22.0133 95.8602 21.76C96.2602 21.4933 96.5602 21.14 96.7602 20.7C96.9602 20.26 97.0602 19.7733 97.0602 19.24V18.1C97.0602 17.5533 96.9535 17.06 96.7402 16.62C96.5402 16.18 96.2402 15.8333 95.8402 15.58C95.4535 15.3267 94.9935 15.2 94.4602 15.2C93.8602 15.2 93.3535 15.34 92.9402 15.62C92.5402 15.8867 92.2335 16.28 92.0202 16.8C91.8068 17.32 91.7002 17.9467 91.7002 18.68C91.7002 19.3867 91.8002 20 92.0002 20.52C92.2135 21.04 92.5202 21.44 92.9202 21.72C93.3202 22 93.8135 22.14 94.4002 22.14ZM102.179 24V9.42H104.819V24H102.179ZM112.339 24V9.42H114.979V24H112.339ZM104.219 17.66V15.38H112.939V17.66H104.219ZM117.741 24V9.42H124.921C125.508 9.42 126.041 9.47333 126.521 9.58C127.014 9.68667 127.454 9.84667 127.841 10.06C128.228 10.2733 128.554 10.54 128.821 10.86C129.088 11.18 129.294 11.5533 129.441 11.98C129.588 12.3933 129.661 12.86 129.661 13.38C129.661 14.2867 129.421 15.0533 128.941 15.68C128.474 16.2933 127.821 16.7133 126.981 16.94V17.06C127.554 17.1533 128.014 17.3267 128.361 17.58C128.708 17.82 128.961 18.1333 129.121 18.52C129.281 18.9067 129.361 19.3733 129.361 19.92V22.38C129.361 22.6333 129.368 22.9 129.381 23.18C129.408 23.4467 129.481 23.72 129.601 24H126.921C126.841 23.8133 126.781 23.58 126.741 23.3C126.714 23.02 126.701 22.7067 126.701 22.36V20.38C126.701 19.9267 126.634 19.5533 126.501 19.26C126.368 18.9533 126.128 18.72 125.781 18.56C125.434 18.3867 124.934 18.3 124.281 18.3H120.121V16.2H124.321C125.268 16.2 125.941 15.98 126.341 15.54C126.741 15.0867 126.941 14.5267 126.941 13.86C126.941 13.4467 126.874 13.1067 126.741 12.84C126.621 12.56 126.441 12.3333 126.201 12.16C125.974 11.9733 125.701 11.84 125.381 11.76C125.061 11.6667 124.708 11.62 124.321 11.62H120.381V24H117.741Z" fill="#404040"/>
<defs>
<filter id="filter0_i_585_27075" x="0" y="0" width="33.2" height="33.2" filterUnits="userSpaceOnUse" color-interpolation-filters="sRGB">
<feFlood flood-opacity="0" result="BackgroundImageFix"/>
<feBlend mode="normal" in="SourceGraphic" in2="BackgroundImageFix" result="shape"/>
<feColorMatrix in="SourceAlpha" type="matrix" values="0 0 0 0 0 0 0 0 0 0 0 0 0 0 0 0 0 0 127 0" result="hardAlpha"/>
<feOffset dx="1.2" dy="1.2"/>
<feGaussianBlur stdDeviation="0.8"/>
<feComposite in2="hardAlpha" operator="arithmetic" k2="-1" k3="1"/>
<feColorMatrix type="matrix" values="0 0 0 0 1 0 0 0 0 1 0 0 0 0 1 0 0 0 0.24 0"/>
<feBlend mode="normal" in2="shape" result="effect1_innerShadow_585_27075"/>
</filter>
<linearGradient id="paint0_linear_585_27075" x1="16" y1="0" x2="16" y2="32" gradientUnits="userSpaceOnUse">
<stop stop-color="#0084D1"/>
<stop offset="1" stop-color="#00BCFF"/>
</linearGradient>
<radialGradient id="paint1_radial_585_27075" cx="0" cy="0" r="1" gradientUnits="userSpaceOnUse" gradientTransform="translate(16 16) rotate(90) scale(16 16)">
<stop stop-color="white"/>
<stop offset="1" stop-color="white" stop-opacity="0"/>
</radialGradient>
</defs>
</svg>
