<svg width="96" height="96" viewBox="0 0 96 96" fill="none" xmlns="http://www.w3.org/2000/svg">
<g clip-path="url(#clip0_940_10447)">
<mask id="mask0_940_10447" style="mask-type:luminance" maskUnits="userSpaceOnUse" x="0" y="0" width="96" height="96">
<path d="M96 0H0V96H96V0Z" fill="white"/>
</mask>
<g mask="url(#mask0_940_10447)">
<path d="M96 0H0V96H96V0Z" fill="#161616"/>
<path fill-rule="evenodd" clip-rule="evenodd" d="M6.79304 73.9849C4.52362 77.769 3.01384 80.5219 2.06655 82.6372C1.56756 83.7514 0.360359 84.4155 -0.818324 84.1181L-9.73047 81.8677C-8.52578 78.2831 -5.87071 73.314 -2.78864 68.1746C0.370172 62.9074 4.23056 57.0495 8.11559 51.5509C11.9939 46.0616 15.9586 40.8424 19.3339 36.8772C21.0124 34.9055 22.6248 33.1495 24.0614 31.8048C24.7767 31.1353 25.5348 30.4861 26.3029 29.9463C26.964 29.4819 28.0996 28.7579 29.516 28.4447C31.3617 28.0365 33.2527 28.3397 34.882 29.3225C36.3692 30.2195 37.3255 31.4876 37.9355 32.5618C39.1205 34.6473 39.7182 37.2792 40.0441 39.8666C40.2612 41.5886 40.385 43.5341 40.4135 45.6806C44.0663 42.4155 47.9967 39.2554 51.6504 36.4809C55.856 33.2875 59.9003 30.453 63.1036 28.3592C64.7003 27.3155 66.1302 26.4281 67.2916 25.7637C67.8687 25.4336 68.4301 25.1294 68.9424 24.881C69.3264 24.6946 70.1079 24.3246 70.976 24.1326C72.5604 23.7822 74.213 24.1342 75.5183 25.0936C76.6085 25.895 77.1234 26.8705 77.3371 27.3412C77.7549 28.261 77.8344 29.0912 77.8569 29.3272V29.3298C77.9195 29.9853 77.8853 30.6246 77.8565 31.0265C77.7908 31.9437 77.6337 33.107 77.4267 34.3628C77.0045 36.9215 76.2927 40.3526 75.3522 44.004C75.1089 44.9494 74.8482 45.9169 74.5707 46.8945C79.139 44.3074 84.3031 41.6014 89.8377 39.0364C96.866 35.7795 104.622 32.6877 112.609 30.3703C115.069 29.6563 117.695 29.8788 120.049 30.8919L135.726 37.638C122.397 38.1889 107.597 43.1947 94.5211 49.2544C85.9955 53.2057 78.4126 57.5055 72.734 61.0552C72.35 61.2952 71.8839 61.365 71.447 61.2461L58.3932 57.6896C59.696 55.4846 60.4737 53.4874 61.2477 51.4999C61.2965 51.3742 61.3452 51.249 61.394 51.1237C62.588 48.0649 63.6534 44.55 64.5207 41.1832C64.5421 41.0992 64.5639 41.0152 64.5849 40.9316C62.6431 42.2974 60.5442 43.8262 58.3932 45.4594C53.2291 49.3807 48.0732 53.6756 44.0645 57.6292C40.4439 61.1996 35.0156 62.871 30.2716 61.0406L28.2094 60.2449C29.2124 52.677 29.4091 46.7707 29.092 42.7474C28.6936 43.1947 28.2739 43.677 27.8342 44.1934C24.7505 47.8162 20.998 52.7437 17.2371 58.0669C13.4828 63.3806 9.78183 69.0011 6.79304 73.9849Z" fill="url(#paint0_linear_940_10447)"/>
<mask id="mask1_940_10447" style="mask-type:alpha" maskUnits="userSpaceOnUse" x="-10" y="24" width="146" height="61">
<path fill-rule="evenodd" clip-rule="evenodd" d="M6.79304 73.9849C4.52362 77.769 3.01384 80.5219 2.06655 82.6372C1.56756 83.7514 0.360359 84.4155 -0.818324 84.1181L-9.73047 81.8677C-8.52578 78.2831 -5.87071 73.314 -2.78864 68.1746C0.370172 62.9074 4.23056 57.0495 8.11559 51.5509C11.9939 46.0616 15.9586 40.8424 19.3339 36.8772C21.0124 34.9055 22.6248 33.1495 24.0614 31.8048C24.7767 31.1353 25.5348 30.4861 26.3029 29.9463C26.964 29.4819 28.0996 28.7579 29.516 28.4447C31.3617 28.0365 33.2527 28.3397 34.882 29.3225C36.3692 30.2195 37.3255 31.4876 37.9355 32.5618C39.1205 34.6473 39.7182 37.2792 40.0441 39.8666C40.2612 41.5886 40.385 43.5341 40.4135 45.6806C44.0663 42.4155 47.9967 39.2554 51.6504 36.4809C55.856 33.2875 59.9003 30.453 63.1036 28.3592C64.7003 27.3155 66.1302 26.4281 67.2916 25.7637C67.8687 25.4336 68.4301 25.1294 68.9424 24.881C69.3264 24.6946 70.1079 24.3246 70.976 24.1326C72.5604 23.7822 74.213 24.1342 75.5183 25.0936C76.6085 25.895 77.1234 26.8705 77.3371 27.3412C77.7549 28.261 77.8344 29.0912 77.8569 29.3272V29.3298C77.9195 29.9853 77.8853 30.6246 77.8565 31.0265C77.7908 31.9437 77.6337 33.107 77.4267 34.3628C77.0045 36.9215 76.2927 40.3526 75.3522 44.004C75.1089 44.9494 74.8482 45.9169 74.5707 46.8945C79.139 44.3074 84.3031 41.6014 89.8377 39.0364C96.866 35.7795 104.622 32.6877 112.609 30.3703C115.069 29.6563 117.695 29.8788 120.049 30.8919L135.726 37.638C122.397 38.1889 107.597 43.1947 94.5211 49.2544C85.691 53.3467 77.8719 57.8134 72.1325 61.4329L58.3932 57.6896C59.696 55.4846 60.4737 53.4874 61.2477 51.4999C61.2965 51.3742 61.3452 51.249 61.394 51.1237C62.588 48.0649 63.6534 44.55 64.5207 41.1832C64.5421 41.0992 64.5639 41.0152 64.5849 40.9316C62.6431 42.2974 60.5442 43.8262 58.3932 45.4594C50.1597 51.7114 41.9476 58.9129 38.3712 64.1659L28.2094 60.2449C29.2124 52.677 29.4091 46.7707 29.092 42.7474C28.6936 43.1947 28.2739 43.677 27.8342 44.1934C24.7505 47.8162 20.998 52.7437 17.2371 58.0669C13.4828 63.3806 9.78183 69.0011 6.79304 73.9849Z" fill="url(#paint1_linear_940_10447)"/>
</mask>
<g mask="url(#mask1_940_10447)">
<path d="M44.5305 42.0112C35.958 49.3068 29.7111 57.8182 27.6592 61.1621L37.9189 65.9501C54.5618 45.8868 70.5971 36.4634 82.1486 30.1557L72.345 18.0723L44.5305 42.0112Z" fill="url(#paint2_linear_940_10447)"/>
</g>
</g>
</g>
<defs>
<linearGradient id="paint0_linear_940_10447" x1="99.7805" y1="29.5731" x2="-16.9755" y2="84.189" gradientUnits="userSpaceOnUse">
<stop stop-color="#7ABCE0"/>
<stop offset="0.338542" stop-color="white"/>
<stop offset="0.614583" stop-color="#CCEDFF"/>
<stop offset="1" stop-color="#7ABCE0"/>
</linearGradient>
<linearGradient id="paint1_linear_940_10447" x1="89.7792" y1="30.8097" x2="-16.9755" y2="84.189" gradientUnits="userSpaceOnUse">
<stop stop-color="#161618"/>
<stop offset="0.338542" stop-color="white"/>
<stop offset="0.614583" stop-color="#CCEDFF"/>
<stop offset="1" stop-color="#161618"/>
</linearGradient>
<linearGradient id="paint2_linear_940_10447" x1="82.3766" y1="18.0723" x2="5.13927" y2="53.3474" gradientUnits="userSpaceOnUse">
<stop offset="0.338542" stop-color="white"/>
<stop offset="1" stop-color="#68CAFF"/>
</linearGradient>
<clipPath id="clip0_940_10447">
<rect width="96" height="96" fill="white"/>
</clipPath>
</defs>
</svg>
