<svg width="16" height="16" viewBox="0 0 16 16" fill="none" xmlns="http://www.w3.org/2000/svg">
<path d="M12.1651 9.33334C13.2697 9.33334 14.1651 8.43791 14.1651 7.33335C14.1651 6.22878 13.2697 5.33335 12.1651 5.33335M8.38465 12.1667C8.11009 12.9435 7.36927 13.5 6.49845 13.5C5.39388 13.5 4.49845 12.6046 4.49845 11.5V10.5M4.49992 4.16668V10.5M12.1651 3.64046V11.0262C12.1651 11.9238 11.2961 12.565 10.4384 12.3002L2.77177 9.93309C2.21294 9.76055 1.83179 9.24396 1.83179 8.6591V6.00759C1.83179 5.42273 2.21294 4.90614 2.77177 4.7336L10.4384 2.36647C11.2961 2.10166 12.1651 2.74284 12.1651 3.64046Z" stroke="#009689" stroke-width="1.2" stroke-linecap="round" stroke-linejoin="round"/>
</svg>
