<svg width="40" height="40" viewBox="0 0 40 40" fill="none" xmlns="http://www.w3.org/2000/svg">
<rect width="40" height="40" rx="8" fill="#FAFAFA"/>
<path fill-rule="evenodd" clip-rule="evenodd" d="M12.9167 9.0625C10.9607 9.0625 9.375 10.6482 9.375 12.6042V26.7708C9.375 28.7268 10.9607 30.3125 12.9167 30.3125H27.0833C29.0393 30.3125 30.625 28.7268 30.625 26.7708V12.6042C30.625 10.6482 29.0393 9.0625 27.0833 9.0625H12.9167ZM11.7361 12.6042C11.7361 11.9522 12.2647 11.4236 12.9167 11.4236H27.0833C27.7353 11.4236 28.2639 11.9522 28.2639 12.6042V13.7847H11.7361V12.6042ZM16.7535 19.6875C16.7535 20.5025 16.0928 21.1632 15.2778 21.1632C14.4628 21.1632 13.8021 20.5025 13.8021 19.6875C13.8021 18.8725 14.4628 18.2118 15.2778 18.2118C16.0928 18.2118 16.7535 18.8725 16.7535 19.6875ZM16.7535 24.4097C16.7535 25.2247 16.0928 25.8854 15.2778 25.8854C14.4628 25.8854 13.8021 25.2247 13.8021 24.4097C13.8021 23.5947 14.4628 22.934 15.2778 22.934C16.0928 22.934 16.7535 23.5947 16.7535 24.4097ZM20 21.1632C20.815 21.1632 21.4757 20.5025 21.4757 19.6875C21.4757 18.8725 20.815 18.2118 20 18.2118C19.185 18.2118 18.5243 18.8725 18.5243 19.6875C18.5243 20.5025 19.185 21.1632 20 21.1632ZM21.4757 24.4097C21.4757 25.2247 20.815 25.8854 20 25.8854C19.185 25.8854 18.5243 25.2247 18.5243 24.4097C18.5243 23.5947 19.185 22.934 20 22.934C20.815 22.934 21.4757 23.5947 21.4757 24.4097ZM24.7222 21.1632C25.5372 21.1632 26.1979 20.5025 26.1979 19.6875C26.1979 18.8725 25.5372 18.2118 24.7222 18.2118C23.9072 18.2118 23.2465 18.8725 23.2465 19.6875C23.2465 20.5025 23.9072 21.1632 24.7222 21.1632Z" fill="#737373"/>
<path d="M30.3506 23.7217C30.9585 23.2264 31.8552 23.2615 32.4219 23.8281C32.9884 24.3949 33.0241 25.2924 32.5283 25.9004L32.4219 26.0176L30.4385 27.999L32.4219 29.9824L32.5283 30.1006C33.0234 30.7084 32.9886 31.6051 32.4219 32.1719C31.8551 32.7386 30.9584 32.7734 30.3506 32.2783L30.2324 32.1719L28.249 30.1885L26.2676 32.1719C25.6631 32.7761 24.6826 32.7761 24.0781 32.1719C23.4736 31.5673 23.474 30.5868 24.0781 29.9824L26.0596 27.999L24.0781 26.0176C23.4737 25.413 23.4736 24.4326 24.0781 23.8281C24.6826 23.2236 25.663 23.2237 26.2676 23.8281L28.249 25.8096L30.2324 23.8281L30.3506 23.7217Z" fill="#FF6467" stroke="#FAFAFA" stroke-width="1.25" stroke-linecap="round"/>
</svg>
