<svg width="40" height="40" viewBox="0 0 40 40" fill="none" xmlns="http://www.w3.org/2000/svg">
<rect width="40" height="40" rx="8" fill="#FAFAFA"/>
<path d="M27.3899 23.8548C27.3899 23.2154 28.155 22.8863 28.6192 23.3261L31.8072 26.3462C32.1105 26.6335 32.1105 27.1165 31.8072 27.4038L28.6192 30.4239C28.155 30.8637 27.3899 30.5346 27.3899 29.8952V28.7511C25.9673 28.7736 25.1734 28.9146 24.6795 29.1394C24.1815 29.366 23.958 29.6905 23.6779 30.2369C23.4457 30.6899 22.8078 30.4796 22.8125 30.0225C22.8303 28.303 23.1036 27.0063 23.9277 26.157C24.6894 25.3719 25.8375 25.054 27.3899 25.008V23.8548Z" fill="#D4D4D4"/>
<path d="M22.2991 25.5694C22.2991 24.8693 22.2991 24.5193 22.1629 24.2519C22.0431 24.0167 21.8518 23.8255 21.6166 23.7057C21.3492 23.5694 20.9992 23.5694 20.2991 23.5694H19.7828C19.0827 23.5694 18.7327 23.5694 18.4653 23.7057C18.2301 23.8255 18.0389 24.0167 17.919 24.2519C17.7828 24.5193 17.7828 24.8693 17.7828 25.5694V28.1262C17.7828 28.7276 17.7828 29.0283 17.6814 29.2644C17.555 29.5589 17.3203 29.7937 17.0258 29.9201C16.7897 30.0214 16.489 30.0214 15.8875 30.0214C15.3223 30.0214 14.8353 30.0214 14.4339 29.9886C14.0105 29.9541 13.589 29.8777 13.1839 29.6711C12.579 29.3629 12.0869 28.8712 11.7788 28.2664C11.5722 27.861 11.4959 27.4397 11.4613 27.0161C11.4285 26.6148 11.4285 26.1275 11.4285 25.5627V17.6542L10.445 18.3583C9.96422 18.7028 9.29508 18.592 8.95043 18.1108C8.60578 17.6297 8.71667 16.9604 9.19805 16.616L18.3782 10.0434L18.4544 9.98864C18.7279 9.79087 19.0719 9.54262 19.4726 9.44086C19.8185 9.35305 20.1808 9.35305 20.5267 9.44086C20.9271 9.54236 21.2698 9.78962 21.5435 9.98714L21.6218 10.0434L30.802 16.616C31.2833 16.9604 31.3942 17.6297 31.0496 18.1108C30.7049 18.592 30.0358 18.7028 29.5544 18.3583L28.5715 17.6542V21.9237C27.4135 21.6523 26.1402 22.4951 26.1402 23.855C24.9469 24.0242 23.8611 24.4314 23.0311 25.2868C22.7324 25.5947 22.4919 25.9354 22.2991 26.3014V25.5694Z" fill="#737373"/>
</svg>
