<svg width="40" height="40" viewBox="0 0 40 40" fill="none" xmlns="http://www.w3.org/2000/svg">
<path d="M31.8639 21.3384C32.133 20.9706 32.6494 20.89 33.0173 21.1589C33.3851 21.428 33.4656 21.9443 33.1968 22.3123L28.1856 29.1616C28.0529 29.3428 27.8524 29.4627 27.6299 29.4926C27.4073 29.5226 27.1822 29.4602 27.0064 29.3207L24.3116 27.1805C23.9547 26.8969 23.8958 26.3777 24.1794 26.0207C24.463 25.6637 24.9822 25.6038 25.3392 25.8874L27.3601 27.4933L31.8639 21.3384Z" fill="#00BC7D"/>
<path fill-rule="evenodd" clip-rule="evenodd" d="M9.375 12.6042C9.375 10.6482 10.9607 9.0625 12.9167 9.0625H27.0833C29.0393 9.0625 30.625 10.6482 30.625 12.6042V20.9154L27.1191 25.7051L26.1172 24.9082L25.9434 24.7852C25.1161 24.255 24.0255 24.3812 23.3408 25.084L23.2002 25.2432C22.4885 26.1393 22.6356 27.4451 23.5342 28.1592L26.2295 30.2998L26.2457 30.3125H12.9167C10.9607 30.3125 9.375 28.7268 9.375 26.7708V12.6042ZM11.7361 12.6042C11.7361 11.9522 12.2647 11.4236 12.9167 11.4236H27.0833C27.7353 11.4236 28.2639 11.9522 28.2639 12.6042V13.7847H11.7361V12.6042ZM16.7535 19.6875C16.7535 20.5025 16.0928 21.1632 15.2778 21.1632C14.4628 21.1632 13.8021 20.5025 13.8021 19.6875C13.8021 18.8725 14.4628 18.2118 15.2778 18.2118C16.0928 18.2118 16.7535 18.8725 16.7535 19.6875ZM16.7535 24.4097C16.7535 25.2247 16.0928 25.8854 15.2778 25.8854C14.4628 25.8854 13.8021 25.2247 13.8021 24.4097C13.8021 23.5947 14.4628 22.934 15.2778 22.934C16.0928 22.934 16.7535 23.5947 16.7535 24.4097ZM20 21.1632C20.815 21.1632 21.4757 20.5025 21.4757 19.6875C21.4757 18.8725 20.815 18.2118 20 18.2118C19.185 18.2118 18.5243 18.8725 18.5243 19.6875C18.5243 20.5025 19.185 21.1632 20 21.1632ZM21.4757 24.4097C21.4757 25.2247 20.815 25.8854 20 25.8854C19.185 25.8854 18.5243 25.2247 18.5243 24.4097C18.5243 23.5947 19.185 22.934 20 22.934C20.815 22.934 21.4757 23.5947 21.4757 24.4097ZM24.7222 21.1632C25.5372 21.1632 26.1979 20.5025 26.1979 19.6875C26.1979 18.8725 25.5372 18.2118 24.7222 18.2118C23.9072 18.2118 23.2465 18.8725 23.2465 19.6875C23.2465 20.5025 23.9072 21.1632 24.7222 21.1632Z" fill="#737373"/>
</svg>
