<svg width="40" height="40" viewBox="0 0 40 40" fill="none" xmlns="http://www.w3.org/2000/svg">
<rect width="40" height="40" rx="8" fill="#FAFAFA"/>
<path fill-rule="evenodd" clip-rule="evenodd" d="M12.9167 9.0625C10.9607 9.0625 9.375 10.6482 9.375 12.6042V26.7708C9.375 28.7268 10.9607 30.3125 12.9167 30.3125H27.0833C29.0393 30.3125 30.625 28.7268 30.625 26.7708V12.6042C30.625 10.6482 29.0393 9.0625 27.0833 9.0625H12.9167ZM11.7361 12.6042C11.7361 11.9522 12.2647 11.4236 12.9167 11.4236H27.0833C27.7353 11.4236 28.2639 11.9522 28.2639 12.6042V13.7847H11.7361V12.6042ZM16.7535 19.6875C16.7535 20.5025 16.0928 21.1632 15.2778 21.1632C14.4628 21.1632 13.8021 20.5025 13.8021 19.6875C13.8021 18.8725 14.4628 18.2118 15.2778 18.2118C16.0928 18.2118 16.7535 18.8725 16.7535 19.6875ZM16.7535 24.4097C16.7535 25.2247 16.0928 25.8854 15.2778 25.8854C14.4628 25.8854 13.8021 25.2247 13.8021 24.4097C13.8021 23.5947 14.4628 22.934 15.2778 22.934C16.0928 22.934 16.7535 23.5947 16.7535 24.4097ZM20 21.1632C20.815 21.1632 21.4757 20.5025 21.4757 19.6875C21.4757 18.8725 20.815 18.2118 20 18.2118C19.185 18.2118 18.5243 18.8725 18.5243 19.6875C18.5243 20.5025 19.185 21.1632 20 21.1632ZM21.4757 24.4097C21.4757 25.2247 20.815 25.8854 20 25.8854C19.185 25.8854 18.5243 25.2247 18.5243 24.4097C18.5243 23.5947 19.185 22.934 20 22.934C20.815 22.934 21.4757 23.5947 21.4757 24.4097ZM24.7222 21.1632C25.5372 21.1632 26.1979 20.5025 26.1979 19.6875C26.1979 18.8725 25.5372 18.2118 24.7222 18.2118C23.9072 18.2118 23.2465 18.8725 23.2465 19.6875C23.2465 20.5025 23.9072 21.1632 24.7222 21.1632Z" fill="#737373"/>
<path d="M31.3594 20.9697C31.8319 20.3239 32.7388 20.1817 33.3857 20.6543H33.3867C34.0324 21.1269 34.1737 22.0338 33.7012 22.6807V22.6816L28.6904 29.5303H28.6895C28.4571 29.8478 28.1051 30.0595 27.7129 30.1123C27.3214 30.1649 26.9263 30.055 26.6182 29.8105L23.9229 27.6699C23.2951 27.1711 23.1927 26.2584 23.6904 25.6318C24.1884 25.0053 25.0999 24.8999 25.7275 25.3984H25.7285L27.2393 26.5986L31.3594 20.9697Z" fill="#00BC7D" stroke="#FAFAFA" stroke-width="1.25" stroke-linecap="round" stroke-linejoin="round"/>
</svg>
