<svg width="40" height="40" viewBox="0 0 40 40" fill="none" xmlns="http://www.w3.org/2000/svg">
<path d="M31.8639 21.3384C32.133 20.9706 32.6494 20.89 33.0173 21.1589C33.3851 21.428 33.4656 21.9443 33.1968 22.3123L28.1856 29.1616C28.0529 29.3428 27.8524 29.4627 27.6299 29.4926C27.4073 29.5226 27.1822 29.4602 27.0064 29.3207L24.3116 27.1805C23.9547 26.8969 23.8958 26.3777 24.1794 26.0207C24.463 25.6637 24.9822 25.6038 25.3392 25.8874L27.3601 27.4933L31.8639 21.3384Z" fill="#00BC7D"/>
<path fill-rule="evenodd" clip-rule="evenodd" d="M9.375 13.1944C9.375 10.9124 11.2249 9.0625 13.5069 9.0625H23.0556C24.628 9.0625 25.9028 10.3372 25.9028 11.9097V14.9653H27.0833C29.0393 14.9653 30.625 16.5509 30.625 18.5069V20.9154L27.1191 25.7051L26.1172 24.9082L25.9434 24.7852C25.1161 24.255 24.0255 24.3812 23.3408 25.084L23.2002 25.2432C22.4885 26.1393 22.6356 27.4451 23.5342 28.1592L26.2295 30.2998L26.2457 30.3125H14.0972C11.4892 30.3125 9.375 28.1983 9.375 25.5903V13.1944ZM23.5417 14.9653V11.9097C23.5417 11.6413 23.324 11.4236 23.0556 11.4236H13.5069C12.5289 11.4236 11.7361 12.2164 11.7361 13.1944C11.7361 14.1724 12.5289 14.9653 13.5069 14.9653H23.5417ZM25.4601 22.1962C25.4601 23.0112 24.7994 23.6719 23.9844 23.6719C23.1694 23.6719 22.5087 23.0112 22.5087 22.1962C22.5087 21.3812 23.1694 20.7205 23.9844 20.7205C24.7994 20.7205 25.4601 21.3812 25.4601 22.1962Z" fill="#737373"/>
</svg>
