<svg width="20" height="20" viewBox="0 0 20 20" fill="none" xmlns="http://www.w3.org/2000/svg">
<path d="M13.3333 14.375C13.3333 16.2159 11.8409 17.7083 10 17.7083C8.15905 17.7083 6.66667 16.2159 6.66667 14.375M15.4137 7.42413L15.5532 10.1859C15.5748 10.6126 15.6872 11.0298 15.883 11.4095L16.7818 13.1525C16.843 13.2713 16.875 13.4031 16.875 13.5367C16.875 13.9997 16.4997 14.375 16.0367 14.375H3.96327C3.50031 14.375 3.125 13.9997 3.125 13.5367C3.125 13.4031 3.15696 13.2713 3.21821 13.1525L4.11699 11.4095C4.31278 11.0298 4.42521 10.6126 4.44676 10.1859L4.58626 7.42413C4.7305 4.549 7.11155 2.29166 10 2.29166C12.8884 2.29166 15.2695 4.549 15.4137 7.42413Z" stroke="#404040" stroke-width="1.5" stroke-linecap="round" stroke-linejoin="round"/>
</svg>
