<svg width="40" height="40" viewBox="0 0 40 40" fill="none" xmlns="http://www.w3.org/2000/svg">
<path d="M30.6745 24.2704C31.035 23.91 31.6194 23.9099 31.9798 24.2704C32.3401 24.6308 32.3401 25.2152 31.9798 25.5756L29.5549 27.9996L31.9798 30.4245C32.34 30.785 32.3402 31.3694 31.9798 31.7298C31.6194 32.0902 31.035 32.09 30.6745 31.7298L28.2496 29.3049L25.8256 31.7298C25.4652 32.0901 24.8808 32.0901 24.5204 31.7298C24.1599 31.3694 24.16 30.785 24.5204 30.4245L26.9443 27.9996L24.5204 25.5756C24.1599 25.2152 24.1599 24.6308 24.5204 24.2704C24.8808 23.9099 25.4652 23.9099 25.8256 24.2704L28.2496 26.6943L30.6745 24.2704Z" fill="#FF6467"/>
<path d="M23.6367 29.541C23.4905 29.6873 23.3695 29.8492 23.2737 30.0214C22.7355 30.0214 22.2991 29.5851 22.2991 29.0468V25.5694C22.2991 24.8693 22.2991 24.5193 22.1629 24.2519C22.043 24.0167 21.8518 23.8255 21.6166 23.7057C21.3492 23.5694 20.9992 23.5694 20.2991 23.5694H19.7828C19.0827 23.5694 18.7327 23.5694 18.4653 23.7057C18.2301 23.8255 18.0389 24.0167 17.919 24.2519C17.7828 24.5193 17.7828 24.8693 17.7828 25.5694V28.1262C17.7828 28.7276 17.7828 29.0283 17.6814 29.2644C17.555 29.5589 17.3203 29.7937 17.0258 29.9201C16.7897 30.0214 16.489 30.0214 15.8875 30.0214C15.3224 30.0214 14.8353 30.0214 14.4339 29.9886C14.0105 29.9541 13.589 29.8777 13.1839 29.6711C12.579 29.3629 12.0869 28.8712 11.7788 28.2664C11.5722 27.861 11.4959 27.4397 11.4613 27.0161C11.4285 26.6148 11.4285 26.1275 11.4285 25.5627V17.6542L10.445 18.3583C9.96422 18.7028 9.29508 18.592 8.95043 18.1108C8.60578 17.6297 8.71667 16.9604 9.19805 16.616L18.3782 10.0434L18.4544 9.98864C18.7279 9.79087 19.0719 9.54262 19.4726 9.44086C19.8185 9.35305 20.1808 9.35305 20.5267 9.44086C20.9271 9.54236 21.2698 9.78962 21.5435 9.98714L21.6218 10.0434L30.802 16.616C31.2833 16.9604 31.3942 17.6297 31.0496 18.1108C30.7049 18.592 30.0358 18.7028 29.5544 18.3583L28.5715 17.6542V24.6055L28.25 24.9268L26.71 23.3867L26.5449 23.2373C25.6914 22.5409 24.4324 22.591 23.6367 23.3867C22.7881 24.2354 22.7881 25.6113 23.6367 26.46L25.1768 28L23.6367 29.541Z" fill="#737373"/>
</svg>
