<svg width="40" height="40" viewBox="0 0 40 40" fill="none" xmlns="http://www.w3.org/2000/svg">
<rect width="40" height="40" rx="8" fill="#FAFAFA"/>
<path d="M27.7024 24.1942C27.7024 23.5547 28.4675 23.2256 28.9317 23.6654L32.1197 26.6856C32.423 26.9729 32.423 27.4558 32.1197 27.7431L28.9317 30.7633C28.4675 31.2031 27.7024 30.874 27.7024 30.2345V29.0905C26.2798 29.113 25.4859 29.254 24.992 29.4787C24.494 29.7054 24.2705 30.0299 23.9904 30.5762C23.7582 31.0292 23.1203 30.819 23.125 30.3618C23.1428 28.6424 23.4161 27.3457 24.2402 26.4963C25.0019 25.7112 26.15 25.3934 27.7024 25.3474V24.1942Z" fill="#D4D4D4"/>
<path fill-rule="evenodd" clip-rule="evenodd" d="M9.375 13.1944C9.375 10.9124 11.2249 9.0625 13.5069 9.0625H23.0556C24.628 9.0625 25.9028 10.3372 25.9028 11.9097V14.9653H27.0833C29.0393 14.9653 30.625 16.5509 30.625 18.5069V23.5472L29.7913 22.7575L29.6704 22.6525C28.4022 21.6206 26.4526 22.5117 26.4526 24.1943C25.2594 24.3635 24.1736 24.7707 23.3435 25.6261C22.3103 26.691 21.9744 28.149 21.8945 29.6862L21.8761 30.3125H14.0972C11.4892 30.3125 9.375 28.1983 9.375 25.5903V13.1944ZM23.5417 14.9653V11.9097C23.5417 11.6413 23.324 11.4236 23.0556 11.4236H13.5069C12.5289 11.4236 11.7361 12.2164 11.7361 13.1944C11.7361 14.1724 12.5289 14.9653 13.5069 14.9653H23.5417ZM25.4601 21.875C25.4601 22.69 24.7994 23.3507 23.9844 23.3507C23.1694 23.3507 22.5087 22.69 22.5087 21.875C22.5087 21.06 23.1694 20.3993 23.9844 20.3993C24.7994 20.3993 25.4601 21.06 25.4601 21.875Z" fill="#737373"/>
</svg>
