<svg width="40" height="40" viewBox="0 0 40 40" fill="none" xmlns="http://www.w3.org/2000/svg">
<path d="M30.1139 22.5884C30.383 22.2206 30.8994 22.14 31.2673 22.4089C31.6351 22.678 31.7156 23.1943 31.4468 23.5623L26.4356 30.4116C26.3029 30.5928 26.1024 30.7127 25.8799 30.7426C25.6573 30.7726 25.4322 30.7102 25.2564 30.5707L22.5616 28.4305C22.2047 28.1469 22.1458 27.6277 22.4294 27.2707C22.713 26.9137 23.2322 26.8538 23.5892 27.1374L25.6101 28.7433L30.1139 22.5884Z" fill="#00BC7D"/>
<path d="M22.2991 25.5694C22.2991 24.8693 22.2991 24.5193 22.1629 24.2519C22.043 24.0167 21.8518 23.8255 21.6166 23.7057C21.3492 23.5694 20.9992 23.5694 20.2991 23.5694H19.7828C19.0827 23.5694 18.7327 23.5694 18.4653 23.7057C18.2301 23.8255 18.0389 24.0167 17.919 24.2519C17.7828 24.5193 17.7828 24.8693 17.7828 25.5694V28.1262C17.7828 28.7276 17.7828 29.0283 17.6814 29.2644C17.555 29.5589 17.3203 29.7937 17.0258 29.9201C16.7897 30.0214 16.489 30.0214 15.8875 30.0214C15.3224 30.0214 14.8353 30.0214 14.4339 29.9886C14.0105 29.9541 13.589 29.8777 13.1839 29.6711C12.579 29.3629 12.0869 28.8712 11.7788 28.2664C11.5722 27.861 11.4959 27.4397 11.4613 27.0161C11.4285 26.6148 11.4285 26.1275 11.4285 25.5627V17.6542L10.445 18.3583C9.96422 18.7028 9.29508 18.592 8.95043 18.1108C8.60578 17.6297 8.71667 16.9604 9.19805 16.616L18.3782 10.0434L18.4544 9.98864C18.7279 9.79087 19.0719 9.54262 19.4726 9.44086C19.8185 9.35305 20.1808 9.35305 20.5267 9.44086C20.9271 9.54236 21.2698 9.78962 21.5435 9.98714L21.6218 10.0434L30.802 16.616C31.2833 16.9604 31.3942 17.6297 31.0496 18.1108C30.7049 18.592 30.0358 18.7028 29.5544 18.3583L28.5715 17.6542V22.5802L25.3692 26.9551L24.3673 26.1582L24.1935 26.0351C23.6146 25.6641 22.9066 25.6146 22.2991 25.8591V25.5694Z" fill="#737373"/>
</svg>
