<svg width="40" height="40" viewBox="0 0 40 40" fill="none" xmlns="http://www.w3.org/2000/svg">
<rect width="40" height="40" rx="8" fill="#FAFAFA"/>
<path d="M27.7024 24.1942C27.7024 23.5547 28.4675 23.2256 28.9317 23.6654L32.1197 26.6856C32.423 26.9729 32.423 27.4558 32.1197 27.7431L28.9317 30.7633C28.4675 31.2031 27.7024 30.874 27.7024 30.2345V29.0905C26.2798 29.113 25.4859 29.254 24.992 29.4787C24.494 29.7054 24.2705 30.0299 23.9904 30.5762C23.7582 31.0292 23.1203 30.819 23.125 30.3618C23.1428 28.6424 23.4161 27.3457 24.2402 26.4963C25.0019 25.7112 26.15 25.3934 27.7024 25.3474V24.1942Z" fill="#D4D4D4"/>
<path fill-rule="evenodd" clip-rule="evenodd" d="M9.375 12.6042C9.375 10.6482 10.9607 9.0625 12.9167 9.0625H27.0833C29.0393 9.0625 30.625 10.6482 30.625 12.6042V23.5472L29.7913 22.7575L29.6704 22.6525C28.4022 21.6206 26.4526 22.5117 26.4526 24.1943C25.2594 24.3635 24.1736 24.7707 23.3435 25.6261C22.3103 26.691 21.9744 28.149 21.8945 29.6862L21.8761 30.3125H12.9167C10.9607 30.3125 9.375 28.7268 9.375 26.7708V12.6042ZM11.7361 12.6042C11.7361 11.9522 12.2647 11.4236 12.9167 11.4236H27.0833C27.7353 11.4236 28.2639 11.9522 28.2639 12.6042V13.7847H11.7361V12.6042ZM16.7535 19.6875C16.7535 20.5025 16.0928 21.1632 15.2778 21.1632C14.4628 21.1632 13.8021 20.5025 13.8021 19.6875C13.8021 18.8725 14.4628 18.2118 15.2778 18.2118C16.0928 18.2118 16.7535 18.8725 16.7535 19.6875ZM16.7535 24.4097C16.7535 25.2247 16.0928 25.8854 15.2778 25.8854C14.4628 25.8854 13.8021 25.2247 13.8021 24.4097C13.8021 23.5947 14.4628 22.934 15.2778 22.934C16.0928 22.934 16.7535 23.5947 16.7535 24.4097ZM20 21.1632C20.815 21.1632 21.4757 20.5025 21.4757 19.6875C21.4757 18.8725 20.815 18.2118 20 18.2118C19.185 18.2118 18.5243 18.8725 18.5243 19.6875C18.5243 20.5025 19.185 21.1632 20 21.1632ZM21.4757 24.4097C21.4757 25.2247 20.815 25.8854 20 25.8854C19.185 25.8854 18.5243 25.2247 18.5243 24.4097C18.5243 23.5947 19.185 22.934 20 22.934C20.815 22.934 21.4757 23.5947 21.4757 24.4097ZM24.7222 21.1632C25.5372 21.1632 26.1979 20.5025 26.1979 19.6875C26.1979 18.8725 25.5372 18.2118 24.7222 18.2118C23.9072 18.2118 23.2465 18.8725 23.2465 19.6875C23.2465 20.5025 23.9072 21.1632 24.7222 21.1632Z" fill="#737373"/>
</svg>
