<svg width="40" height="40" viewBox="0 0 40 40" fill="none" xmlns="http://www.w3.org/2000/svg">
<path d="M30.6745 24.2704C31.035 23.91 31.6194 23.9099 31.9798 24.2704C32.3401 24.6308 32.3401 25.2152 31.9798 25.5756L29.5549 27.9996L31.9798 30.4245C32.34 30.785 32.3402 31.3694 31.9798 31.7298C31.6194 32.0902 31.035 32.09 30.6745 31.7298L28.2496 29.3049L25.8256 31.7298C25.4652 32.0901 24.8808 32.0901 24.5204 31.7298C24.1599 31.3694 24.16 30.785 24.5204 30.4245L26.9443 27.9996L24.5204 25.5756C24.1599 25.2152 24.1599 24.6308 24.5204 24.2704C24.8808 23.9099 25.4652 23.9099 25.8256 24.2704L28.2496 26.6943L30.6745 24.2704Z" fill="#FF6467"/>
<path fill-rule="evenodd" clip-rule="evenodd" d="M9.375 13.1944C9.375 10.9124 11.2249 9.0625 13.5069 9.0625H23.0556C24.628 9.0625 25.9028 10.3372 25.9028 11.9097V14.9653H27.0833C29.0393 14.9653 30.625 16.5509 30.625 18.5069V22.8664C30.3868 22.9475 30.1599 23.0712 29.9561 23.2373L29.791 23.3867L28.25 24.9268L26.71 23.3867L26.5449 23.2373C26.1948 22.9516 25.7764 22.7916 25.3497 22.7571C25.4208 22.5842 25.4601 22.3948 25.4601 22.1962C25.4601 21.3812 24.7994 20.7205 23.9844 20.7205C23.1694 20.7205 22.5087 21.3812 22.5087 22.1962C22.5087 22.8288 22.9068 23.3685 23.4662 23.5783C22.7925 24.4313 22.8493 25.6726 23.6367 26.46L25.1768 28L23.6367 29.541C23.4105 29.7673 23.2446 30.0311 23.139 30.3125H14.0972C11.4892 30.3125 9.375 28.1983 9.375 25.5903V13.1944ZM23.5417 14.9653V11.9097C23.5417 11.6413 23.324 11.4236 23.0556 11.4236H13.5069C12.5289 11.4236 11.7361 12.2164 11.7361 13.1944C11.7361 14.1724 12.5289 14.9653 13.5069 14.9653H23.5417Z" fill="#737373"/>
</svg>
