<svg width="40" height="40" viewBox="0 0 40 40" fill="none" xmlns="http://www.w3.org/2000/svg">
<path d="M30.6745 24.2704C31.035 23.91 31.6194 23.9099 31.9798 24.2704C32.3401 24.6308 32.3401 25.2152 31.9798 25.5756L29.5549 27.9996L31.9798 30.4245C32.34 30.785 32.3402 31.3694 31.9798 31.7298C31.6194 32.0902 31.035 32.09 30.6745 31.7298L28.2496 29.3049L25.8256 31.7298C25.4652 32.0901 24.8808 32.0901 24.5204 31.7298C24.1599 31.3694 24.16 30.785 24.5204 30.4245L26.9443 27.9996L24.5204 25.5756C24.1599 25.2152 24.1599 24.6308 24.5204 24.2704C24.8808 23.9099 25.4652 23.9099 25.8256 24.2704L28.2496 26.6943L30.6745 24.2704Z" fill="#FF6467"/>
<path fill-rule="evenodd" clip-rule="evenodd" d="M9.375 12.6042C9.375 10.6482 10.9607 9.0625 12.9167 9.0625H27.0833C29.0393 9.0625 30.625 10.6482 30.625 12.6042V22.8664C30.3868 22.9475 30.1599 23.0712 29.9561 23.2373L29.791 23.3867L28.25 24.9268L26.71 23.3867L26.5449 23.2373C25.6914 22.5409 24.4324 22.591 23.6367 23.3867C22.7881 24.2354 22.7881 25.6113 23.6367 26.46L25.1768 28L23.6367 29.541C23.4105 29.7673 23.2446 30.0311 23.139 30.3125H12.9167C10.9607 30.3125 9.375 28.7268 9.375 26.7708V12.6042ZM11.7361 12.6042C11.7361 11.9522 12.2647 11.4236 12.9167 11.4236H27.0833C27.7353 11.4236 28.2639 11.9522 28.2639 12.6042V13.7847H11.7361V12.6042ZM16.7535 19.6875C16.7535 20.5025 16.0928 21.1632 15.2778 21.1632C14.4628 21.1632 13.8021 20.5025 13.8021 19.6875C13.8021 18.8725 14.4628 18.2118 15.2778 18.2118C16.0928 18.2118 16.7535 18.8725 16.7535 19.6875ZM16.7535 24.4097C16.7535 25.2247 16.0928 25.8854 15.2778 25.8854C14.4628 25.8854 13.8021 25.2247 13.8021 24.4097C13.8021 23.5947 14.4628 22.934 15.2778 22.934C16.0928 22.934 16.7535 23.5947 16.7535 24.4097ZM20 21.1632C20.815 21.1632 21.4757 20.5025 21.4757 19.6875C21.4757 18.8725 20.815 18.2118 20 18.2118C19.185 18.2118 18.5243 18.8725 18.5243 19.6875C18.5243 20.5025 19.185 21.1632 20 21.1632ZM21.4757 24.4097C21.4757 25.2247 20.815 25.8854 20 25.8854C19.185 25.8854 18.5243 25.2247 18.5243 24.4097C18.5243 23.5947 19.185 22.934 20 22.934C20.815 22.934 21.4757 23.5947 21.4757 24.4097ZM24.7222 21.1632C25.5372 21.1632 26.1979 20.5025 26.1979 19.6875C26.1979 18.8725 25.5372 18.2118 24.7222 18.2118C23.9072 18.2118 23.2465 18.8725 23.2465 19.6875C23.2465 20.5025 23.9072 21.1632 24.7222 21.1632Z" fill="#737373"/>
</svg>
