<svg width="32" height="32" viewBox="0 0 32 32" fill="none" xmlns="http://www.w3.org/2000/svg">
<rect width="32" height="32" rx="8" fill="#F5F5F5"/>
<path fill-rule="evenodd" clip-rule="evenodd" d="M21.75 19.25C20.0931 19.25 18.75 20.5931 18.75 22.25C18.75 23.9069 20.0931 25.25 21.75 25.25C23.4069 25.25 24.75 23.9069 24.75 22.25C24.75 20.5931 23.4069 19.25 21.75 19.25ZM22.8822 21.69C22.9871 21.5617 22.9682 21.3727 22.84 21.2678C22.7117 21.1629 22.5227 21.1818 22.4178 21.31L21.2777 22.7035L20.9121 22.3379C20.795 22.2207 20.605 22.2207 20.4879 22.3379C20.3707 22.455 20.3707 22.645 20.4879 22.7621L21.0879 23.3621C21.1478 23.4221 21.2303 23.4539 21.3149 23.4496C21.3996 23.4454 21.4785 23.4056 21.5322 23.34L22.8822 21.69Z" fill="#05DF72"/>
<path d="M17.8393 20.4555C17.8393 19.8955 17.8393 19.6155 17.7303 19.4015C17.6344 19.2134 17.4815 19.0604 17.2933 18.9645C17.0794 18.8555 16.7994 18.8555 16.2393 18.8555H15.8262C15.2662 18.8555 14.9861 18.8555 14.7722 18.9645C14.5841 19.0604 14.4311 19.2134 14.3352 19.4015C14.2262 19.6155 14.2262 19.8955 14.2262 20.4555V22.5009C14.2262 22.9821 14.2262 23.2227 14.1452 23.4115C14.044 23.6472 13.8563 23.8349 13.6206 23.9361C13.4318 24.0171 13.1912 24.0171 12.71 24.0171C12.2579 24.0171 11.8682 24.0171 11.5472 23.9909C11.2084 23.9633 10.8712 23.9021 10.5471 23.7369C10.0632 23.4903 9.66954 23.097 9.42306 22.6131C9.25773 22.2888 9.19674 21.9517 9.16901 21.6129C9.1428 21.2919 9.1428 20.902 9.1428 20.4502V14.1234L8.35597 14.6866C7.97137 14.9622 7.43606 14.8736 7.16034 14.4886C6.88463 14.1037 6.97334 13.5683 7.35844 13.2928L14.7026 8.0347L14.7635 7.99091C14.9823 7.8327 15.2575 7.6341 15.5781 7.55269C15.8548 7.48244 16.1447 7.48244 16.4214 7.55269C16.7417 7.63389 17.0158 7.8317 17.2348 7.98972L17.2974 8.0347L24.6416 13.2928C25.0267 13.5683 25.1154 14.1037 24.8397 14.4886C24.5639 14.8736 24.0286 14.9622 23.6435 14.6866L22.8572 14.1234V18.4052C22.5056 18.3041 22.1341 18.25 21.75 18.25C19.8306 18.25 18.2268 19.602 17.8393 21.4057V20.4555Z" fill="#737373"/>
</svg>
