<svg width="32" height="32" viewBox="0 0 32 32" fill="none" xmlns="http://www.w3.org/2000/svg">
<rect width="32" height="32" rx="8" fill="#F5F5F5"/>
<path d="M21.9119 19.0839C21.9119 18.5723 22.524 18.309 22.8954 18.6608L25.4458 21.077C25.6884 21.3068 25.6884 21.6932 25.4458 21.923L22.8954 24.3392C22.524 24.691 21.9119 24.4277 21.9119 23.9161V23.0009C20.7739 23.0189 20.1387 23.1317 19.7436 23.3115C19.3452 23.4928 19.1664 23.7524 18.9423 24.1895C18.7565 24.5519 18.2462 24.3837 18.25 24.018C18.2642 22.6424 18.4829 21.6051 19.1421 20.9256C19.7515 20.2975 20.67 20.0432 21.9119 20.0064V19.0839Z" fill="#D4D4D4"/>
<path d="M17.8393 20.4555C17.8393 19.8955 17.8393 19.6155 17.7303 19.4015C17.6344 19.2134 17.4815 19.0604 17.2933 18.9645C17.0794 18.8555 16.7994 18.8555 16.2393 18.8555H15.8262C15.2662 18.8555 14.9861 18.8555 14.7722 18.9645C14.5841 19.0604 14.4311 19.2134 14.3352 19.4015C14.2262 19.6155 14.2262 19.8955 14.2262 20.4555V22.5009C14.2262 22.9821 14.2262 23.2227 14.1452 23.4115C14.044 23.6472 13.8563 23.8349 13.6206 23.9361C13.4318 24.0171 13.1912 24.0171 12.71 24.0171C12.2579 24.0171 11.8682 24.0171 11.5472 23.9909C11.2084 23.9633 10.8712 23.9021 10.5471 23.7369C10.0632 23.4903 9.66954 23.097 9.42306 22.6131C9.25773 22.2888 9.19674 21.9517 9.16901 21.6129C9.1428 21.2919 9.1428 20.902 9.1428 20.4502V14.1234L8.35597 14.6866C7.97137 14.9622 7.43606 14.8736 7.16034 14.4886C6.88463 14.1037 6.97334 13.5683 7.35844 13.2928L14.7026 8.0347L14.7635 7.99091C14.9823 7.8327 15.2575 7.6341 15.5781 7.55269C15.8548 7.48244 16.1447 7.48244 16.4214 7.55269C16.7417 7.63389 17.0158 7.8317 17.2348 7.98972L17.2974 8.0347L24.6416 13.2928C25.0267 13.5683 25.1154 14.1037 24.8397 14.4886C24.5639 14.8736 24.0286 14.9622 23.6435 14.6866L22.8572 14.1234V17.5389C21.9308 17.3218 20.9121 17.9961 20.9121 19.084C19.9575 19.2194 19.0889 19.5451 18.4248 20.2295C18.1859 20.4758 17.9935 20.7483 17.8393 21.0411V20.4555Z" fill="#737373"/>
</svg>
