<svg width="40" height="42" viewBox="0 0 40 42" fill="none" xmlns="http://www.w3.org/2000/svg">
<g filter="url(#filter0_i_64_2196)">
<path d="M22 2C22 0.89543 21.1046 0 20 0C18.8954 0 18 0.89543 18 2C18 8.37676 16.662 12.5112 14.2356 15.0724C11.8323 17.6092 7.9799 19 2 19C0.89543 19 0 19.8954 0 21C0 22.1046 0.89543 23 2 23C7.9799 23 11.8323 24.3908 14.2356 26.9276C16.662 29.4888 18 33.6232 18 40C18 41.1046 18.8954 42 20 42C21.1046 42 22 41.1046 22 40C22 33.6232 23.338 29.4888 25.7644 26.9276C28.1677 24.3908 32.0201 23 38 23C39.1046 23 40 22.1046 40 21C40 19.8954 39.1046 19 38 19C32.0201 19 28.1677 17.6092 25.7644 15.0724C23.338 12.5112 22 8.37676 22 2Z" fill="url(#paint0_linear_64_2196)"/>
</g>
<defs>
<filter id="filter0_i_64_2196" x="-2" y="0" width="42" height="44" filterUnits="userSpaceOnUse" color-interpolation-filters="sRGB">
<feFlood flood-opacity="0" result="BackgroundImageFix"/>
<feBlend mode="normal" in="SourceGraphic" in2="BackgroundImageFix" result="shape"/>
<feColorMatrix in="SourceAlpha" type="matrix" values="0 0 0 0 0 0 0 0 0 0 0 0 0 0 0 0 0 0 127 0" result="hardAlpha"/>
<feOffset dx="-2" dy="2"/>
<feGaussianBlur stdDeviation="2"/>
<feComposite in2="hardAlpha" operator="arithmetic" k2="-1" k3="1"/>
<feColorMatrix type="matrix" values="0 0 0 0 1 0 0 0 0 1 0 0 0 0 1 0 0 0 0.18 0"/>
<feBlend mode="normal" in2="shape" result="effect1_innerShadow_64_2196"/>
</filter>
<linearGradient id="paint0_linear_64_2196" x1="20" y1="0" x2="20" y2="42" gradientUnits="userSpaceOnUse">
<stop stop-color="#61D2FF"/>
<stop offset="1" stop-color="#0A7EF2"/>
</linearGradient>
</defs>
</svg>
