<svg width="24" height="24" viewBox="0 0 24 24" fill="none" xmlns="http://www.w3.org/2000/svg">
<g filter="url(#filter0_i_380_4024)">
<path fill-rule="evenodd" clip-rule="evenodd" d="M12 24C18.6274 24 24 18.6274 24 12C24 5.37258 18.6274 0 12 0C5.37257 0 0 5.37258 0 12C0 18.6274 5.37257 24 12 24Z" fill="url(#paint0_linear_380_4024)"/>
<path fill-rule="evenodd" clip-rule="evenodd" d="M12 24C18.6274 24 24 18.6274 24 12C24 5.37258 18.6274 0 12 0C5.37257 0 0 5.37258 0 12C0 18.6274 5.37257 24 12 24Z" fill="url(#paint1_radial_380_4024)" fill-opacity="0.1"/>
<g filter="url(#filter1_d_380_4024)">
<path fill-rule="evenodd" clip-rule="evenodd" d="M9.73515 6.71392C10.7785 5.03546 13.2213 5.03546 14.2647 6.71392L18.3332 13.2589C19.4374 15.0353 18.16 17.3334 16.0684 17.3334H7.93141C5.83983 17.3334 4.56243 15.0353 5.66665 13.2589L9.73515 6.71392ZM12.0001 9.33333C12.3683 9.33333 12.6667 9.63181 12.6667 10V12C12.6667 12.3682 12.3683 12.6667 12.0001 12.6667C11.6319 12.6667 11.3334 12.3682 11.3334 12V10C11.3334 9.63181 11.6319 9.33333 12.0001 9.33333ZM11.1667 14C11.1667 13.5398 11.5398 13.1667 12.0001 13.1667C12.4603 13.1667 12.8334 13.5398 12.8334 14C12.8334 14.4602 12.4603 14.8333 12.0001 14.8333C11.5398 14.8333 11.1667 14.4602 11.1667 14Z" fill="url(#paint2_linear_380_4024)" fill-opacity="0.01" shape-rendering="crispEdges"/>
</g>
<path fill-rule="evenodd" clip-rule="evenodd" d="M9.73515 6.71392C10.7785 5.03546 13.2213 5.03546 14.2647 6.71392L18.3332 13.2589C19.4374 15.0353 18.16 17.3334 16.0684 17.3334H7.93141C5.83983 17.3334 4.56243 15.0353 5.66665 13.2589L9.73515 6.71392ZM12.0001 9.33333C12.3683 9.33333 12.6667 9.63181 12.6667 10V12C12.6667 12.3682 12.3683 12.6667 12.0001 12.6667C11.6319 12.6667 11.3334 12.3682 11.3334 12V10C11.3334 9.63181 11.6319 9.33333 12.0001 9.33333ZM11.1667 14C11.1667 13.5398 11.5398 13.1667 12.0001 13.1667C12.4603 13.1667 12.8334 13.5398 12.8334 14C12.8334 14.4602 12.4603 14.8333 12.0001 14.8333C11.5398 14.8333 11.1667 14.4602 11.1667 14Z" fill="url(#paint3_linear_380_4024)"/>
</g>
<defs>
<filter id="filter0_i_380_4024" x="0" y="0" width="24.9" height="24.9" filterUnits="userSpaceOnUse" color-interpolation-filters="sRGB">
<feFlood flood-opacity="0" result="BackgroundImageFix"/>
<feBlend mode="normal" in="SourceGraphic" in2="BackgroundImageFix" result="shape"/>
<feColorMatrix in="SourceAlpha" type="matrix" values="0 0 0 0 0 0 0 0 0 0 0 0 0 0 0 0 0 0 127 0" result="hardAlpha"/>
<feOffset dx="0.9" dy="0.9"/>
<feGaussianBlur stdDeviation="0.6"/>
<feComposite in2="hardAlpha" operator="arithmetic" k2="-1" k3="1"/>
<feColorMatrix type="matrix" values="0 0 0 0 1 0 0 0 0 1 0 0 0 0 1 0 0 0 0.24 0"/>
<feBlend mode="normal" in2="shape" result="effect1_innerShadow_380_4024"/>
</filter>
<filter id="filter1_d_380_4024" x="3.92716" y="4.12174" width="16.1455" height="14.545" filterUnits="userSpaceOnUse" color-interpolation-filters="sRGB">
<feFlood flood-opacity="0" result="BackgroundImageFix"/>
<feColorMatrix in="SourceAlpha" type="matrix" values="0 0 0 0 0 0 0 0 0 0 0 0 0 0 0 0 0 0 127 0" result="hardAlpha"/>
<feOffset/>
<feGaussianBlur stdDeviation="0.666667"/>
<feComposite in2="hardAlpha" operator="out"/>
<feColorMatrix type="matrix" values="0 0 0 0 0.109804 0 0 0 0 0.109804 0 0 0 0 0.109804 0 0 0 0.1 0"/>
<feBlend mode="normal" in2="BackgroundImageFix" result="effect1_dropShadow_380_4024"/>
<feBlend mode="normal" in="SourceGraphic" in2="effect1_dropShadow_380_4024" result="shape"/>
</filter>
<linearGradient id="paint0_linear_380_4024" x1="12" y1="0" x2="12" y2="24" gradientUnits="userSpaceOnUse">
<stop stop-color="#E7000B"/>
<stop offset="1" stop-color="#FF6467"/>
</linearGradient>
<radialGradient id="paint1_radial_380_4024" cx="0" cy="0" r="1" gradientUnits="userSpaceOnUse" gradientTransform="translate(12 12) rotate(90) scale(12 12)">
<stop stop-color="white"/>
<stop offset="1" stop-color="white" stop-opacity="0"/>
</radialGradient>
<linearGradient id="paint2_linear_380_4024" x1="11.9999" y1="5.45508" x2="11.9999" y2="17.3334" gradientUnits="userSpaceOnUse">
<stop stop-color="white"/>
<stop offset="1" stop-color="white" stop-opacity="0.6"/>
</linearGradient>
<linearGradient id="paint3_linear_380_4024" x1="11.9999" y1="5.45508" x2="11.9999" y2="17.3334" gradientUnits="userSpaceOnUse">
<stop stop-color="white"/>
<stop offset="1" stop-color="white" stop-opacity="0.6"/>
</linearGradient>
</defs>
</svg>
