<svg width="24" height="24" viewBox="0 0 24 24" fill="none" xmlns="http://www.w3.org/2000/svg">
<g filter="url(#filter0_i_274_2248)">
<path fill-rule="evenodd" clip-rule="evenodd" d="M12 24C18.6274 24 24 18.6274 24 12C24 5.37258 18.6274 0 12 0C5.37257 0 0 5.37258 0 12C0 18.6274 5.37257 24 12 24Z" fill="url(#paint0_linear_274_2248)"/>
<path fill-rule="evenodd" clip-rule="evenodd" d="M12 24C18.6274 24 24 18.6274 24 12C24 5.37258 18.6274 0 12 0C5.37257 0 0 5.37258 0 12C0 18.6274 5.37257 24 12 24Z" fill="url(#paint1_radial_274_2248)" fill-opacity="0.1"/>
<g filter="url(#filter1_d_274_2248)">
<path fill-rule="evenodd" clip-rule="evenodd" d="M12 5.5C8.41015 5.5 5.5 8.41015 5.5 12C5.5 15.5899 8.41015 18.5 12 18.5C15.5899 18.5 18.5 15.5899 18.5 12C18.5 8.41015 15.5899 5.5 12 5.5ZM14.4531 10.7866C14.6804 10.5088 14.6394 10.0993 14.3616 9.87195C14.0838 9.64462 13.6743 9.68558 13.4469 9.96341L10.9767 12.9825L10.1846 12.1904C9.93078 11.9366 9.51922 11.9366 9.26538 12.1904C9.01154 12.4442 9.01154 12.8558 9.26538 13.1096L10.5654 14.4096C10.6952 14.5395 10.874 14.6084 11.0574 14.5992C11.2408 14.5901 11.4118 14.5038 11.5281 14.3616L14.4531 10.7866Z" fill="url(#paint2_linear_274_2248)" shape-rendering="crispEdges"/>
</g>
</g>
<defs>
<filter id="filter0_i_274_2248" x="0" y="0" width="24.9" height="24.9" filterUnits="userSpaceOnUse" color-interpolation-filters="sRGB">
<feFlood flood-opacity="0" result="BackgroundImageFix"/>
<feBlend mode="normal" in="SourceGraphic" in2="BackgroundImageFix" result="shape"/>
<feColorMatrix in="SourceAlpha" type="matrix" values="0 0 0 0 0 0 0 0 0 0 0 0 0 0 0 0 0 0 127 0" result="hardAlpha"/>
<feOffset dx="0.9" dy="0.9"/>
<feGaussianBlur stdDeviation="0.6"/>
<feComposite in2="hardAlpha" operator="arithmetic" k2="-1" k3="1"/>
<feColorMatrix type="matrix" values="0 0 0 0 1 0 0 0 0 1 0 0 0 0 1 0 0 0 0.24 0"/>
<feBlend mode="normal" in2="shape" result="effect1_innerShadow_274_2248"/>
</filter>
<filter id="filter1_d_274_2248" x="4.2" y="4.2" width="15.6" height="15.6" filterUnits="userSpaceOnUse" color-interpolation-filters="sRGB">
<feFlood flood-opacity="0" result="BackgroundImageFix"/>
<feColorMatrix in="SourceAlpha" type="matrix" values="0 0 0 0 0 0 0 0 0 0 0 0 0 0 0 0 0 0 127 0" result="hardAlpha"/>
<feOffset/>
<feGaussianBlur stdDeviation="0.65"/>
<feComposite in2="hardAlpha" operator="out"/>
<feColorMatrix type="matrix" values="0 0 0 0 0.109804 0 0 0 0 0.109804 0 0 0 0 0.109804 0 0 0 0.1 0"/>
<feBlend mode="normal" in2="BackgroundImageFix" result="effect1_dropShadow_274_2248"/>
<feBlend mode="normal" in="SourceGraphic" in2="effect1_dropShadow_274_2248" result="shape"/>
</filter>
<linearGradient id="paint0_linear_274_2248" x1="12" y1="0" x2="12" y2="24" gradientUnits="userSpaceOnUse">
<stop stop-color="#007A55"/>
<stop offset="1" stop-color="#00BC7D"/>
</linearGradient>
<radialGradient id="paint1_radial_274_2248" cx="0" cy="0" r="1" gradientUnits="userSpaceOnUse" gradientTransform="translate(12 12) rotate(90) scale(12 12)">
<stop stop-color="white"/>
<stop offset="1" stop-color="white" stop-opacity="0"/>
</radialGradient>
<linearGradient id="paint2_linear_274_2248" x1="12" y1="5.5" x2="12" y2="18.5" gradientUnits="userSpaceOnUse">
<stop stop-color="white"/>
<stop offset="1" stop-color="white" stop-opacity="0.6"/>
</linearGradient>
</defs>
</svg>
