<svg width="32" height="32" viewBox="0 0 32 32" fill="none" xmlns="http://www.w3.org/2000/svg">
<rect width="32" height="32" rx="8" fill="#F5F5F5"/>
<path fill-rule="evenodd" clip-rule="evenodd" d="M7.5 10.5556C7.5 8.72995 8.97995 7.25 10.8056 7.25H18.4444C19.7024 7.25 20.7222 8.2698 20.7222 9.52778V11.9722H21.6667C23.2315 11.9722 24.5 13.2407 24.5 14.8056V18.7908C24.0368 18.6033 23.5305 18.5 23 18.5C20.7909 18.5 19 20.2909 19 22.5C19 23.1276 19.1445 23.7214 19.4021 24.25H11.2778C9.19137 24.25 7.5 22.5586 7.5 20.4722V10.5556ZM18.8333 11.9722V9.52778C18.8333 9.313 18.6592 9.13889 18.4444 9.13889H10.8056C10.0232 9.13889 9.38889 9.77315 9.38889 10.5556C9.38889 11.338 10.0232 11.9722 10.8056 11.9722H18.8333ZM20.3681 17.5C20.3681 18.152 19.8395 18.6806 19.1875 18.6806C18.5355 18.6806 18.0069 18.152 18.0069 17.5C18.0069 16.848 18.5355 16.3194 19.1875 16.3194C19.8395 16.3194 20.3681 16.848 20.3681 17.5Z" fill="#737373"/>
<path fill-rule="evenodd" clip-rule="evenodd" d="M23 19.5C21.3431 19.5 20 20.8431 20 22.5C20 24.1569 21.3431 25.5 23 25.5C24.6569 25.5 26 24.1569 26 22.5C26 20.8431 24.6569 19.5 23 19.5ZM24.1322 21.94C24.2371 21.8117 24.2182 21.6227 24.09 21.5178C23.9617 21.4129 23.7727 21.4318 23.6678 21.56L22.5277 22.9535L22.1621 22.5879C22.045 22.4707 21.855 22.4707 21.7379 22.5879C21.6207 22.705 21.6207 22.895 21.7379 23.0121L22.3379 23.6121C22.3978 23.6721 22.4803 23.7039 22.5649 23.6996C22.6496 23.6954 22.7285 23.6556 22.7822 23.59L24.1322 21.94Z" fill="#05DF72"/>
</svg>
