<svg width="32" height="32" viewBox="0 0 32 32" fill="none" xmlns="http://www.w3.org/2000/svg">
<rect width="32" height="32" rx="8" fill="#F5F5F5"/>
<path d="M22.1619 19.3553C22.1619 18.8437 22.774 18.5804 23.1454 18.9323L25.6958 21.3484C25.9384 21.5782 25.9384 21.9646 25.6958 22.1944L23.1454 24.6106C22.774 24.9624 22.1619 24.6991 22.1619 24.1876V23.2723C21.0239 23.2903 20.3887 23.4031 19.9936 23.5829C19.5952 23.7642 19.4164 24.0239 19.1923 24.4609C19.0065 24.8233 18.4962 24.6551 18.5 24.2894C18.5142 22.9138 18.7329 21.8765 19.3921 21.197C20.0015 20.5689 20.92 20.3146 22.1619 20.2778V19.3553Z" fill="#D4D4D4"/>
<path fill-rule="evenodd" clip-rule="evenodd" d="M7.5 10.5556C7.5 8.72995 8.97995 7.25 10.8056 7.25H18.4444C19.7024 7.25 20.7222 8.2698 20.7222 9.52778V11.9722H21.6667C23.2315 11.9722 24.5 13.2407 24.5 14.8056V18.8377L23.833 18.206L23.7363 18.122C22.7217 17.2965 21.1621 18.0093 21.1621 19.3554C20.2075 19.4908 19.3388 19.8165 18.6748 20.5009C17.8483 21.3528 17.5795 22.5192 17.5156 23.749L17.5009 24.25H11.2778C9.19137 24.25 7.5 22.5586 7.5 20.4722V10.5556ZM18.8333 11.9722V9.52778C18.8333 9.313 18.6592 9.13889 18.4444 9.13889H10.8056C10.0232 9.13889 9.38889 9.77315 9.38889 10.5556C9.38889 11.338 10.0232 11.9722 10.8056 11.9722H18.8333ZM20.3681 17.5C20.3681 18.152 19.8395 18.6806 19.1875 18.6806C18.5355 18.6806 18.0069 18.152 18.0069 17.5C18.0069 16.848 18.5355 16.3194 19.1875 16.3194C19.8395 16.3194 20.3681 16.848 20.3681 17.5Z" fill="#737373"/>
</svg>
