<svg width="32" height="32" viewBox="0 0 32 32" fill="none" xmlns="http://www.w3.org/2000/svg">
<rect width="32" height="32" rx="8" fill="#F5F5F5"/>
<path fill-rule="evenodd" clip-rule="evenodd" d="M7.5 10.5556C7.5 8.72995 8.97995 7.25 10.8056 7.25H18.4444C19.7024 7.25 20.7222 8.2698 20.7222 9.52778V11.9722H21.6667C23.2315 11.9722 24.5 13.2407 24.5 14.8056V18.7908C24.0368 18.6033 23.5305 18.5 23 18.5C20.7909 18.5 19 20.2909 19 22.5C19 23.1276 19.1445 23.7214 19.4021 24.25H11.2778C9.19137 24.25 7.5 22.5586 7.5 20.4722V10.5556ZM18.8333 11.9722V9.52778C18.8333 9.313 18.6592 9.13889 18.4444 9.13889H10.8056C10.0232 9.13889 9.38889 9.77315 9.38889 10.5556C9.38889 11.338 10.0232 11.9722 10.8056 11.9722H18.8333ZM20.3681 17.5C20.3681 18.152 19.8395 18.6806 19.1875 18.6806C18.5355 18.6806 18.0069 18.152 18.0069 17.5C18.0069 16.848 18.5355 16.3194 19.1875 16.3194C19.8395 16.3194 20.3681 16.848 20.3681 17.5Z" fill="#737373"/>
<path d="M25.1429 22.5C25.1429 22.0629 25.0118 21.657 24.7871 21.3181L21.8181 24.2871C22.157 24.5118 22.5629 24.6429 23 24.6429C24.1835 24.6429 25.1429 23.6835 25.1429 22.5ZM20.8571 22.5C20.8571 22.9367 20.9878 23.3424 21.2121 23.6811L24.1811 20.7121C23.8424 20.4878 23.4367 20.3571 23 20.3571C21.8165 20.3571 20.8571 21.3165 20.8571 22.5ZM26 22.5C26 24.1569 24.6569 25.5 23 25.5C22.1717 25.5 21.4213 25.1635 20.8789 24.6211C20.3365 24.0787 20 23.3283 20 22.5C20 20.8431 21.3431 19.5 23 19.5C23.8283 19.5 24.5787 19.8365 25.1211 20.3789C25.6635 20.9213 26 21.6717 26 22.5Z" fill="#FF6467"/>
</svg>
