<svg width="40" height="40" viewBox="0 0 40 40" fill="none" xmlns="http://www.w3.org/2000/svg">
<g filter="url(#filter0_i_190_369)">
<path fill-rule="evenodd" clip-rule="evenodd" d="M20 40C31.0457 40 40 31.0457 40 20C40 8.95431 31.0457 0 20 0C8.95428 0 0 8.95431 0 20C0 31.0457 8.95428 40 20 40Z" fill="url(#paint0_linear_190_369)"/>
<path fill-rule="evenodd" clip-rule="evenodd" d="M20 40C31.0457 40 40 31.0457 40 20C40 8.95431 31.0457 0 20 0C8.95428 0 0 8.95431 0 20C0 31.0457 8.95428 40 20 40Z" fill="url(#paint1_radial_190_369)" fill-opacity="0.1"/>
<g filter="url(#filter1_d_190_369)">
<path fill-rule="evenodd" clip-rule="evenodd" d="M16.2251 11.1899C17.964 8.39244 22.0354 8.39244 23.7743 11.1899L30.5551 22.0982C32.3955 25.0588 30.2665 28.889 26.7805 28.889H13.2189C9.73288 28.889 7.60389 25.0587 9.44425 22.0982L16.2251 11.1899ZM20 15.5556C20.6136 15.5556 21.1111 16.053 21.1111 16.6667V20C21.1111 20.6136 20.6136 21.1111 20 21.1111C19.3863 21.1111 18.8889 20.6136 18.8889 20V16.6667C18.8889 16.053 19.3863 15.5556 20 15.5556ZM18.6111 23.3333C18.6111 22.5663 19.2329 21.9444 20 21.9444C20.767 21.9444 21.3889 22.5663 21.3889 23.3333C21.3889 24.1004 20.767 24.7222 20 24.7222C19.2329 24.7222 18.6111 24.1004 18.6111 23.3333Z" fill="url(#paint2_linear_190_369)" shape-rendering="crispEdges"/>
</g>
</g>
<defs>
<filter id="filter0_i_190_369" x="0" y="0" width="41.5" height="41.4999" filterUnits="userSpaceOnUse" color-interpolation-filters="sRGB">
<feFlood flood-opacity="0" result="BackgroundImageFix"/>
<feBlend mode="normal" in="SourceGraphic" in2="BackgroundImageFix" result="shape"/>
<feColorMatrix in="SourceAlpha" type="matrix" values="0 0 0 0 0 0 0 0 0 0 0 0 0 0 0 0 0 0 127 0" result="hardAlpha"/>
<feOffset dx="1.5" dy="1.5"/>
<feGaussianBlur stdDeviation="1"/>
<feComposite in2="hardAlpha" operator="arithmetic" k2="-1" k3="1"/>
<feColorMatrix type="matrix" values="0 0 0 0 1 0 0 0 0 1 0 0 0 0 1 0 0 0 0.24 0"/>
<feBlend mode="normal" in2="shape" result="effect1_innerShadow_190_369"/>
</filter>
<filter id="filter1_d_190_369" x="6.54511" y="6.86958" width="26.9092" height="24.2416" filterUnits="userSpaceOnUse" color-interpolation-filters="sRGB">
<feFlood flood-opacity="0" result="BackgroundImageFix"/>
<feColorMatrix in="SourceAlpha" type="matrix" values="0 0 0 0 0 0 0 0 0 0 0 0 0 0 0 0 0 0 127 0" result="hardAlpha"/>
<feOffset/>
<feGaussianBlur stdDeviation="1.11111"/>
<feComposite in2="hardAlpha" operator="out"/>
<feColorMatrix type="matrix" values="0 0 0 0 0.109804 0 0 0 0 0.109804 0 0 0 0 0.109804 0 0 0 0.1 0"/>
<feBlend mode="normal" in2="BackgroundImageFix" result="effect1_dropShadow_190_369"/>
<feBlend mode="normal" in="SourceGraphic" in2="effect1_dropShadow_190_369" result="shape"/>
</filter>
<linearGradient id="paint0_linear_190_369" x1="20" y1="0" x2="20" y2="40" gradientUnits="userSpaceOnUse">
<stop stop-color="#F0B100"/>
<stop offset="1" stop-color="#FFDF20"/>
</linearGradient>
<radialGradient id="paint1_radial_190_369" cx="0" cy="0" r="1" gradientUnits="userSpaceOnUse" gradientTransform="translate(20 20) rotate(90) scale(20 20)">
<stop stop-color="white"/>
<stop offset="1" stop-color="white" stop-opacity="0"/>
</radialGradient>
<linearGradient id="paint2_linear_190_369" x1="19.9997" y1="9.0918" x2="19.9997" y2="28.889" gradientUnits="userSpaceOnUse">
<stop stop-color="white"/>
<stop offset="1" stop-color="white" stop-opacity="0.6"/>
</linearGradient>
</defs>
</svg>
