<svg width="22" height="22" viewBox="0 0 22 22" fill="none" xmlns="http://www.w3.org/2000/svg">
<path d="M4.50514 5.38676C5.76367 4.12824 7.80414 4.12824 9.06267 5.38676C10.3212 6.64529 10.3212 8.68577 9.06267 9.94429C7.80414 11.2028 5.76367 11.2028 4.50514 9.94429C3.24662 8.68577 3.24662 6.64529 4.50514 5.38676Z" fill="url(#paint0_linear_436_781)"/>
<g filter="url(#filter0_d_436_781)">
<path d="M10.947 3.36865C12.75 3.36865 14.2813 4.53242 14.8402 6.15284C14.8816 6.27283 14.9909 6.35694 15.1169 6.36686C16.976 6.51335 18.4392 8.07491 18.4392 9.98046C18.4392 11.9828 16.8236 13.6059 14.8308 13.6059C14.8203 13.6059 14.8098 13.6051 14.7993 13.605C14.789 13.6052 14.7786 13.6059 14.7683 13.6059H6.45201C5.00384 13.6059 3.82983 12.4264 3.8298 10.9713V10.8958C3.82991 9.44084 5.00388 8.26118 6.45201 8.26118H6.82671C6.86277 8.26118 6.88999 8.22833 6.88403 8.1926C6.84695 7.97009 6.82648 7.74175 6.82648 7.5087C6.82648 5.22226 8.67138 3.36876 10.947 3.36865Z" fill="url(#paint1_linear_436_781)" fill-opacity="0.01" shape-rendering="crispEdges"/>
<path d="M5.1034 15.6193C5.1034 15.2867 5.37174 15.0171 5.70275 15.0171H16.641C16.972 15.0171 17.2404 15.2867 17.2404 15.6193C17.2404 15.9519 16.972 16.2215 16.641 16.2215H5.70275C5.37174 16.2215 5.1034 15.9519 5.1034 15.6193Z" fill="url(#paint2_linear_436_781)" fill-opacity="0.01" shape-rendering="crispEdges"/>
<path d="M7.2011 18.2352C7.2011 17.9026 7.46944 17.633 7.80046 17.633H15.5921C15.9231 17.633 16.1915 17.9026 16.1915 18.2352C16.1915 18.5678 15.9231 18.8374 15.5921 18.8374H7.80046C7.46944 18.8374 7.2011 18.5678 7.2011 18.2352Z" fill="url(#paint3_linear_436_781)" fill-opacity="0.01" shape-rendering="crispEdges"/>
</g>
<path d="M10.947 3.36865C12.75 3.36865 14.2813 4.53242 14.8402 6.15284C14.8816 6.27283 14.9909 6.35694 15.1169 6.36686C16.976 6.51335 18.4392 8.07491 18.4392 9.98046C18.4392 11.9828 16.8236 13.6059 14.8308 13.6059C14.8203 13.6059 14.8098 13.6051 14.7993 13.605C14.789 13.6052 14.7786 13.6059 14.7683 13.6059H6.45201C5.00384 13.6059 3.82983 12.4264 3.8298 10.9713V10.8958C3.82991 9.44084 5.00388 8.26118 6.45201 8.26118H6.82671C6.86277 8.26118 6.88999 8.22833 6.88403 8.1926C6.84695 7.97009 6.82648 7.74175 6.82648 7.5087C6.82648 5.22226 8.67138 3.36876 10.947 3.36865Z" fill="url(#paint4_linear_436_781)"/>
<path d="M5.1034 15.6193C5.1034 15.2867 5.37174 15.0171 5.70275 15.0171H16.641C16.972 15.0171 17.2404 15.2867 17.2404 15.6193C17.2404 15.9519 16.972 16.2215 16.641 16.2215H5.70275C5.37174 16.2215 5.1034 15.9519 5.1034 15.6193Z" fill="url(#paint5_linear_436_781)"/>
<path d="M7.2011 18.2352C7.2011 17.9026 7.46944 17.633 7.80046 17.633H15.5921C15.9231 17.633 16.1915 17.9026 16.1915 18.2352C16.1915 18.5678 15.9231 18.8374 15.5921 18.8374H7.80046C7.46944 18.8374 7.2011 18.5678 7.2011 18.2352Z" fill="url(#paint6_linear_436_781)"/>
<defs>
<filter id="filter0_d_436_781" x="1.92008" y="1.45893" width="18.4288" height="19.2882" filterUnits="userSpaceOnUse" color-interpolation-filters="sRGB">
<feFlood flood-opacity="0" result="BackgroundImageFix"/>
<feColorMatrix in="SourceAlpha" type="matrix" values="0 0 0 0 0 0 0 0 0 0 0 0 0 0 0 0 0 0 127 0" result="hardAlpha"/>
<feOffset/>
<feGaussianBlur stdDeviation="0.954861"/>
<feComposite in2="hardAlpha" operator="out"/>
<feColorMatrix type="matrix" values="0 0 0 0 0.109804 0 0 0 0 0.109804 0 0 0 0 0.109804 0 0 0 0.1 0"/>
<feBlend mode="normal" in2="BackgroundImageFix" result="effect1_dropShadow_436_781"/>
<feBlend mode="normal" in="SourceGraphic" in2="effect1_dropShadow_436_781" result="shape"/>
</filter>
<linearGradient id="paint0_linear_436_781" x1="6.78391" y1="4.44287" x2="6.78391" y2="10.8882" gradientUnits="userSpaceOnUse">
<stop stop-color="#FFD230"/>
<stop offset="1" stop-color="#FE9A00"/>
</linearGradient>
<linearGradient id="paint1_linear_436_781" x1="4.12521" y1="3.36865" x2="18.7346" y2="19.2671" gradientUnits="userSpaceOnUse">
<stop offset="0.33" stop-color="white"/>
<stop offset="1" stop-color="white" stop-opacity="0.25"/>
</linearGradient>
<linearGradient id="paint2_linear_436_781" x1="4.12521" y1="3.36865" x2="18.7346" y2="19.2671" gradientUnits="userSpaceOnUse">
<stop offset="0.33" stop-color="white"/>
<stop offset="1" stop-color="white" stop-opacity="0.25"/>
</linearGradient>
<linearGradient id="paint3_linear_436_781" x1="4.12521" y1="3.36865" x2="18.7346" y2="19.2671" gradientUnits="userSpaceOnUse">
<stop offset="0.33" stop-color="white"/>
<stop offset="1" stop-color="white" stop-opacity="0.25"/>
</linearGradient>
<linearGradient id="paint4_linear_436_781" x1="4.12521" y1="3.36865" x2="18.7346" y2="19.2671" gradientUnits="userSpaceOnUse">
<stop offset="0.33" stop-color="white"/>
<stop offset="1" stop-color="white" stop-opacity="0.25"/>
</linearGradient>
<linearGradient id="paint5_linear_436_781" x1="4.12521" y1="3.36865" x2="18.7346" y2="19.2671" gradientUnits="userSpaceOnUse">
<stop offset="0.33" stop-color="white"/>
<stop offset="1" stop-color="white" stop-opacity="0.25"/>
</linearGradient>
<linearGradient id="paint6_linear_436_781" x1="4.12521" y1="3.36865" x2="18.7346" y2="19.2671" gradientUnits="userSpaceOnUse">
<stop offset="0.33" stop-color="white"/>
<stop offset="1" stop-color="white" stop-opacity="0.25"/>
</linearGradient>
</defs>
</svg>
