<svg width="22" height="22" viewBox="0 0 22 22" fill="none" xmlns="http://www.w3.org/2000/svg">
<g filter="url(#filter0_d_436_780)">
<path d="M11.7439 18.1564C11.7439 18.5224 11.4472 18.8192 11.0812 18.8192C10.7151 18.8192 10.4184 18.5224 10.4184 18.1564V16.9966C10.4184 16.6306 10.7151 16.3339 11.0812 16.3339C11.4472 16.3339 11.7439 16.6306 11.7439 16.9966V18.1564Z" fill="url(#paint0_linear_436_780)" fill-opacity="0.01" shape-rendering="crispEdges"/>
<path d="M7.12151 15.9725C7.38033 15.7137 7.38033 15.294 7.12151 15.0352C6.8627 14.7764 6.44307 14.7764 6.18426 15.0352L5.36416 15.8553C5.10535 16.1141 5.10535 16.5337 5.36416 16.7926C5.62298 17.0514 6.0426 17.0514 6.30142 16.7926L7.12151 15.9725Z" fill="url(#paint1_linear_436_780)" fill-opacity="0.01" shape-rendering="crispEdges"/>
<path d="M14.6157 11.032C14.6157 12.9841 13.0332 14.5666 11.0811 14.5666C9.12897 14.5666 7.54647 12.9841 7.54647 11.032C7.54647 9.07988 9.12897 7.49739 11.0811 7.49739C13.0332 7.49739 14.6157 9.07988 14.6157 11.032Z" fill="url(#paint2_linear_436_780)" fill-opacity="0.01" shape-rendering="crispEdges"/>
<path d="M11.7438 5.12258C11.7438 5.4886 11.4471 5.78531 11.0811 5.78531C10.7151 5.78532 10.4183 5.4886 10.4183 5.12258V3.96279C10.4183 3.59677 10.7151 3.30005 11.0811 3.30005C11.4471 3.30005 11.7438 3.59677 11.7438 3.96279V5.12258Z" fill="url(#paint3_linear_436_780)" fill-opacity="0.01" shape-rendering="crispEdges"/>
<path d="M5.26003 10.3693C5.62605 10.3693 5.92277 10.666 5.92277 11.032C5.92277 11.398 5.62605 11.6947 5.26003 11.6947H4.10024C3.73422 11.6947 3.4375 11.398 3.4375 11.032C3.4375 10.666 3.73422 10.3693 4.10024 10.3693H5.26003Z" fill="url(#paint4_linear_436_780)" fill-opacity="0.01" shape-rendering="crispEdges"/>
<path d="M7.12143 6.13519C7.38024 6.394 7.38024 6.81362 7.12143 7.07244C6.86261 7.33125 6.44299 7.33125 6.18417 7.07244L5.36408 6.25234C5.10526 5.99353 5.10526 5.57391 5.36408 5.31509C5.62289 5.05628 6.04251 5.05628 6.30133 5.31509L7.12143 6.13519Z" fill="url(#paint5_linear_436_780)" fill-opacity="0.01" shape-rendering="crispEdges"/>
<path d="M15.0843 6.13519C14.8255 6.394 14.8255 6.81362 15.0843 7.07244C15.3431 7.33125 15.7627 7.33125 16.0216 7.07244L16.8416 6.25234C17.1005 5.99353 17.1005 5.57391 16.8416 5.31509C16.5828 5.05628 16.1632 5.05628 15.9044 5.31509L15.0843 6.13519Z" fill="url(#paint6_linear_436_780)" fill-opacity="0.01" shape-rendering="crispEdges"/>
<path d="M16.88 10.3693C16.514 10.3693 16.2173 10.666 16.2173 11.032C16.2173 11.398 16.514 11.6947 16.88 11.6947H18.0398C18.4058 11.6947 18.7026 11.398 18.7026 11.032C18.7026 10.666 18.4058 10.3693 18.0398 10.3693H16.88Z" fill="url(#paint7_linear_436_780)" fill-opacity="0.01" shape-rendering="crispEdges"/>
</g>
<path d="M11.7439 18.1564C11.7439 18.5224 11.4472 18.8192 11.0812 18.8192C10.7151 18.8192 10.4184 18.5224 10.4184 18.1564V16.9966C10.4184 16.6306 10.7151 16.3339 11.0812 16.3339C11.4472 16.3339 11.7439 16.6306 11.7439 16.9966V18.1564Z" fill="url(#paint8_linear_436_780)"/>
<path d="M7.12151 15.9725C7.38033 15.7137 7.38033 15.294 7.12151 15.0352C6.8627 14.7764 6.44307 14.7764 6.18426 15.0352L5.36416 15.8553C5.10535 16.1141 5.10535 16.5337 5.36416 16.7926C5.62298 17.0514 6.0426 17.0514 6.30142 16.7926L7.12151 15.9725Z" fill="url(#paint9_linear_436_780)"/>
<path d="M14.6157 11.032C14.6157 12.9841 13.0332 14.5666 11.0811 14.5666C9.12897 14.5666 7.54647 12.9841 7.54647 11.032C7.54647 9.07988 9.12897 7.49739 11.0811 7.49739C13.0332 7.49739 14.6157 9.07988 14.6157 11.032Z" fill="url(#paint10_linear_436_780)"/>
<path d="M11.7438 5.12258C11.7438 5.4886 11.4471 5.78531 11.0811 5.78531C10.7151 5.78532 10.4183 5.4886 10.4183 5.12258V3.96279C10.4183 3.59677 10.7151 3.30005 11.0811 3.30005C11.4471 3.30005 11.7438 3.59677 11.7438 3.96279V5.12258Z" fill="url(#paint11_linear_436_780)"/>
<path d="M5.26003 10.3693C5.62605 10.3693 5.92277 10.666 5.92277 11.032C5.92277 11.398 5.62605 11.6947 5.26003 11.6947H4.10024C3.73422 11.6947 3.4375 11.398 3.4375 11.032C3.4375 10.666 3.73422 10.3693 4.10024 10.3693H5.26003Z" fill="url(#paint12_linear_436_780)"/>
<path d="M7.12143 6.13519C7.38024 6.394 7.38024 6.81362 7.12143 7.07244C6.86261 7.33125 6.44299 7.33125 6.18417 7.07244L5.36408 6.25234C5.10526 5.99353 5.10526 5.57391 5.36408 5.31509C5.62289 5.05628 6.04251 5.05628 6.30133 5.31509L7.12143 6.13519Z" fill="url(#paint13_linear_436_780)"/>
<path d="M15.0843 6.13519C14.8255 6.394 14.8255 6.81362 15.0843 7.07244C15.3431 7.33125 15.7627 7.33125 16.0216 7.07244L16.8416 6.25234C17.1005 5.99353 17.1005 5.57391 16.8416 5.31509C16.5828 5.05628 16.1632 5.05628 15.9044 5.31509L15.0843 6.13519Z" fill="url(#paint14_linear_436_780)"/>
<path d="M16.88 10.3693C16.514 10.3693 16.2173 10.666 16.2173 11.032C16.2173 11.398 16.514 11.6947 16.88 11.6947H18.0398C18.4058 11.6947 18.7026 11.398 18.7026 11.032C18.7026 10.666 18.4058 10.3693 18.0398 10.3693H16.88Z" fill="url(#paint15_linear_436_780)"/>
<g filter="url(#filter1_d_436_780)">
<path d="M13.2993 10.7903C14.721 10.7903 15.9285 11.7079 16.3691 12.9857C16.4018 13.0803 16.488 13.1466 16.5873 13.1544C18.0533 13.2699 19.207 14.5013 19.207 16.0038C19.207 17.5827 17.9331 18.8626 16.3617 18.8626C16.3534 18.8626 16.3451 18.8619 16.3369 18.8618C16.3287 18.862 16.3206 18.8626 16.3124 18.8626H9.75489C8.61297 18.8626 7.68725 17.9325 7.68723 16.7851V16.7256C7.68731 15.5783 8.61301 14.6481 9.75489 14.6481H10.0503C10.0788 14.6481 10.1002 14.6222 10.0955 14.5941C10.0663 14.4186 10.0502 14.2386 10.0502 14.0548C10.0502 12.2519 11.5049 10.7904 13.2993 10.7903Z" fill="url(#paint16_linear_436_780)" fill-opacity="0.01" shape-rendering="crispEdges"/>
</g>
<path d="M13.2993 10.7903C14.721 10.7903 15.9285 11.7079 16.3691 12.9857C16.4018 13.0803 16.488 13.1466 16.5873 13.1544C18.0533 13.2699 19.207 14.5013 19.207 16.0038C19.207 17.5827 17.9331 18.8626 16.3617 18.8626C16.3534 18.8626 16.3451 18.8619 16.3369 18.8618C16.3287 18.862 16.3206 18.8626 16.3124 18.8626H9.75489C8.61297 18.8626 7.68725 17.9325 7.68723 16.7851V16.7256C7.68731 15.5783 8.61301 14.6481 9.75489 14.6481H10.0503C10.0788 14.6481 10.1002 14.6222 10.0955 14.5941C10.0663 14.4186 10.0502 14.2386 10.0502 14.0548C10.0502 12.2519 11.5049 10.7904 13.2993 10.7903Z" fill="url(#paint17_linear_436_780)"/>
<defs>
<filter id="filter0_d_436_780" x="1.93165" y="1.7942" width="18.2768" height="18.5308" filterUnits="userSpaceOnUse" color-interpolation-filters="sRGB">
<feFlood flood-opacity="0" result="BackgroundImageFix"/>
<feColorMatrix in="SourceAlpha" type="matrix" values="0 0 0 0 0 0 0 0 0 0 0 0 0 0 0 0 0 0 127 0" result="hardAlpha"/>
<feOffset/>
<feGaussianBlur stdDeviation="0.752927"/>
<feComposite in2="hardAlpha" operator="out"/>
<feColorMatrix type="matrix" values="0 0 0 0 0.109804 0 0 0 0 0.109804 0 0 0 0 0.109804 0 0 0 0.1 0"/>
<feBlend mode="normal" in2="BackgroundImageFix" result="effect1_dropShadow_436_780"/>
<feBlend mode="normal" in="SourceGraphic" in2="effect1_dropShadow_436_780" result="shape"/>
</filter>
<filter id="filter1_d_436_780" x="6.18137" y="9.28443" width="14.5315" height="11.084" filterUnits="userSpaceOnUse" color-interpolation-filters="sRGB">
<feFlood flood-opacity="0" result="BackgroundImageFix"/>
<feColorMatrix in="SourceAlpha" type="matrix" values="0 0 0 0 0 0 0 0 0 0 0 0 0 0 0 0 0 0 127 0" result="hardAlpha"/>
<feOffset/>
<feGaussianBlur stdDeviation="0.752927"/>
<feComposite in2="hardAlpha" operator="out"/>
<feColorMatrix type="matrix" values="0 0 0 0 0.109804 0 0 0 0 0.109804 0 0 0 0 0.109804 0 0 0 0.1 0"/>
<feBlend mode="normal" in2="BackgroundImageFix" result="effect1_dropShadow_436_780"/>
<feBlend mode="normal" in="SourceGraphic" in2="effect1_dropShadow_436_780" result="shape"/>
</filter>
<linearGradient id="paint0_linear_436_780" x1="11.07" y1="3.30005" x2="11.07" y2="18.8192" gradientUnits="userSpaceOnUse">
<stop stop-color="#FFD230"/>
<stop offset="1" stop-color="#FE9A00"/>
</linearGradient>
<linearGradient id="paint1_linear_436_780" x1="11.07" y1="3.30005" x2="11.07" y2="18.8192" gradientUnits="userSpaceOnUse">
<stop stop-color="#FFD230"/>
<stop offset="1" stop-color="#FE9A00"/>
</linearGradient>
<linearGradient id="paint2_linear_436_780" x1="11.07" y1="3.30005" x2="11.07" y2="18.8192" gradientUnits="userSpaceOnUse">
<stop stop-color="#FFD230"/>
<stop offset="1" stop-color="#FE9A00"/>
</linearGradient>
<linearGradient id="paint3_linear_436_780" x1="11.07" y1="3.30005" x2="11.07" y2="18.8192" gradientUnits="userSpaceOnUse">
<stop stop-color="#FFD230"/>
<stop offset="1" stop-color="#FE9A00"/>
</linearGradient>
<linearGradient id="paint4_linear_436_780" x1="11.07" y1="3.30005" x2="11.07" y2="18.8192" gradientUnits="userSpaceOnUse">
<stop stop-color="#FFD230"/>
<stop offset="1" stop-color="#FE9A00"/>
</linearGradient>
<linearGradient id="paint5_linear_436_780" x1="11.07" y1="3.30005" x2="11.07" y2="18.8192" gradientUnits="userSpaceOnUse">
<stop stop-color="#FFD230"/>
<stop offset="1" stop-color="#FE9A00"/>
</linearGradient>
<linearGradient id="paint6_linear_436_780" x1="11.07" y1="3.30005" x2="11.07" y2="18.8192" gradientUnits="userSpaceOnUse">
<stop stop-color="#FFD230"/>
<stop offset="1" stop-color="#FE9A00"/>
</linearGradient>
<linearGradient id="paint7_linear_436_780" x1="11.07" y1="3.30005" x2="11.07" y2="18.8192" gradientUnits="userSpaceOnUse">
<stop stop-color="#FFD230"/>
<stop offset="1" stop-color="#FE9A00"/>
</linearGradient>
<linearGradient id="paint8_linear_436_780" x1="11.07" y1="3.30005" x2="11.07" y2="18.8192" gradientUnits="userSpaceOnUse">
<stop stop-color="#FFD230"/>
<stop offset="1" stop-color="#FE9A00"/>
</linearGradient>
<linearGradient id="paint9_linear_436_780" x1="11.07" y1="3.30005" x2="11.07" y2="18.8192" gradientUnits="userSpaceOnUse">
<stop stop-color="#FFD230"/>
<stop offset="1" stop-color="#FE9A00"/>
</linearGradient>
<linearGradient id="paint10_linear_436_780" x1="11.07" y1="3.30005" x2="11.07" y2="18.8192" gradientUnits="userSpaceOnUse">
<stop stop-color="#FFD230"/>
<stop offset="1" stop-color="#FE9A00"/>
</linearGradient>
<linearGradient id="paint11_linear_436_780" x1="11.07" y1="3.30005" x2="11.07" y2="18.8192" gradientUnits="userSpaceOnUse">
<stop stop-color="#FFD230"/>
<stop offset="1" stop-color="#FE9A00"/>
</linearGradient>
<linearGradient id="paint12_linear_436_780" x1="11.07" y1="3.30005" x2="11.07" y2="18.8192" gradientUnits="userSpaceOnUse">
<stop stop-color="#FFD230"/>
<stop offset="1" stop-color="#FE9A00"/>
</linearGradient>
<linearGradient id="paint13_linear_436_780" x1="11.07" y1="3.30005" x2="11.07" y2="18.8192" gradientUnits="userSpaceOnUse">
<stop stop-color="#FFD230"/>
<stop offset="1" stop-color="#FE9A00"/>
</linearGradient>
<linearGradient id="paint14_linear_436_780" x1="11.07" y1="3.30005" x2="11.07" y2="18.8192" gradientUnits="userSpaceOnUse">
<stop stop-color="#FFD230"/>
<stop offset="1" stop-color="#FE9A00"/>
</linearGradient>
<linearGradient id="paint15_linear_436_780" x1="11.07" y1="3.30005" x2="11.07" y2="18.8192" gradientUnits="userSpaceOnUse">
<stop stop-color="#FFD230"/>
<stop offset="1" stop-color="#FE9A00"/>
</linearGradient>
<linearGradient id="paint16_linear_436_780" x1="7.68723" y1="10.5633" x2="20.3987" y2="19.8699" gradientUnits="userSpaceOnUse">
<stop offset="0.451801" stop-color="white"/>
<stop offset="1" stop-color="white" stop-opacity="0.25"/>
</linearGradient>
<linearGradient id="paint17_linear_436_780" x1="7.68723" y1="10.5633" x2="20.3987" y2="19.8699" gradientUnits="userSpaceOnUse">
<stop offset="0.451801" stop-color="white"/>
<stop offset="1" stop-color="white" stop-opacity="0.25"/>
</linearGradient>
</defs>
</svg>
