<svg width="22" height="22" viewBox="0 0 22 22" fill="none" xmlns="http://www.w3.org/2000/svg">
<path d="M4.72498 4.56206C5.9835 3.30353 8.02398 3.30353 9.2825 4.56206C10.541 5.82058 10.541 7.86106 9.2825 9.11958C8.02398 10.3781 5.9835 10.3781 4.72498 9.11958C3.46645 7.86106 3.46645 5.82058 4.72498 4.56206Z" fill="url(#paint0_linear_436_779)"/>
<g filter="url(#filter0_d_436_779)">
<path d="M11.167 2.54395C12.97 2.54395 14.5013 3.70771 15.0602 5.32813C15.1016 5.44812 15.2109 5.53223 15.3369 5.54216C17.196 5.68864 18.6592 7.2502 18.6592 9.15575C18.6592 11.1581 17.0436 12.7812 15.0508 12.7812C15.0403 12.7812 15.0298 12.7804 15.0193 12.7803C15.009 12.7805 14.9986 12.7812 14.9883 12.7812H6.67201C5.22384 12.7812 4.04983 11.6016 4.0498 10.1466V10.0711C4.04991 8.61614 5.22389 7.43647 6.67201 7.43647H7.04671C7.08277 7.43647 7.10999 7.40362 7.10403 7.36789C7.06695 7.14538 7.04648 6.91704 7.04648 6.68399C7.04648 4.39756 8.89138 2.54405 11.167 2.54395Z" fill="url(#paint1_linear_436_779)" fill-opacity="0.01" shape-rendering="crispEdges"/>
</g>
<path d="M11.167 2.54395C12.97 2.54395 14.5013 3.70771 15.0602 5.32813C15.1016 5.44812 15.2109 5.53223 15.3369 5.54216C17.196 5.68864 18.6592 7.2502 18.6592 9.15575C18.6592 11.1581 17.0436 12.7812 15.0508 12.7812C15.0403 12.7812 15.0298 12.7804 15.0193 12.7803C15.009 12.7805 14.9986 12.7812 14.9883 12.7812H6.67201C5.22384 12.7812 4.04983 11.6016 4.0498 10.1466V10.0711C4.04991 8.61614 5.22389 7.43647 6.67201 7.43647H7.04671C7.08277 7.43647 7.10999 7.40362 7.10403 7.36789C7.06695 7.14538 7.04648 6.91704 7.04648 6.68399C7.04648 4.39756 8.89138 2.54405 11.167 2.54395Z" fill="url(#paint2_linear_436_779)"/>
<path d="M14.1363 17.4445C13.828 17.2665 13.7224 16.8724 13.9004 16.5641L14.9746 14.7035C15.1526 14.3952 15.5468 14.2896 15.8551 14.4676C16.1633 14.6455 16.269 15.0397 16.091 15.348L15.0168 17.2086C14.8388 17.5169 14.4446 17.6225 14.1363 17.4445Z" fill="url(#paint3_linear_436_779)"/>
<path d="M6.40195 17.4445C6.09367 17.2665 5.98805 16.8724 6.16603 16.5641L7.24025 14.7035C7.41823 14.3952 7.81242 14.2896 8.1207 14.4676C8.42897 14.6455 8.5346 15.0397 8.35661 15.348L7.28239 17.2086C7.10441 17.5169 6.71022 17.6225 6.40195 17.4445Z" fill="url(#paint4_linear_436_779)"/>
<path d="M8.98007 20.5367C8.6718 20.3587 8.56618 19.9645 8.74416 19.6562L9.06642 19.0981C9.24441 18.7898 9.6386 18.6842 9.94687 18.8621C10.2551 19.0401 10.3608 19.4343 10.1828 19.7426L9.86052 20.3008C9.68254 20.609 9.28835 20.7147 8.98007 20.5367Z" fill="url(#paint5_linear_436_779)"/>
<path d="M10.2691 18.3039C9.96086 18.1259 9.85524 17.7317 10.0332 17.4235L11.1074 15.5629C11.2854 15.2546 11.6796 15.149 11.9879 15.3269C12.2962 15.5049 12.4018 15.8991 12.2238 16.2074L11.1496 18.068C10.9716 18.3763 10.5774 18.4819 10.2691 18.3039Z" fill="url(#paint6_linear_436_779)"/>
<defs>
<filter id="filter0_d_436_779" x="2.14008" y="0.634223" width="18.4288" height="14.0567" filterUnits="userSpaceOnUse" color-interpolation-filters="sRGB">
<feFlood flood-opacity="0" result="BackgroundImageFix"/>
<feColorMatrix in="SourceAlpha" type="matrix" values="0 0 0 0 0 0 0 0 0 0 0 0 0 0 0 0 0 0 127 0" result="hardAlpha"/>
<feOffset/>
<feGaussianBlur stdDeviation="0.954861"/>
<feComposite in2="hardAlpha" operator="out"/>
<feColorMatrix type="matrix" values="0 0 0 0 0.109804 0 0 0 0 0.109804 0 0 0 0 0.109804 0 0 0 0.1 0"/>
<feBlend mode="normal" in2="BackgroundImageFix" result="effect1_dropShadow_436_779"/>
<feBlend mode="normal" in="SourceGraphic" in2="effect1_dropShadow_436_779" result="shape"/>
</filter>
<linearGradient id="paint0_linear_436_779" x1="7.00374" y1="3.61816" x2="7.00374" y2="10.0635" gradientUnits="userSpaceOnUse">
<stop stop-color="#FFD230"/>
<stop offset="1" stop-color="#FE9A00"/>
</linearGradient>
<linearGradient id="paint1_linear_436_779" x1="4.34521" y1="2.54395" x2="18.9546" y2="18.4424" gradientUnits="userSpaceOnUse">
<stop offset="0.348494" stop-color="white"/>
<stop offset="1" stop-color="white" stop-opacity="0.25"/>
</linearGradient>
<linearGradient id="paint2_linear_436_779" x1="4.34521" y1="2.54395" x2="18.9546" y2="18.4424" gradientUnits="userSpaceOnUse">
<stop offset="0.348494" stop-color="white"/>
<stop offset="1" stop-color="white" stop-opacity="0.25"/>
</linearGradient>
<linearGradient id="paint3_linear_436_779" x1="7.56267" y1="10.4501" x2="18.8137" y2="19.4221" gradientUnits="userSpaceOnUse">
<stop offset="0.348494" stop-color="white"/>
<stop offset="1" stop-color="white" stop-opacity="0.25"/>
</linearGradient>
<linearGradient id="paint4_linear_436_779" x1="7.56267" y1="10.4501" x2="18.8137" y2="19.4221" gradientUnits="userSpaceOnUse">
<stop offset="0.348494" stop-color="white"/>
<stop offset="1" stop-color="white" stop-opacity="0.25"/>
</linearGradient>
<linearGradient id="paint5_linear_436_779" x1="7.56267" y1="10.4501" x2="18.8137" y2="19.4221" gradientUnits="userSpaceOnUse">
<stop offset="0.348494" stop-color="white"/>
<stop offset="1" stop-color="white" stop-opacity="0.25"/>
</linearGradient>
<linearGradient id="paint6_linear_436_779" x1="7.56267" y1="10.4501" x2="18.8137" y2="19.4221" gradientUnits="userSpaceOnUse">
<stop offset="0.348494" stop-color="white"/>
<stop offset="1" stop-color="white" stop-opacity="0.25"/>
</linearGradient>
</defs>
</svg>
