<svg width="22" height="23" viewBox="0 0 22 23" fill="none" xmlns="http://www.w3.org/2000/svg">
<g filter="url(#filter0_d_436_740)">
<path fill-rule="evenodd" clip-rule="evenodd" d="M13.5294 13.5095H10.4836L9.22894 16.0189C9.18688 16.103 9.19137 16.2029 9.24082 16.2829C9.29026 16.363 9.37761 16.4117 9.47167 16.4117H10.481L10.0225 18.2455C9.9934 18.362 10.0443 18.4839 10.1478 18.545C10.2512 18.6061 10.3825 18.5919 10.4705 18.5102L14.2698 14.9822C14.3516 14.9063 14.3785 14.788 14.3377 14.6842C14.297 14.5803 14.1967 14.512 14.0851 14.512H12.9362L13.5037 13.5661C13.5145 13.5481 13.5231 13.5291 13.5294 13.5095Z" fill="url(#paint0_linear_436_740)" fill-opacity="0.01" shape-rendering="crispEdges"/>
</g>
<path fill-rule="evenodd" clip-rule="evenodd" d="M13.5294 13.5095H10.4836L9.22894 16.0189C9.18688 16.103 9.19137 16.2029 9.24082 16.2829C9.29026 16.363 9.37761 16.4117 9.47167 16.4117H10.481L10.0225 18.2455C9.9934 18.362 10.0443 18.4839 10.1478 18.545C10.2512 18.6061 10.3825 18.5919 10.4705 18.5102L14.2698 14.9822C14.3516 14.9063 14.3785 14.788 14.3377 14.6842C14.297 14.5803 14.1967 14.512 14.0851 14.512H12.9362L13.5037 13.5661C13.5145 13.5481 13.5231 13.5291 13.5294 13.5095Z" fill="url(#paint1_linear_436_740)"/>
<g filter="url(#filter1_d_436_740)">
<path d="M11.1604 3.27222C12.9718 3.27222 14.5104 4.43598 15.0719 6.05639C15.1135 6.17638 15.2233 6.26049 15.3499 6.27042C17.2179 6.4169 18.6879 7.97845 18.6879 9.88399C18.6879 11.8863 17.0648 13.5095 15.0625 13.5095C15.0519 13.5095 15.0414 13.5086 15.0308 13.5085C15.0205 13.5087 15.0101 13.5095 14.9997 13.5095H6.64409C5.18906 13.5095 4.00951 12.3299 4.00948 10.8749V10.7993C4.00959 9.34438 5.18911 8.16472 6.64409 8.16472H7.02056C7.05679 8.16472 7.08413 8.13188 7.07815 8.09614C7.0409 7.87363 7.02032 7.6453 7.02032 7.41225C7.02033 5.12582 8.87395 3.27232 11.1604 3.27222Z" fill="url(#paint2_linear_436_740)" fill-opacity="0.01" shape-rendering="crispEdges"/>
<path d="M5.54578 17.9424C5.23751 17.7645 5.13189 17.3703 5.30987 17.062L6.38409 15.2014C6.56207 14.8931 6.95626 14.7875 7.26453 14.9655C7.57281 15.1435 7.67843 15.5376 7.50045 15.8459L6.42623 17.7065C6.24825 18.0148 5.85406 18.1204 5.54578 17.9424Z" fill="url(#paint3_linear_436_740)" fill-opacity="0.01" shape-rendering="crispEdges"/>
<path d="M4.17238 15.165C3.8641 14.987 3.75848 14.5928 3.93646 14.2845L5.01068 12.4239C5.18867 12.1157 5.58285 12.01 5.89113 12.188C6.1994 12.366 6.30503 12.7602 6.12704 13.0685L5.05283 14.9291C4.87484 15.2374 4.48065 15.343 4.17238 15.165Z" fill="url(#paint4_linear_436_740)" fill-opacity="0.01" shape-rendering="crispEdges"/>
<path d="M14.9146 19.1165C14.6063 18.9385 14.5007 18.5444 14.6787 18.2361L15.0009 17.6779C15.1789 17.3696 15.5731 17.264 15.8814 17.442C16.1896 17.62 16.2953 18.0142 16.1173 18.3224L15.795 18.8806C15.617 19.1889 15.2228 19.2945 14.9146 19.1165Z" fill="url(#paint5_linear_436_740)" fill-opacity="0.01" shape-rendering="crispEdges"/>
<path d="M16.2036 16.8837C15.8954 16.7058 15.7897 16.3116 15.9677 16.0033L17.0419 14.1427C17.2199 13.8344 17.6141 13.7288 17.9224 13.9068C18.2307 14.0848 18.3363 14.479 18.1583 14.7872L17.0841 16.6478C16.9061 16.9561 16.5119 17.0617 16.2036 16.8837Z" fill="url(#paint6_linear_436_740)" fill-opacity="0.01" shape-rendering="crispEdges"/>
</g>
<path d="M11.1604 3.27222C12.9718 3.27222 14.5104 4.43598 15.0719 6.05639C15.1135 6.17638 15.2233 6.26049 15.3499 6.27042C17.2179 6.4169 18.6879 7.97845 18.6879 9.88399C18.6879 11.8863 17.0648 13.5095 15.0625 13.5095C15.0519 13.5095 15.0414 13.5086 15.0308 13.5085C15.0205 13.5087 15.0101 13.5095 14.9997 13.5095H6.64409C5.18906 13.5095 4.00951 12.3299 4.00948 10.8749V10.7993C4.00959 9.34438 5.18911 8.16472 6.64409 8.16472H7.02056C7.05679 8.16472 7.08413 8.13188 7.07815 8.09614C7.0409 7.87363 7.02032 7.6453 7.02032 7.41225C7.02033 5.12582 8.87395 3.27232 11.1604 3.27222Z" fill="url(#paint7_linear_436_740)"/>
<path d="M5.54578 17.9424C5.23751 17.7645 5.13189 17.3703 5.30987 17.062L6.38409 15.2014C6.56207 14.8931 6.95626 14.7875 7.26453 14.9655C7.57281 15.1435 7.67843 15.5376 7.50045 15.8459L6.42623 17.7065C6.24825 18.0148 5.85406 18.1204 5.54578 17.9424Z" fill="url(#paint8_linear_436_740)"/>
<path d="M4.17238 15.165C3.8641 14.987 3.75848 14.5928 3.93646 14.2845L5.01068 12.4239C5.18867 12.1157 5.58285 12.01 5.89113 12.188C6.1994 12.366 6.30503 12.7602 6.12704 13.0685L5.05283 14.9291C4.87484 15.2374 4.48065 15.343 4.17238 15.165Z" fill="url(#paint9_linear_436_740)"/>
<path d="M14.9146 19.1165C14.6063 18.9385 14.5007 18.5444 14.6787 18.2361L15.0009 17.6779C15.1789 17.3696 15.5731 17.264 15.8814 17.442C16.1896 17.62 16.2953 18.0142 16.1173 18.3224L15.795 18.8806C15.617 19.1889 15.2228 19.2945 14.9146 19.1165Z" fill="url(#paint10_linear_436_740)"/>
<path d="M16.2036 16.8837C15.8954 16.7058 15.7897 16.3116 15.9677 16.0033L17.0419 14.1427C17.2199 13.8344 17.6141 13.7288 17.9224 13.9068C18.2307 14.0848 18.3363 14.479 18.1583 14.7872L17.0841 16.6478C16.9061 16.9561 16.5119 17.0617 16.2036 16.8837Z" fill="url(#paint11_linear_436_740)"/>
<defs>
<filter id="filter0_d_436_740" x="6.14473" y="10.454" width="11.2674" height="11.1844" filterUnits="userSpaceOnUse" color-interpolation-filters="sRGB">
<feFlood flood-opacity="0" result="BackgroundImageFix"/>
<feColorMatrix in="SourceAlpha" type="matrix" values="0 0 0 0 0 0 0 0 0 0 0 0 0 0 0 0 0 0 127 0" result="hardAlpha"/>
<feOffset/>
<feGaussianBlur stdDeviation="1.52778"/>
<feComposite in2="hardAlpha" operator="out"/>
<feColorMatrix type="matrix" values="0 0 0 0 0.109804 0 0 0 0 0.109804 0 0 0 0 0.109804 0 0 0 0.1 0"/>
<feBlend mode="normal" in2="BackgroundImageFix" result="effect1_dropShadow_436_740"/>
<feBlend mode="normal" in="SourceGraphic" in2="effect1_dropShadow_436_740" result="shape"/>
</filter>
<filter id="filter1_d_436_740" x="0.794451" y="0.216661" width="20.949" height="22.0418" filterUnits="userSpaceOnUse" color-interpolation-filters="sRGB">
<feFlood flood-opacity="0" result="BackgroundImageFix"/>
<feColorMatrix in="SourceAlpha" type="matrix" values="0 0 0 0 0 0 0 0 0 0 0 0 0 0 0 0 0 0 127 0" result="hardAlpha"/>
<feOffset/>
<feGaussianBlur stdDeviation="1.52778"/>
<feComposite in2="hardAlpha" operator="out"/>
<feColorMatrix type="matrix" values="0 0 0 0 0.109804 0 0 0 0 0.109804 0 0 0 0 0.109804 0 0 0 0.06 0"/>
<feBlend mode="normal" in2="BackgroundImageFix" result="effect1_dropShadow_436_740"/>
<feBlend mode="normal" in="SourceGraphic" in2="effect1_dropShadow_436_740" result="shape"/>
</filter>
<linearGradient id="paint0_linear_436_740" x1="11.7784" y1="13.155" x2="11.7784" y2="18.5827" gradientUnits="userSpaceOnUse">
<stop stop-color="#FFD230"/>
<stop offset="1" stop-color="#FE9A00"/>
</linearGradient>
<linearGradient id="paint1_linear_436_740" x1="11.7784" y1="13.155" x2="11.7784" y2="18.5827" gradientUnits="userSpaceOnUse">
<stop stop-color="#FFD230"/>
<stop offset="1" stop-color="#FE9A00"/>
</linearGradient>
<linearGradient id="paint2_linear_436_740" x1="4.47372" y1="2.75659" x2="18.4497" y2="19.0629" gradientUnits="userSpaceOnUse">
<stop offset="0.399038" stop-color="white"/>
<stop offset="1" stop-color="white" stop-opacity="0.25"/>
</linearGradient>
<linearGradient id="paint3_linear_436_740" x1="4.47372" y1="2.75659" x2="18.4497" y2="19.0629" gradientUnits="userSpaceOnUse">
<stop offset="0.399038" stop-color="white"/>
<stop offset="1" stop-color="white" stop-opacity="0.25"/>
</linearGradient>
<linearGradient id="paint4_linear_436_740" x1="4.47372" y1="2.75659" x2="18.4497" y2="19.0629" gradientUnits="userSpaceOnUse">
<stop offset="0.399038" stop-color="white"/>
<stop offset="1" stop-color="white" stop-opacity="0.25"/>
</linearGradient>
<linearGradient id="paint5_linear_436_740" x1="4.47372" y1="2.75659" x2="18.4497" y2="19.0629" gradientUnits="userSpaceOnUse">
<stop offset="0.399038" stop-color="white"/>
<stop offset="1" stop-color="white" stop-opacity="0.25"/>
</linearGradient>
<linearGradient id="paint6_linear_436_740" x1="4.47372" y1="2.75659" x2="18.4497" y2="19.0629" gradientUnits="userSpaceOnUse">
<stop offset="0.399038" stop-color="white"/>
<stop offset="1" stop-color="white" stop-opacity="0.25"/>
</linearGradient>
<linearGradient id="paint7_linear_436_740" x1="4.47372" y1="2.75659" x2="18.4497" y2="19.0629" gradientUnits="userSpaceOnUse">
<stop offset="0.399038" stop-color="white"/>
<stop offset="1" stop-color="white" stop-opacity="0.25"/>
</linearGradient>
<linearGradient id="paint8_linear_436_740" x1="4.47372" y1="2.75659" x2="18.4497" y2="19.0629" gradientUnits="userSpaceOnUse">
<stop offset="0.399038" stop-color="white"/>
<stop offset="1" stop-color="white" stop-opacity="0.25"/>
</linearGradient>
<linearGradient id="paint9_linear_436_740" x1="4.47372" y1="2.75659" x2="18.4497" y2="19.0629" gradientUnits="userSpaceOnUse">
<stop offset="0.399038" stop-color="white"/>
<stop offset="1" stop-color="white" stop-opacity="0.25"/>
</linearGradient>
<linearGradient id="paint10_linear_436_740" x1="4.47372" y1="2.75659" x2="18.4497" y2="19.0629" gradientUnits="userSpaceOnUse">
<stop offset="0.399038" stop-color="white"/>
<stop offset="1" stop-color="white" stop-opacity="0.25"/>
</linearGradient>
<linearGradient id="paint11_linear_436_740" x1="4.47372" y1="2.75659" x2="18.4497" y2="19.0629" gradientUnits="userSpaceOnUse">
<stop offset="0.399038" stop-color="white"/>
<stop offset="1" stop-color="white" stop-opacity="0.25"/>
</linearGradient>
</defs>
</svg>
